%TF.GenerationSoftware,KiCad,Pcbnew,9.0.0*%
%TF.CreationDate,2026-08-02T16:23:24+09:00*%
%TF.ProjectId,SENSOR_ECU_PCB_V1,53454e53-4f52-45f4-9543-555f5043425f,rev?*%
%TF.SameCoordinates,Original*%
%TF.FileFunction,Copper,L1,Top*%
%TF.FilePolarity,Positive*%
%FSLAX46Y46*%
G04 Gerber Fmt 4.6, Leading zero omitted, Abs format (unit mm)*
G04 Created by KiCad (PCBNEW 9.0.0) date 2026-08-02 16:23:24*
%MOMM*%
%LPD*%
G01*
G04 APERTURE LIST*
G04 Aperture macros list*
%AMRoundRect*
0 Rectangle with rounded corners*
0 $1 Rounding radius*
0 $2 $3 $4 $5 $6 $7 $8 $9 X,Y pos of 4 corners*
0 Add a 4 corners polygon primitive as box body*
4,1,4,$2,$3,$4,$5,$6,$7,$8,$9,$2,$3,0*
0 Add four circle primitives for the rounded corners*
1,1,$1+$1,$2,$3*
1,1,$1+$1,$4,$5*
1,1,$1+$1,$6,$7*
1,1,$1+$1,$8,$9*
0 Add four rect primitives between the rounded corners*
20,1,$1+$1,$2,$3,$4,$5,0*
20,1,$1+$1,$4,$5,$6,$7,0*
20,1,$1+$1,$6,$7,$8,$9,0*
20,1,$1+$1,$8,$9,$2,$3,0*%
G04 Aperture macros list end*
%TA.AperFunction,SMDPad,CuDef*%
%ADD10RoundRect,0.225000X0.225000X0.250000X-0.225000X0.250000X-0.225000X-0.250000X0.225000X-0.250000X0*%
%TD*%
%TA.AperFunction,ComponentPad*%
%ADD11RoundRect,0.250000X-1.050000X0.750000X-1.050000X-0.750000X1.050000X-0.750000X1.050000X0.750000X0*%
%TD*%
%TA.AperFunction,ComponentPad*%
%ADD12O,2.600000X2.000000*%
%TD*%
%TA.AperFunction,ComponentPad*%
%ADD13RoundRect,0.250000X-0.600000X-0.675000X0.600000X-0.675000X0.600000X0.675000X-0.600000X0.675000X0*%
%TD*%
%TA.AperFunction,ComponentPad*%
%ADD14O,1.700000X1.850000*%
%TD*%
%TA.AperFunction,SMDPad,CuDef*%
%ADD15RoundRect,0.225000X-0.225000X-0.250000X0.225000X-0.250000X0.225000X0.250000X-0.225000X0.250000X0*%
%TD*%
%TA.AperFunction,SMDPad,CuDef*%
%ADD16RoundRect,0.218750X0.256250X-0.218750X0.256250X0.218750X-0.256250X0.218750X-0.256250X-0.218750X0*%
%TD*%
%TA.AperFunction,SMDPad,CuDef*%
%ADD17RoundRect,0.200000X-0.275000X0.200000X-0.275000X-0.200000X0.275000X-0.200000X0.275000X0.200000X0*%
%TD*%
%TA.AperFunction,ComponentPad*%
%ADD18RoundRect,0.250000X0.600000X0.675000X-0.600000X0.675000X-0.600000X-0.675000X0.600000X-0.675000X0*%
%TD*%
%TA.AperFunction,SMDPad,CuDef*%
%ADD19C,1.000000*%
%TD*%
%TA.AperFunction,SMDPad,CuDef*%
%ADD20RoundRect,0.237500X-0.237500X0.300000X-0.237500X-0.300000X0.237500X-0.300000X0.237500X0.300000X0*%
%TD*%
%TA.AperFunction,ComponentPad*%
%ADD21R,1.700000X1.700000*%
%TD*%
%TA.AperFunction,ComponentPad*%
%ADD22O,1.700000X1.700000*%
%TD*%
%TA.AperFunction,SMDPad,CuDef*%
%ADD23RoundRect,0.150000X0.825000X0.150000X-0.825000X0.150000X-0.825000X-0.150000X0.825000X-0.150000X0*%
%TD*%
%TA.AperFunction,SMDPad,CuDef*%
%ADD24R,1.400000X1.200000*%
%TD*%
%TA.AperFunction,SMDPad,CuDef*%
%ADD25RoundRect,0.155000X-0.155000X0.212500X-0.155000X-0.212500X0.155000X-0.212500X0.155000X0.212500X0*%
%TD*%
%TA.AperFunction,SMDPad,CuDef*%
%ADD26RoundRect,0.155000X0.155000X-0.212500X0.155000X0.212500X-0.155000X0.212500X-0.155000X-0.212500X0*%
%TD*%
%TA.AperFunction,SMDPad,CuDef*%
%ADD27RoundRect,0.250000X-0.850000X-0.350000X0.850000X-0.350000X0.850000X0.350000X-0.850000X0.350000X0*%
%TD*%
%TA.AperFunction,SMDPad,CuDef*%
%ADD28RoundRect,0.250000X-1.275000X-1.125000X1.275000X-1.125000X1.275000X1.125000X-1.275000X1.125000X0*%
%TD*%
%TA.AperFunction,SMDPad,CuDef*%
%ADD29RoundRect,0.249997X-2.950003X-2.650003X2.950003X-2.650003X2.950003X2.650003X-2.950003X2.650003X0*%
%TD*%
%TA.AperFunction,ComponentPad*%
%ADD30C,2.000000*%
%TD*%
%TA.AperFunction,SMDPad,CuDef*%
%ADD31RoundRect,0.218750X-0.218750X-0.256250X0.218750X-0.256250X0.218750X0.256250X-0.218750X0.256250X0*%
%TD*%
%TA.AperFunction,SMDPad,CuDef*%
%ADD32RoundRect,0.200000X0.275000X-0.200000X0.275000X0.200000X-0.275000X0.200000X-0.275000X-0.200000X0*%
%TD*%
%TA.AperFunction,SMDPad,CuDef*%
%ADD33RoundRect,0.075000X0.662500X0.075000X-0.662500X0.075000X-0.662500X-0.075000X0.662500X-0.075000X0*%
%TD*%
%TA.AperFunction,SMDPad,CuDef*%
%ADD34RoundRect,0.075000X0.075000X0.662500X-0.075000X0.662500X-0.075000X-0.662500X0.075000X-0.662500X0*%
%TD*%
%TA.AperFunction,SMDPad,CuDef*%
%ADD35RoundRect,0.200000X-0.200000X-0.275000X0.200000X-0.275000X0.200000X0.275000X-0.200000X0.275000X0*%
%TD*%
%TA.AperFunction,SMDPad,CuDef*%
%ADD36RoundRect,0.225000X-0.250000X0.225000X-0.250000X-0.225000X0.250000X-0.225000X0.250000X0.225000X0*%
%TD*%
%TA.AperFunction,ViaPad*%
%ADD37C,0.800000*%
%TD*%
%TA.AperFunction,ViaPad*%
%ADD38C,0.600000*%
%TD*%
%TA.AperFunction,Conductor*%
%ADD39C,0.500000*%
%TD*%
%TA.AperFunction,Conductor*%
%ADD40C,0.250000*%
%TD*%
%TA.AperFunction,Conductor*%
%ADD41C,0.300000*%
%TD*%
%TA.AperFunction,Conductor*%
%ADD42C,0.100000*%
%TD*%
G04 APERTURE END LIST*
D10*
%TO.P,C34,1*%
%TO.N,3.3V*%
X96279000Y-37592000D03*
%TO.P,C34,2*%
%TO.N,GND*%
X94729000Y-37592000D03*
%TD*%
D11*
%TO.P,J10,1,Pin_1*%
%TO.N,/CAN_HIGH*%
X73125000Y-74460000D03*
D12*
%TO.P,J10,2,Pin_2*%
%TO.N,GND*%
X73125000Y-77960000D03*
%TO.P,J10,3,Pin_3*%
%TO.N,/CAN_LOW*%
X73125000Y-81460000D03*
%TD*%
D13*
%TO.P,J4,1,Pin_1*%
%TO.N,3.3V*%
X82750000Y-107850000D03*
D14*
%TO.P,J4,2,Pin_2*%
%TO.N,GND*%
X85250000Y-107850000D03*
%TO.P,J4,3,Pin_3*%
%TO.N,/SCL*%
X87750000Y-107850000D03*
%TO.P,J4,4,Pin_4*%
%TO.N,/SDA*%
X90250000Y-107850000D03*
%TO.P,J4,5,Pin_5*%
%TO.N,/GPIO4*%
X92750000Y-107850000D03*
%TO.P,J4,6,Pin_6*%
%TO.N,/XSHUT4*%
X95250000Y-107850000D03*
%TD*%
D15*
%TO.P,C27,1*%
%TO.N,3.3V*%
X114906500Y-77250000D03*
%TO.P,C27,2*%
%TO.N,GND*%
X116456500Y-77250000D03*
%TD*%
D10*
%TO.P,C25,1*%
%TO.N,3.3V*%
X106181500Y-67250000D03*
%TO.P,C25,2*%
%TO.N,GND*%
X104631500Y-67250000D03*
%TD*%
D16*
%TO.P,D3,1,K*%
%TO.N,Net-(D3-K)*%
X137208000Y-79575500D03*
%TO.P,D3,2,A*%
%TO.N,3.3V*%
X137208000Y-78000500D03*
%TD*%
D17*
%TO.P,R21,1*%
%TO.N,Net-(D5-K)*%
X140208000Y-81788000D03*
%TO.P,R21,2*%
%TO.N,/LED1*%
X140208000Y-83438000D03*
%TD*%
D18*
%TO.P,J2,1,Pin_1*%
%TO.N,3.3V*%
X116726000Y-34544000D03*
D14*
%TO.P,J2,2,Pin_2*%
%TO.N,GND*%
X114226000Y-34544000D03*
%TO.P,J2,3,Pin_3*%
%TO.N,/SCL*%
X111726000Y-34544000D03*
%TO.P,J2,4,Pin_4*%
%TO.N,/SDA*%
X109226000Y-34544000D03*
%TO.P,J2,5,Pin_5*%
%TO.N,/GPIO2*%
X106726000Y-34544000D03*
%TO.P,J2,6,Pin_6*%
%TO.N,/XSHUT2*%
X104226000Y-34544000D03*
%TD*%
D15*
%TO.P,C39,1*%
%TO.N,3.3V*%
X104889000Y-104140000D03*
%TO.P,C39,2*%
%TO.N,GND*%
X106439000Y-104140000D03*
%TD*%
D10*
%TO.P,C31,1*%
%TO.N,A3.3V*%
X108681500Y-62452000D03*
%TO.P,C31,2*%
%TO.N,GND*%
X107131500Y-62452000D03*
%TD*%
D19*
%TO.P,TP2,1,1*%
%TO.N,Net-(D5-K)*%
X144708000Y-79500500D03*
%TD*%
D20*
%TO.P,C1,1*%
%TO.N,5V*%
X76350000Y-59537500D03*
%TO.P,C1,2*%
%TO.N,GND*%
X76350000Y-61262500D03*
%TD*%
D21*
%TO.P,J12,1,Pin_1*%
%TO.N,Net-(J12-Pin_1)*%
X78232000Y-78740000D03*
D22*
%TO.P,J12,2,Pin_2*%
%TO.N,/CAN_LOW*%
X78232000Y-81280000D03*
%TD*%
D15*
%TO.P,C33,1*%
%TO.N,/RESET*%
X118259000Y-64367000D03*
%TO.P,C33,2*%
%TO.N,GND*%
X119809000Y-64367000D03*
%TD*%
D21*
%TO.P,J9,1,Pin_1*%
%TO.N,GND*%
X138176000Y-59944000D03*
D22*
%TO.P,J9,2,Pin_2*%
%TO.N,/UART2_RX*%
X138176000Y-62484000D03*
%TO.P,J9,3,Pin_3*%
%TO.N,/UART2_TX*%
X138176000Y-65024000D03*
%TO.P,J9,4,Pin_4*%
%TO.N,3.3V*%
X138176000Y-67564000D03*
%TD*%
D23*
%TO.P,U3,1,D*%
%TO.N,/CAN1_TX*%
X86803000Y-80137000D03*
%TO.P,U3,2,GND*%
%TO.N,GND*%
X86803000Y-78867000D03*
%TO.P,U3,3,VCC*%
%TO.N,3.3V*%
X86803000Y-77597000D03*
%TO.P,U3,4,R*%
%TO.N,/CAN1_RX*%
X86803000Y-76327000D03*
%TO.P,U3,5,Vref*%
%TO.N,unconnected-(U3-Vref-Pad5)*%
X81853000Y-76327000D03*
%TO.P,U3,6,CANL*%
%TO.N,/CAN_LOW*%
X81853000Y-77597000D03*
%TO.P,U3,7,CANH*%
%TO.N,/CAN_HIGH*%
X81853000Y-78867000D03*
%TO.P,U3,8,Rs*%
%TO.N,Net-(U3-Rs)*%
X81853000Y-80137000D03*
%TD*%
D11*
%TO.P,J11,1,Pin_1*%
%TO.N,GND*%
X73000000Y-55500000D03*
D12*
%TO.P,J11,2,Pin_2*%
%TO.N,5V*%
X73000000Y-59000000D03*
%TD*%
D24*
%TO.P,Y1,1,1*%
%TO.N,/OSC_OUT*%
X121944000Y-71500000D03*
%TO.P,Y1,2,2*%
%TO.N,GND*%
X119744000Y-71500000D03*
%TO.P,Y1,3,3*%
%TO.N,/OSC_IN*%
X119744000Y-73200000D03*
%TO.P,Y1,4,4*%
%TO.N,GND*%
X121944000Y-73200000D03*
%TD*%
D25*
%TO.P,C42,1*%
%TO.N,/OSC_IN*%
X117244000Y-73432500D03*
%TO.P,C42,2*%
%TO.N,GND*%
X117244000Y-74567500D03*
%TD*%
D26*
%TO.P,C41,1*%
%TO.N,/OSC_OUT*%
X117244000Y-71067500D03*
%TO.P,C41,2*%
%TO.N,GND*%
X117244000Y-69932500D03*
%TD*%
D10*
%TO.P,C26,1*%
%TO.N,3.3V*%
X105681500Y-76250000D03*
%TO.P,C26,2*%
%TO.N,GND*%
X104131500Y-76250000D03*
%TD*%
%TO.P,C29,1*%
%TO.N,3.3V*%
X105181500Y-60452000D03*
%TO.P,C29,2*%
%TO.N,GND*%
X103631500Y-60452000D03*
%TD*%
D13*
%TO.P,J8,1,Pin_1*%
%TO.N,3.3V*%
X125250000Y-107850000D03*
D14*
%TO.P,J8,2,Pin_2*%
%TO.N,GND*%
X127750000Y-107850000D03*
%TO.P,J8,3,Pin_3*%
%TO.N,/SCL*%
X130250000Y-107850000D03*
%TO.P,J8,4,Pin_4*%
%TO.N,/SDA*%
X132750000Y-107850000D03*
%TO.P,J8,5,Pin_5*%
%TO.N,/GPIO6*%
X135250000Y-107850000D03*
%TO.P,J8,6,Pin_6*%
%TO.N,/XSHUT6*%
X137750000Y-107850000D03*
%TD*%
D21*
%TO.P,J5,1,Pin_1*%
%TO.N,3.3V*%
X105141000Y-82042000D03*
D22*
%TO.P,J5,2,Pin_2*%
%TO.N,Net-(J5-Pin_2)*%
X102601000Y-82042000D03*
%TO.P,J5,3,Pin_3*%
%TO.N,GND*%
X100061000Y-82042000D03*
%TD*%
D27*
%TO.P,U2,1,GND*%
%TO.N,GND*%
X79650000Y-55192500D03*
D28*
%TO.P,U2,2,VO*%
%TO.N,3.3V*%
X84275000Y-55947500D03*
X84275000Y-58997500D03*
D29*
X85950000Y-57472500D03*
D28*
X87625000Y-55947500D03*
X87625000Y-58997500D03*
D27*
%TO.P,U2,3,VI*%
%TO.N,5V*%
X79650000Y-59752500D03*
%TD*%
D15*
%TO.P,C30,1*%
%TO.N,A3.3V*%
X110406500Y-62452000D03*
%TO.P,C30,2*%
%TO.N,GND*%
X111956500Y-62452000D03*
%TD*%
D17*
%TO.P,R16,1*%
%TO.N,Net-(D3-K)*%
X137208000Y-81788000D03*
%TO.P,R16,2*%
%TO.N,GND*%
X137208000Y-83438000D03*
%TD*%
D16*
%TO.P,D5,1,K*%
%TO.N,Net-(D5-K)*%
X140208000Y-79575500D03*
%TO.P,D5,2,A*%
%TO.N,3.3V*%
X140208000Y-78000500D03*
%TD*%
D10*
%TO.P,C32,1*%
%TO.N,A3.3V*%
X108681500Y-64452000D03*
%TO.P,C32,2*%
%TO.N,GND*%
X107131500Y-64452000D03*
%TD*%
D20*
%TO.P,C3,1*%
%TO.N,3.3V*%
X91350000Y-58037500D03*
%TO.P,C3,2*%
%TO.N,GND*%
X91350000Y-59762500D03*
%TD*%
D10*
%TO.P,C37,1*%
%TO.N,3.3V*%
X137668000Y-37592000D03*
%TO.P,C37,2*%
%TO.N,GND*%
X136118000Y-37592000D03*
%TD*%
D15*
%TO.P,C38,1*%
%TO.N,3.3V*%
X83553000Y-104140000D03*
%TO.P,C38,2*%
%TO.N,GND*%
X85103000Y-104140000D03*
%TD*%
D30*
%TO.P,SW1,1,1*%
%TO.N,GND*%
X115284000Y-57117000D03*
X121784000Y-57117000D03*
%TO.P,SW1,2,2*%
%TO.N,/RESET*%
X115284000Y-61617000D03*
X121784000Y-61617000D03*
%TD*%
D21*
%TO.P,J7,1,Pin_1*%
%TO.N,/SWCLK*%
X138176000Y-89408000D03*
D22*
%TO.P,J7,2,Pin_2*%
%TO.N,/SWDIO*%
X138176000Y-91948000D03*
%TO.P,J7,3,Pin_3*%
%TO.N,GND*%
X138176000Y-94488000D03*
%TO.P,J7,4,Pin_4*%
%TO.N,3.3V*%
X138176000Y-97028000D03*
%TD*%
D31*
%TO.P,FB1,1*%
%TO.N,3.3V*%
X107119000Y-60452000D03*
%TO.P,FB1,2*%
%TO.N,A3.3V*%
X108694000Y-60452000D03*
%TD*%
D18*
%TO.P,J3,1,Pin_1*%
%TO.N,3.3V*%
X137976000Y-34544000D03*
D14*
%TO.P,J3,2,Pin_2*%
%TO.N,GND*%
X135476000Y-34544000D03*
%TO.P,J3,3,Pin_3*%
%TO.N,/SCL*%
X132976000Y-34544000D03*
%TO.P,J3,4,Pin_4*%
%TO.N,/SDA*%
X130476000Y-34544000D03*
%TO.P,J3,5,Pin_5*%
%TO.N,/GPIO1*%
X127976000Y-34544000D03*
%TO.P,J3,6,Pin_6*%
%TO.N,/XSHUT1*%
X125476000Y-34544000D03*
%TD*%
D21*
%TO.P,J13,1,Pin_1*%
%TO.N,GND*%
X138176000Y-47244000D03*
D22*
%TO.P,J13,2,Pin_2*%
%TO.N,/UART1_TX*%
X138176000Y-49784000D03*
%TO.P,J13,3,Pin_3*%
%TO.N,/UART1_RX*%
X138176000Y-52324000D03*
%TO.P,J13,4,Pin_4*%
%TO.N,5V*%
X138176000Y-54864000D03*
%TD*%
D18*
%TO.P,J1,1,Pin_1*%
%TO.N,3.3V*%
X96226000Y-34544000D03*
D14*
%TO.P,J1,2,Pin_2*%
%TO.N,GND*%
X93726000Y-34544000D03*
%TO.P,J1,3,Pin_3*%
%TO.N,/SCL*%
X91226000Y-34544000D03*
%TO.P,J1,4,Pin_4*%
%TO.N,/SDA*%
X88726000Y-34544000D03*
%TO.P,J1,5,Pin_5*%
%TO.N,/GPIO3*%
X86226000Y-34544000D03*
%TO.P,J1,6,Pin_6*%
%TO.N,/XSHUT3*%
X83726000Y-34544000D03*
%TD*%
D32*
%TO.P,R22,1*%
%TO.N,GND*%
X81788000Y-83629000D03*
%TO.P,R22,2*%
%TO.N,Net-(U3-Rs)*%
X81788000Y-81979000D03*
%TD*%
%TO.P,R18,1*%
%TO.N,Net-(J12-Pin_1)*%
X78232000Y-75501000D03*
%TO.P,R18,2*%
%TO.N,/CAN_HIGH*%
X78232000Y-73851000D03*
%TD*%
D15*
%TO.P,C28,1*%
%TO.N,A3.3V*%
X110406500Y-64452000D03*
%TO.P,C28,2*%
%TO.N,GND*%
X111956500Y-64452000D03*
%TD*%
D33*
%TO.P,U1,1,VBAT*%
%TO.N,3.3V*%
X114906500Y-74750000D03*
%TO.P,U1,2,PC13*%
%TO.N,unconnected-(U1-PC13-Pad2)*%
X114906500Y-74250000D03*
%TO.P,U1,3,PC14*%
%TO.N,unconnected-(U1-PC14-Pad3)*%
X114906500Y-73750000D03*
%TO.P,U1,4,PC15*%
%TO.N,unconnected-(U1-PC15-Pad4)*%
X114906500Y-73250000D03*
%TO.P,U1,5,PF0*%
%TO.N,/OSC_IN*%
X114906500Y-72750000D03*
%TO.P,U1,6,PF1*%
%TO.N,/OSC_OUT*%
X114906500Y-72250000D03*
%TO.P,U1,7,PG10*%
%TO.N,/RESET*%
X114906500Y-71750000D03*
%TO.P,U1,8,PA0*%
%TO.N,unconnected-(U1-PA0-Pad8)*%
X114906500Y-71250000D03*
%TO.P,U1,9,PA1*%
%TO.N,/LED1*%
X114906500Y-70750000D03*
%TO.P,U1,10,PA2*%
%TO.N,/UART2_TX*%
X114906500Y-70250000D03*
%TO.P,U1,11,PA3*%
%TO.N,/UART2_RX*%
X114906500Y-69750000D03*
%TO.P,U1,12,PA4*%
%TO.N,unconnected-(U1-PA4-Pad12)*%
X114906500Y-69250000D03*
D34*
%TO.P,U1,13,PA5*%
%TO.N,unconnected-(U1-PA5-Pad13)*%
X113494000Y-67837500D03*
%TO.P,U1,14,PA6*%
%TO.N,unconnected-(U1-PA6-Pad14)*%
X112994000Y-67837500D03*
%TO.P,U1,15,PA7*%
%TO.N,unconnected-(U1-PA7-Pad15)*%
X112494000Y-67837500D03*
%TO.P,U1,16,PB0*%
%TO.N,/XSHUT1*%
X111994000Y-67837500D03*
%TO.P,U1,17,PB1*%
%TO.N,/XSHUT2*%
X111494000Y-67837500D03*
%TO.P,U1,18,PB2*%
%TO.N,/XSHUT3*%
X110994000Y-67837500D03*
%TO.P,U1,19,VSSA*%
%TO.N,GND*%
X110494000Y-67837500D03*
%TO.P,U1,20,VREF+*%
%TO.N,A3.3V*%
X109994000Y-67837500D03*
%TO.P,U1,21,VDDA*%
X109494000Y-67837500D03*
%TO.P,U1,22,PB10*%
%TO.N,/GPIO1*%
X108994000Y-67837500D03*
%TO.P,U1,23,VSS*%
%TO.N,GND*%
X108494000Y-67837500D03*
%TO.P,U1,24,VDD*%
%TO.N,3.3V*%
X107994000Y-67837500D03*
D33*
%TO.P,U1,25,PB11*%
%TO.N,/GPIO2*%
X106581500Y-69250000D03*
%TO.P,U1,26,PB12*%
%TO.N,/GPIO3*%
X106581500Y-69750000D03*
%TO.P,U1,27,PB13*%
%TO.N,/GPIO4*%
X106581500Y-70250000D03*
%TO.P,U1,28,PB14*%
%TO.N,/GPIO5*%
X106581500Y-70750000D03*
%TO.P,U1,29,PB15*%
%TO.N,/GPIO6*%
X106581500Y-71250000D03*
%TO.P,U1,30,PA8*%
%TO.N,unconnected-(U1-PA8-Pad30)*%
X106581500Y-71750000D03*
%TO.P,U1,31,PA9*%
%TO.N,/UART1_TX*%
X106581500Y-72250000D03*
%TO.P,U1,32,PA10*%
%TO.N,/UART1_RX*%
X106581500Y-72750000D03*
%TO.P,U1,33,PA11*%
%TO.N,/CAN1_RX*%
X106581500Y-73250000D03*
%TO.P,U1,34,PA12*%
%TO.N,/CAN1_TX*%
X106581500Y-73750000D03*
%TO.P,U1,35,VSS*%
%TO.N,GND*%
X106581500Y-74250000D03*
%TO.P,U1,36,VDD*%
%TO.N,3.3V*%
X106581500Y-74750000D03*
D34*
%TO.P,U1,37,PA13*%
%TO.N,/SWDIO*%
X107994000Y-76162500D03*
%TO.P,U1,38,PA14*%
%TO.N,/SWCLK*%
X108494000Y-76162500D03*
%TO.P,U1,39,PA15*%
%TO.N,/SCL*%
X108994000Y-76162500D03*
%TO.P,U1,40,PB3*%
%TO.N,/XSHUT4*%
X109494000Y-76162500D03*
%TO.P,U1,41,PB4*%
%TO.N,/XSHUT5*%
X109994000Y-76162500D03*
%TO.P,U1,42,PB5*%
%TO.N,/XSHUT6*%
X110494000Y-76162500D03*
%TO.P,U1,43,PB6*%
%TO.N,unconnected-(U1-PB6-Pad43)*%
X110994000Y-76162500D03*
%TO.P,U1,44,PB7*%
%TO.N,unconnected-(U1-PB7-Pad44)*%
X111494000Y-76162500D03*
%TO.P,U1,45,PB8*%
%TO.N,/BOOT0*%
X111994000Y-76162500D03*
%TO.P,U1,46,PB9*%
%TO.N,/SDA*%
X112494000Y-76162500D03*
%TO.P,U1,47,VSS*%
%TO.N,GND*%
X112994000Y-76162500D03*
%TO.P,U1,48,VDD*%
%TO.N,3.3V*%
X113494000Y-76162500D03*
%TD*%
D15*
%TO.P,C40,1*%
%TO.N,3.3V*%
X125717000Y-104140000D03*
%TO.P,C40,2*%
%TO.N,GND*%
X127267000Y-104140000D03*
%TD*%
D10*
%TO.P,C36,1*%
%TO.N,3.3V*%
X116599000Y-37592000D03*
%TO.P,C36,2*%
%TO.N,GND*%
X115049000Y-37592000D03*
%TD*%
D35*
%TO.P,R11,1*%
%TO.N,Net-(J5-Pin_2)*%
X104585000Y-79248000D03*
%TO.P,R11,2*%
%TO.N,/BOOT0*%
X106235000Y-79248000D03*
%TD*%
D20*
%TO.P,C2,1*%
%TO.N,3.3V*%
X93350000Y-58037500D03*
%TO.P,C2,2*%
%TO.N,GND*%
X93350000Y-59762500D03*
%TD*%
D36*
%TO.P,C35,1*%
%TO.N,3.3V*%
X88975000Y-77335000D03*
%TO.P,C35,2*%
%TO.N,GND*%
X88975000Y-78885000D03*
%TD*%
D13*
%TO.P,J6,1,Pin_1*%
%TO.N,3.3V*%
X104250000Y-107850000D03*
D14*
%TO.P,J6,2,Pin_2*%
%TO.N,GND*%
X106750000Y-107850000D03*
%TO.P,J6,3,Pin_3*%
%TO.N,/SCL*%
X109250000Y-107850000D03*
%TO.P,J6,4,Pin_4*%
%TO.N,/SDA*%
X111750000Y-107850000D03*
%TO.P,J6,5,Pin_5*%
%TO.N,/GPIO5*%
X114250000Y-107850000D03*
%TO.P,J6,6,Pin_6*%
%TO.N,/XSHUT5*%
X116750000Y-107850000D03*
%TD*%
D37*
%TO.N,5V*%
X130556000Y-54864000D03*
X88514347Y-47375653D03*
X93472000Y-47498000D03*
D38*
%TO.N,GND*%
X79756000Y-53086000D03*
X110744000Y-69088000D03*
X121412000Y-64262000D03*
X86360000Y-104140000D03*
X122936000Y-74676000D03*
X123698000Y-72898000D03*
X119380000Y-74676000D03*
X120650000Y-69850000D03*
X90170000Y-78994000D03*
X116586000Y-78486000D03*
D37*
X118364000Y-74422000D03*
D38*
X83058000Y-83820000D03*
X105918000Y-64516000D03*
X103632000Y-59436000D03*
D37*
X102870000Y-76454000D03*
D38*
X120142000Y-74676000D03*
X123698000Y-73660000D03*
D37*
X122174000Y-74930000D03*
D38*
X128778000Y-104140000D03*
X123698000Y-71374000D03*
X113284000Y-77470000D03*
D37*
X118872000Y-68580000D03*
D38*
X121412000Y-69850000D03*
D37*
X118364000Y-71882000D03*
D38*
X104648000Y-66294000D03*
X105156000Y-74422000D03*
X122936000Y-69850000D03*
X94996000Y-59690000D03*
X123698000Y-70612000D03*
X123698000Y-69850000D03*
X119888000Y-69850000D03*
X120904000Y-74676000D03*
X122174000Y-69850000D03*
X123698000Y-74422000D03*
X105918000Y-62738000D03*
X113284000Y-62484000D03*
X119126000Y-69850000D03*
X123698000Y-72136000D03*
X77470000Y-61722000D03*
X107696000Y-104140000D03*
X137160000Y-84582000D03*
X134620000Y-37592000D03*
X108204000Y-69342000D03*
%TO.N,3.3V*%
X106382000Y-109982000D03*
D37*
X96266000Y-46228000D03*
D38*
X132588000Y-98044000D03*
D37*
X96266000Y-48514000D03*
D38*
X84628000Y-109728000D03*
X103124000Y-74930000D03*
D37*
X92456000Y-52070000D03*
D38*
X127000000Y-101346000D03*
X98552000Y-32258000D03*
X100968963Y-75060963D03*
X123118000Y-109982000D03*
X114440000Y-32258000D03*
D37*
X94488000Y-50038000D03*
D38*
X109703824Y-72780463D03*
X102362000Y-109728000D03*
X119126000Y-32258000D03*
X135690000Y-32258000D03*
X113119000Y-72898000D03*
%TO.N,/SCL*%
X110998000Y-38100000D03*
X118364000Y-37338000D03*
X108204000Y-36830000D03*
X109728000Y-69596000D03*
%TO.N,/XSHUT1*%
X125222000Y-38608000D03*
X121412000Y-49530000D03*
X125222000Y-45720000D03*
X117856000Y-61722000D03*
X113538000Y-66040000D03*
%TO.N,/GPIO1*%
X108595000Y-66294000D03*
X108458000Y-54102000D03*
X123698000Y-48260000D03*
%TO.N,/SDA*%
X112461058Y-69535058D03*
%TO.N,/GPIO2*%
X106726000Y-37455000D03*
X102108000Y-62992000D03*
%TO.N,/XSHUT2*%
X111506000Y-60706000D03*
X111566942Y-51876942D03*
X111506000Y-66040000D03*
X111506000Y-46736000D03*
%TO.N,/GPIO3*%
X100584000Y-58928000D03*
X102108000Y-68326000D03*
%TO.N,/XSHUT3*%
X101483000Y-58420000D03*
X109982000Y-59436000D03*
X99822000Y-57658000D03*
X110705997Y-66040000D03*
%TO.N,/GPIO4*%
X97282000Y-72644000D03*
X96012000Y-81534000D03*
%TO.N,/XSHUT4*%
X107823000Y-84963000D03*
X109591000Y-81028799D03*
%TO.N,/GPIO5*%
X113482058Y-105465942D03*
X98552000Y-72644000D03*
%TO.N,/XSHUT5*%
X112014000Y-102870000D03*
X113792000Y-104648000D03*
%TO.N,/SWCLK*%
X109443529Y-74330587D03*
X119888000Y-78740000D03*
%TO.N,/SWDIO*%
X109865000Y-73564061D03*
X121920000Y-79756000D03*
%TO.N,/XSHUT6*%
X110619000Y-77724000D03*
X114046000Y-81026000D03*
%TO.N,/GPIO6*%
X128651000Y-98425000D03*
X100838000Y-71882000D03*
%TO.N,/UART1_RX*%
X124714000Y-66040000D03*
X109220000Y-71920003D03*
%TO.N,/UART1_TX*%
X124714000Y-65024000D03*
X109220000Y-71120000D03*
%TO.N,/BOOT0*%
X107442000Y-79248000D03*
X110744000Y-80010000D03*
%TO.N,/LED1*%
X120121883Y-77073999D03*
X116140775Y-71110927D03*
%TD*%
D39*
%TO.N,5V*%
X127254000Y-53086000D02*
X129032000Y-54864000D01*
X79435000Y-59537500D02*
X79650000Y-59752500D01*
X93472000Y-47498000D02*
X125730000Y-47498000D01*
X129032000Y-54864000D02*
X130556000Y-54864000D01*
X125730000Y-47498000D02*
X127254000Y-49022000D01*
X88514347Y-47375653D02*
X86868000Y-49022000D01*
X73000000Y-59000000D02*
X75812500Y-59000000D01*
X76350000Y-59537500D02*
X79435000Y-59537500D01*
X127254000Y-49022000D02*
X127254000Y-53086000D01*
X86868000Y-49022000D02*
X82757925Y-49022000D01*
X75812500Y-59000000D02*
X76350000Y-59537500D01*
X76350000Y-55429925D02*
X76350000Y-59537500D01*
X82757925Y-49022000D02*
X76350000Y-55429925D01*
D40*
%TO.N,GND*%
X127267000Y-104140000D02*
X128778000Y-104140000D01*
X107131500Y-62452000D02*
X106204000Y-62452000D01*
X127267000Y-107367000D02*
X127750000Y-107850000D01*
D39*
X117244000Y-69932500D02*
X117519500Y-69932500D01*
D40*
X136118000Y-37592000D02*
X134620000Y-37592000D01*
X110367000Y-68965000D02*
X110494000Y-68838000D01*
X104631500Y-66310500D02*
X104648000Y-66294000D01*
X76350000Y-61262500D02*
X77010500Y-61262500D01*
X108494000Y-69052000D02*
X108204000Y-69342000D01*
X85250000Y-104287000D02*
X85103000Y-104140000D01*
X88957000Y-78867000D02*
X88975000Y-78885000D01*
X127267000Y-104140000D02*
X127267000Y-107367000D01*
X137208000Y-84534000D02*
X137160000Y-84582000D01*
X111956500Y-62452000D02*
X111956500Y-64452000D01*
X112994000Y-76162500D02*
X112994000Y-77180000D01*
D39*
X121944000Y-74700000D02*
X122174000Y-74930000D01*
D40*
X94923500Y-59762500D02*
X94996000Y-59690000D01*
X116456500Y-77250000D02*
X116456500Y-78356500D01*
X111956500Y-62452000D02*
X113252000Y-62452000D01*
X94729000Y-35547000D02*
X93726000Y-34544000D01*
X105328000Y-74250000D02*
X105156000Y-74422000D01*
X79650000Y-55192500D02*
X79650000Y-53192000D01*
X115049000Y-37592000D02*
X115049000Y-35367000D01*
X77010500Y-61262500D02*
X77470000Y-61722000D01*
X107131500Y-62452000D02*
X107131500Y-64452000D01*
X106204000Y-62452000D02*
X105918000Y-62738000D01*
X110494000Y-68838000D02*
X110744000Y-69088000D01*
X86803000Y-78867000D02*
X88957000Y-78867000D01*
X82867000Y-83629000D02*
X83058000Y-83820000D01*
X110362000Y-68970000D02*
X110367000Y-68965000D01*
X108494000Y-68644178D02*
X108814822Y-68965000D01*
X85250000Y-107850000D02*
X85250000Y-104287000D01*
X90061000Y-78885000D02*
X90170000Y-78994000D01*
X106750000Y-107850000D02*
X106750000Y-105734000D01*
X85250000Y-107850000D02*
X85250000Y-105758000D01*
D39*
X119744000Y-71500000D02*
X118746000Y-71500000D01*
D40*
X103631500Y-59436500D02*
X103632000Y-59436000D01*
X116456500Y-78356500D02*
X116586000Y-78486000D01*
X105982000Y-64452000D02*
X105918000Y-64516000D01*
X103631500Y-60452000D02*
X103631500Y-59436500D01*
D39*
X118746000Y-71500000D02*
X118364000Y-71882000D01*
D40*
X112994000Y-77180000D02*
X113284000Y-77470000D01*
X108494000Y-67837500D02*
X108494000Y-69052000D01*
X79650000Y-53192000D02*
X79756000Y-53086000D01*
X106750000Y-105734000D02*
X106439000Y-105423000D01*
X115049000Y-35367000D02*
X114226000Y-34544000D01*
X88975000Y-78885000D02*
X90061000Y-78885000D01*
X81788000Y-83629000D02*
X82867000Y-83629000D01*
D39*
X121944000Y-73200000D02*
X121944000Y-74700000D01*
X118110000Y-74422000D02*
X117964500Y-74567500D01*
D40*
X106439000Y-105423000D02*
X106439000Y-104140000D01*
X85103000Y-104140000D02*
X86360000Y-104140000D01*
X108494000Y-67837500D02*
X108494000Y-68644178D01*
X113252000Y-62452000D02*
X113284000Y-62484000D01*
X93350000Y-59762500D02*
X94923500Y-59762500D01*
D39*
X103074000Y-76250000D02*
X102870000Y-76454000D01*
D40*
X106439000Y-104140000D02*
X107696000Y-104140000D01*
X136118000Y-37592000D02*
X136118000Y-35186000D01*
X91350000Y-59762500D02*
X93350000Y-59762500D01*
X106581500Y-74250000D02*
X105328000Y-74250000D01*
X108814822Y-68965000D02*
X110367000Y-68965000D01*
D39*
X117519500Y-69932500D02*
X118872000Y-68580000D01*
X118364000Y-74422000D02*
X118110000Y-74422000D01*
X104131500Y-76250000D02*
X103074000Y-76250000D01*
D40*
X137208000Y-83438000D02*
X137208000Y-84534000D01*
X136118000Y-35186000D02*
X135476000Y-34544000D01*
X94729000Y-37592000D02*
X94729000Y-35547000D01*
X121307000Y-64367000D02*
X121412000Y-64262000D01*
X110494000Y-68838000D02*
X110494000Y-67837500D01*
X107131500Y-64452000D02*
X105982000Y-64452000D01*
X119809000Y-64367000D02*
X121307000Y-64367000D01*
X104631500Y-67250000D02*
X104631500Y-66310500D01*
D39*
X117964500Y-74567500D02*
X117244000Y-74567500D01*
%TO.N,3.3V*%
X96012000Y-48514000D02*
X94488000Y-50038000D01*
D41*
X98694926Y-77335000D02*
X100968963Y-75060963D01*
X113494000Y-76162500D02*
X113494000Y-73273000D01*
D39*
X104889000Y-107211000D02*
X104250000Y-107850000D01*
D41*
X107994000Y-67837500D02*
X104025250Y-63868750D01*
X103886000Y-63246000D02*
X103644250Y-63487750D01*
D39*
X123118000Y-109982000D02*
X106382000Y-109982000D01*
D41*
X114581500Y-77250000D02*
X114906500Y-77250000D01*
D39*
X96279000Y-34597000D02*
X96226000Y-34544000D01*
D41*
X105410000Y-76521500D02*
X105410000Y-81773000D01*
X106581500Y-74750000D02*
X106286750Y-75044750D01*
X106286750Y-75044750D02*
X105681500Y-75650000D01*
X114906500Y-77250000D02*
X115732500Y-76424000D01*
X115732500Y-76424000D02*
X135631500Y-76424000D01*
X88975000Y-77335000D02*
X98694926Y-77335000D01*
X86385322Y-77597000D02*
X85477000Y-76688678D01*
X103632000Y-63475500D02*
X103644250Y-63487750D01*
X103861500Y-63246000D02*
X103632000Y-63475500D01*
X103746750Y-63106750D02*
X103759000Y-63119000D01*
D39*
X104889000Y-104140000D02*
X104889000Y-107211000D01*
D42*
X137160000Y-98044000D02*
X132588000Y-98044000D01*
X144270075Y-78000500D02*
X145796000Y-79526425D01*
D39*
X93350000Y-58037500D02*
X91350000Y-58037500D01*
D41*
X103886000Y-63246000D02*
X103746750Y-63106750D01*
D39*
X116599000Y-34671000D02*
X116726000Y-34544000D01*
D41*
X103886000Y-63246000D02*
X103886000Y-63729500D01*
X103124000Y-74930000D02*
X104361500Y-74930000D01*
D39*
X102362000Y-109728000D02*
X84628000Y-109728000D01*
D41*
X106286750Y-75044750D02*
X107128784Y-75044750D01*
D39*
X119126000Y-32258000D02*
X135690000Y-32258000D01*
X125717000Y-107383000D02*
X125250000Y-107850000D01*
D42*
X145796000Y-79526425D02*
X145796000Y-89408000D01*
X138176000Y-97028000D02*
X137160000Y-98044000D01*
D41*
X107119000Y-60452000D02*
X105181500Y-60452000D01*
D39*
X116599000Y-37592000D02*
X116599000Y-34671000D01*
X88810000Y-77500000D02*
X88975000Y-77335000D01*
D41*
X103886000Y-63246000D02*
X103861500Y-63246000D01*
D39*
X98552000Y-32258000D02*
X114440000Y-32258000D01*
D42*
X140208000Y-78000500D02*
X144270075Y-78000500D01*
D39*
X88578500Y-55947500D02*
X87625000Y-55947500D01*
D41*
X103886000Y-63729500D02*
X104025250Y-63868750D01*
D39*
X137668000Y-34852000D02*
X137976000Y-34544000D01*
D41*
X107128784Y-75044750D02*
X107518000Y-74655534D01*
D39*
X96279000Y-37592000D02*
X96279000Y-46215000D01*
D41*
X104025250Y-63868750D02*
X103644250Y-63487750D01*
D42*
X137208000Y-78000500D02*
X140208000Y-78000500D01*
D41*
X104361500Y-74930000D02*
X105681500Y-76250000D01*
X107518000Y-74655534D02*
X109393071Y-72780463D01*
X88713000Y-77597000D02*
X88975000Y-77335000D01*
X113494000Y-76162500D02*
X114581500Y-77250000D01*
X98194000Y-58037500D02*
X93350000Y-58037500D01*
D39*
X96279000Y-46215000D02*
X96266000Y-46228000D01*
X96279000Y-37592000D02*
X96279000Y-34597000D01*
D41*
X103759000Y-63119000D02*
X104013000Y-63119000D01*
X103632000Y-63106750D02*
X103632000Y-63475500D01*
X105681500Y-75650000D02*
X105681500Y-76250000D01*
X135631500Y-76424000D02*
X137208000Y-78000500D01*
X106680000Y-60452000D02*
X104013000Y-63119000D01*
D39*
X91350000Y-58037500D02*
X86515000Y-58037500D01*
D41*
X103644250Y-63487750D02*
X103263250Y-63106750D01*
X104013000Y-63119000D02*
X103886000Y-63246000D01*
X113494000Y-76162500D02*
X114906500Y-74750000D01*
X85477000Y-76688678D02*
X85477000Y-57945500D01*
D39*
X137668000Y-37592000D02*
X137668000Y-34852000D01*
D41*
X107406500Y-67250000D02*
X107994000Y-67837500D01*
X86803000Y-77597000D02*
X86385322Y-77597000D01*
D39*
X83553000Y-107047000D02*
X82750000Y-107850000D01*
D41*
X105681500Y-76250000D02*
X105410000Y-76521500D01*
X86803000Y-77597000D02*
X88713000Y-77597000D01*
D39*
X86515000Y-58037500D02*
X85950000Y-57472500D01*
X83553000Y-104140000D02*
X83553000Y-107047000D01*
X125717000Y-104140000D02*
X125717000Y-107383000D01*
D42*
X127000000Y-101346000D02*
X125717000Y-102629000D01*
D41*
X103632000Y-63106750D02*
X103263250Y-63106750D01*
X107119000Y-60452000D02*
X106680000Y-60452000D01*
D42*
X137208000Y-68532000D02*
X138176000Y-67564000D01*
D41*
X103263250Y-63106750D02*
X98194000Y-58037500D01*
D42*
X137208000Y-78000500D02*
X137208000Y-68532000D01*
D41*
X105410000Y-81773000D02*
X105141000Y-82042000D01*
X109393071Y-72780463D02*
X109703824Y-72780463D01*
D39*
X96266000Y-48514000D02*
X96012000Y-48514000D01*
X92456000Y-52070000D02*
X88578500Y-55947500D01*
D42*
X145796000Y-89408000D02*
X138176000Y-97028000D01*
D41*
X103746750Y-63106750D02*
X103632000Y-63106750D01*
D42*
X125717000Y-102629000D02*
X125717000Y-104140000D01*
D41*
X106181500Y-67250000D02*
X107406500Y-67250000D01*
X113494000Y-73273000D02*
X113119000Y-72898000D01*
X85477000Y-57945500D02*
X85950000Y-57472500D01*
%TO.N,A3.3V*%
X109994000Y-64864500D02*
X110406500Y-64452000D01*
D40*
X109494000Y-65264500D02*
X108681500Y-64452000D01*
X109494000Y-67837500D02*
X109994000Y-67837500D01*
X109994000Y-67837500D02*
X109994000Y-66548000D01*
D41*
X108694000Y-62439500D02*
X108681500Y-62452000D01*
X108694000Y-60452000D02*
X108694000Y-62439500D01*
X108681500Y-64452000D02*
X108681500Y-62452000D01*
D40*
X109494000Y-67837500D02*
X109494000Y-65264500D01*
D41*
X109994000Y-66548000D02*
X109994000Y-64864500D01*
X110406500Y-62452000D02*
X110406500Y-64452000D01*
X109994000Y-67039500D02*
X109994000Y-66548000D01*
D40*
%TO.N,/RESET*%
X118259000Y-64379178D02*
X118259000Y-64367000D01*
X114906500Y-71750000D02*
X114099822Y-71750000D01*
X121009000Y-61617000D02*
X118259000Y-64367000D01*
X113737178Y-68901000D02*
X118259000Y-64379178D01*
X113737178Y-71387356D02*
X113737178Y-68901000D01*
X114099822Y-71750000D02*
X113737178Y-71387356D01*
X118034000Y-64367000D02*
X115284000Y-61617000D01*
%TO.N,/OSC_OUT*%
X120944000Y-70500000D02*
X117811500Y-70500000D01*
X116061500Y-72250000D02*
X114906500Y-72250000D01*
X121944000Y-71500000D02*
X120944000Y-70500000D01*
X117244000Y-71067500D02*
X116061500Y-72250000D01*
X117811500Y-70500000D02*
X117244000Y-71067500D01*
%TO.N,/OSC_IN*%
X117244000Y-73432500D02*
X116561500Y-72750000D01*
X119744000Y-73200000D02*
X117476500Y-73200000D01*
X117476500Y-73200000D02*
X117244000Y-73432500D01*
X116561500Y-72750000D02*
X114906500Y-72750000D01*
%TO.N,Net-(D3-K)*%
X137208000Y-79575500D02*
X137208000Y-81788000D01*
D41*
%TO.N,Net-(D5-K)*%
X144633000Y-79575500D02*
X144708000Y-79500500D01*
X140208000Y-79575500D02*
X140208000Y-81788000D01*
X140208000Y-79575500D02*
X144633000Y-79575500D01*
D40*
%TO.N,/SCL*%
X132976000Y-34544000D02*
X130182000Y-37338000D01*
X109250822Y-75099000D02*
X109559000Y-75099000D01*
X109250000Y-107850000D02*
X107999000Y-109101000D01*
X107999000Y-109101000D02*
X89001000Y-109101000D01*
X110501000Y-109101000D02*
X128999000Y-109101000D01*
X108458000Y-77607695D02*
X108994000Y-77071695D01*
X128999000Y-109101000D02*
X130250000Y-107850000D01*
X111726000Y-37372000D02*
X111726000Y-34544000D01*
X130182000Y-37338000D02*
X118364000Y-37338000D01*
X108994000Y-76162500D02*
X108994000Y-75355822D01*
X109250000Y-107850000D02*
X110501000Y-109101000D01*
X109250000Y-107850000D02*
X108458000Y-107058000D01*
X109440000Y-36830000D02*
X111726000Y-34544000D01*
X108458000Y-107058000D02*
X108458000Y-77607695D01*
X110490000Y-74168000D02*
X110490000Y-70358000D01*
X89001000Y-109101000D02*
X87750000Y-107850000D01*
X108994000Y-77071695D02*
X108994000Y-76162500D01*
X109559000Y-75099000D02*
X110490000Y-74168000D01*
X110998000Y-38100000D02*
X111726000Y-37372000D01*
X108204000Y-36830000D02*
X109440000Y-36830000D01*
X108994000Y-75355822D02*
X109250822Y-75099000D01*
X110490000Y-70358000D02*
X109728000Y-69596000D01*
%TO.N,/XSHUT1*%
X111994000Y-66822000D02*
X112776000Y-66040000D01*
X112776000Y-66040000D02*
X113538000Y-66040000D01*
X117856000Y-53086000D02*
X117856000Y-61722000D01*
X121412000Y-49530000D02*
X117856000Y-53086000D01*
X111994000Y-67837500D02*
X111994000Y-66822000D01*
X125222000Y-45720000D02*
X125222000Y-38608000D01*
%TO.N,/GPIO1*%
X123698000Y-48260000D02*
X114300000Y-48260000D01*
X114300000Y-48260000D02*
X108458000Y-54102000D01*
X108994000Y-66693000D02*
X108994000Y-67837500D01*
X108595000Y-66294000D02*
X108994000Y-66693000D01*
%TO.N,/SDA*%
X112494000Y-77700582D02*
X112795000Y-78001582D01*
X110496000Y-33274000D02*
X129206000Y-33274000D01*
X107975000Y-33293000D02*
X89977000Y-33293000D01*
X112795000Y-78001582D02*
X112795000Y-106805000D01*
X112795000Y-106805000D02*
X111750000Y-107850000D01*
X112494000Y-69568000D02*
X112461058Y-69535058D01*
X111750000Y-108194000D02*
X111760000Y-108204000D01*
X112494000Y-76162500D02*
X112494000Y-77700582D01*
X109226000Y-34544000D02*
X107975000Y-33293000D01*
X89977000Y-33293000D02*
X88726000Y-34544000D01*
X112494000Y-76162500D02*
X112494000Y-69568000D01*
X109226000Y-34544000D02*
X110496000Y-33274000D01*
X129206000Y-33274000D02*
X130476000Y-34544000D01*
%TO.N,/GPIO2*%
X105371034Y-69250000D02*
X102108000Y-65986966D01*
X106581500Y-69250000D02*
X105371034Y-69250000D01*
X102108000Y-65986966D02*
X102108000Y-62992000D01*
X106726000Y-37455000D02*
X106726000Y-34544000D01*
%TO.N,/XSHUT2*%
X111494000Y-66052000D02*
X111506000Y-66040000D01*
X111506000Y-51937884D02*
X111566942Y-51876942D01*
X104226000Y-35900000D02*
X104226000Y-34544000D01*
X110490000Y-42164000D02*
X110236000Y-41910000D01*
X111494000Y-67837500D02*
X111494000Y-66052000D01*
X110236000Y-41910000D02*
X104226000Y-35900000D01*
X111506000Y-46736000D02*
X111506000Y-43180000D01*
X111506000Y-60706000D02*
X111506000Y-51937884D01*
X111506000Y-43180000D02*
X110236000Y-41910000D01*
%TO.N,/GPIO3*%
X86226000Y-43046000D02*
X86226000Y-34544000D01*
X100584000Y-58928000D02*
X100584000Y-57404000D01*
X100584000Y-57404000D02*
X86226000Y-43046000D01*
X103532000Y-69750000D02*
X106581500Y-69750000D01*
X102108000Y-68326000D02*
X103532000Y-69750000D01*
%TO.N,/XSHUT3*%
X108966000Y-58420000D02*
X109982000Y-59436000D01*
X83726000Y-41562000D02*
X99822000Y-57658000D01*
X110705997Y-66255997D02*
X110994000Y-66544000D01*
X110994000Y-66544000D02*
X110994000Y-67837500D01*
X83726000Y-34544000D02*
X83726000Y-41562000D01*
X110705997Y-66040000D02*
X110705997Y-66255997D01*
X101483000Y-58420000D02*
X108966000Y-58420000D01*
%TO.N,/GPIO4*%
X97282000Y-72644000D02*
X99676000Y-70250000D01*
X92750000Y-107850000D02*
X92750000Y-84796000D01*
X99676000Y-70250000D02*
X106581500Y-70250000D01*
X92750000Y-84796000D02*
X96012000Y-81534000D01*
%TO.N,/XSHUT4*%
X95250000Y-97536000D02*
X95250000Y-107850000D01*
X109494000Y-80931799D02*
X109494000Y-76162500D01*
X107823000Y-84963000D02*
X95250000Y-97536000D01*
X109591000Y-81028799D02*
X109494000Y-80931799D01*
%TO.N,Net-(J5-Pin_2)*%
X102236000Y-81677000D02*
X102601000Y-82042000D01*
X102601000Y-82042000D02*
X104585000Y-80058000D01*
X104585000Y-80058000D02*
X104585000Y-79248000D01*
%TO.N,/GPIO5*%
X113482058Y-105465942D02*
X114250000Y-106233884D01*
X114250000Y-106233884D02*
X114250000Y-107850000D01*
X106581500Y-70750000D02*
X100446000Y-70750000D01*
X100446000Y-70750000D02*
X98552000Y-72644000D01*
%TO.N,/XSHUT5*%
X113792000Y-104892000D02*
X116750000Y-107850000D01*
X112014000Y-82165298D02*
X112014000Y-102870000D01*
X109994000Y-80145298D02*
X112014000Y-82165298D01*
X113792000Y-104648000D02*
X113792000Y-104892000D01*
X109994000Y-76162500D02*
X109994000Y-80145298D01*
%TO.N,/SWCLK*%
X108518000Y-76138500D02*
X108494000Y-76162500D01*
X108518000Y-75331822D02*
X108518000Y-76138500D01*
X108524058Y-75325764D02*
X108518000Y-75331822D01*
X119888000Y-78740000D02*
X127508000Y-78740000D01*
X109443529Y-74330587D02*
X109311413Y-74330587D01*
X127508000Y-78740000D02*
X138176000Y-89408000D01*
X109311413Y-74330587D02*
X108524058Y-75117942D01*
X108524058Y-75117942D02*
X108524058Y-75325764D01*
%TO.N,/SWDIO*%
X107994000Y-74886000D02*
X109315939Y-73564061D01*
X107994000Y-74886000D02*
X107994000Y-76162500D01*
X125984000Y-79756000D02*
X138176000Y-91948000D01*
X121920000Y-79756000D02*
X125984000Y-79756000D01*
X109315939Y-73564061D02*
X109865000Y-73564061D01*
%TO.N,/XSHUT6*%
X110619000Y-77724000D02*
X110494000Y-77599000D01*
X114046000Y-81026000D02*
X137750000Y-104730000D01*
X110494000Y-77599000D02*
X110494000Y-76162500D01*
X137750000Y-104730000D02*
X137750000Y-107850000D01*
%TO.N,/GPIO6*%
X101470000Y-71250000D02*
X106581500Y-71250000D01*
X135250000Y-105024000D02*
X135250000Y-107850000D01*
X128651000Y-98425000D02*
X135250000Y-105024000D01*
X100838000Y-71882000D02*
X101470000Y-71250000D01*
%TO.N,/UART2_RX*%
X128270000Y-67056000D02*
X118407178Y-67056000D01*
X138176000Y-62484000D02*
X132842000Y-62484000D01*
X115713178Y-69750000D02*
X114906500Y-69750000D01*
X132842000Y-62484000D02*
X128270000Y-67056000D01*
X118407178Y-67056000D02*
X115713178Y-69750000D01*
%TO.N,/UART2_TX*%
X118617468Y-67507000D02*
X115874468Y-70250000D01*
X128964810Y-67507000D02*
X118617468Y-67507000D01*
X137922000Y-64770000D02*
X131701810Y-64770000D01*
X131701810Y-64770000D02*
X128964810Y-67507000D01*
X138176000Y-65024000D02*
X137922000Y-64770000D01*
X115874468Y-70250000D02*
X114906500Y-70250000D01*
%TO.N,/CAN_HIGH*%
X81853000Y-78867000D02*
X82827999Y-78867000D01*
X73734000Y-73851000D02*
X73125000Y-74460000D01*
X78232000Y-73851000D02*
X73734000Y-73851000D01*
X82827999Y-78867000D02*
X83154000Y-78540999D01*
X83154000Y-75026000D02*
X81979000Y-73851000D01*
X81979000Y-73851000D02*
X78232000Y-73851000D01*
X83154000Y-78540999D02*
X83154000Y-75026000D01*
%TO.N,/CAN_LOW*%
X79408000Y-80104000D02*
X78232000Y-81280000D01*
X79408000Y-79067001D02*
X79408000Y-80104000D01*
X81853000Y-77597000D02*
X80878001Y-77597000D01*
D42*
X78052000Y-81460000D02*
X78232000Y-81280000D01*
D40*
X80878001Y-77597000D02*
X79408000Y-79067001D01*
D42*
X73125000Y-81460000D02*
X78052000Y-81460000D01*
D40*
%TO.N,/UART1_RX*%
X108390003Y-72750000D02*
X109220000Y-71920003D01*
X138176000Y-52324000D02*
X132080000Y-58420000D01*
X128270000Y-66040000D02*
X124714000Y-66040000D01*
X106605500Y-72726000D02*
X106581500Y-72750000D01*
X132080000Y-58420000D02*
X132080000Y-62230000D01*
X106581500Y-72750000D02*
X108390003Y-72750000D01*
X132080000Y-62230000D02*
X128270000Y-66040000D01*
%TO.N,/UART1_TX*%
X109220000Y-71120000D02*
X108966000Y-71120000D01*
X128270000Y-64516000D02*
X127762000Y-65024000D01*
X108966000Y-71120000D02*
X107836000Y-72250000D01*
X127762000Y-65024000D02*
X124714000Y-65024000D01*
X130556000Y-62230000D02*
X128270000Y-64516000D01*
X130556000Y-57404000D02*
X130556000Y-62230000D01*
X138176000Y-49784000D02*
X130556000Y-57404000D01*
X107836000Y-72250000D02*
X106581500Y-72250000D01*
%TO.N,/BOOT0*%
X110744000Y-80010000D02*
X111994000Y-78760000D01*
X106235000Y-79248000D02*
X107442000Y-79248000D01*
X111994000Y-78760000D02*
X111994000Y-76162500D01*
%TO.N,/LED1*%
X134749810Y-85344000D02*
X139192000Y-85344000D01*
X115779848Y-70750000D02*
X116140775Y-71110927D01*
X126479809Y-77073999D02*
X134749810Y-85344000D01*
X120121883Y-77073999D02*
X126479809Y-77073999D01*
X114906500Y-70750000D02*
X115779848Y-70750000D01*
X140208000Y-84328000D02*
X140208000Y-83438000D01*
X139192000Y-85344000D02*
X140208000Y-84328000D01*
%TO.N,Net-(U3-Rs)*%
X81788000Y-80202000D02*
X81853000Y-80137000D01*
X81788000Y-81979000D02*
X81788000Y-80202000D01*
%TO.N,/CAN1_RX*%
X102616000Y-73660000D02*
X89470000Y-73660000D01*
X103026000Y-73250000D02*
X102616000Y-73660000D01*
X89470000Y-73660000D02*
X86803000Y-76327000D01*
X106581500Y-73250000D02*
X103026000Y-73250000D01*
%TO.N,/CAN1_TX*%
X103163810Y-73750000D02*
X96776810Y-80137000D01*
X96776810Y-80137000D02*
X86803000Y-80137000D01*
X106581500Y-73750000D02*
X103163810Y-73750000D01*
%TO.N,Net-(J12-Pin_1)*%
X78232000Y-78740000D02*
X78232000Y-75501000D01*
%TD*%
M02*
