%TF.GenerationSoftware,KiCad,Pcbnew,9.0.0*%
%TF.CreationDate,2026-08-02T16:23:24+09:00*%
%TF.ProjectId,SENSOR_ECU_PCB_V1,53454e53-4f52-45f4-9543-555f5043425f,rev?*%
%TF.SameCoordinates,Original*%
%TF.FileFunction,Legend,Top*%
%TF.FilePolarity,Positive*%
%FSLAX46Y46*%
G04 Gerber Fmt 4.6, Leading zero omitted, Abs format (unit mm)*
G04 Created by KiCad (PCBNEW 9.0.0) date 2026-08-02 16:23:24*
%MOMM*%
%LPD*%
G01*
G04 APERTURE LIST*
%ADD10C,0.150000*%
%ADD11C,0.100000*%
%ADD12C,0.120000*%
G04 APERTURE END LIST*
D10*
X141097048Y-77543866D02*
X141858953Y-77543866D01*
X141478000Y-77924819D02*
X141478000Y-77162914D01*
X138303048Y-77543866D02*
X139064953Y-77543866D01*
X138684000Y-77924819D02*
X138684000Y-77162914D01*
X94361048Y-57223866D02*
X95122953Y-57223866D01*
X94742000Y-57604819D02*
X94742000Y-56842914D01*
X77343048Y-59255866D02*
X78104953Y-59255866D01*
X77724000Y-59636819D02*
X77724000Y-58874914D01*
D11*
X130556000Y-94996000D02*
X135636000Y-94996000D01*
X99060000Y-43688000D02*
X122428000Y-43688000D01*
X122428000Y-45466000D01*
X99060000Y-45466000D01*
X99060000Y-43688000D01*
X108712000Y-43688000D02*
X108712000Y-45466000D01*
X119634000Y-43688000D02*
X119634000Y-45466000D01*
X115824000Y-43688000D02*
X115824000Y-45466000D01*
X130556000Y-52832000D02*
X135128000Y-52832000D01*
X135636000Y-91948000D02*
X130556000Y-91948000D01*
X130810000Y-60960000D02*
X135382000Y-60960000D01*
X135382000Y-67056000D01*
X130810000Y-67056000D01*
X130810000Y-60960000D01*
X130810000Y-64008000D02*
X135382000Y-64008000D01*
X107188000Y-96774000D02*
X107188000Y-98552000D01*
X90678000Y-77216000D02*
X95250000Y-77216000D01*
X112268000Y-43688000D02*
X112268000Y-45466000D01*
X100076000Y-96774000D02*
X100076000Y-98552000D01*
X74930000Y-67818000D02*
X79502000Y-67818000D01*
X130556000Y-48260000D02*
X135128000Y-48260000D01*
X135128000Y-54356000D01*
X130556000Y-54356000D01*
X130556000Y-48260000D01*
X79502000Y-66040000D02*
X74930000Y-66040000D01*
X130810000Y-65532000D02*
X135382000Y-65532000D01*
X78994000Y-87376000D02*
X74422000Y-87376000D01*
X130556000Y-90424000D02*
X135636000Y-90424000D01*
X135636000Y-96520000D01*
X130556000Y-96520000D01*
X130556000Y-90424000D01*
X135128000Y-49784000D02*
X130556000Y-49784000D01*
X130556000Y-51308000D02*
X135128000Y-51308000D01*
X130556000Y-93472000D02*
X135636000Y-93472000D01*
X115062000Y-96774000D02*
X115062000Y-98552000D01*
X97028000Y-96774000D02*
X120396000Y-96774000D01*
X120396000Y-98552000D01*
X97028000Y-98552000D01*
X97028000Y-96774000D01*
X104394000Y-43688000D02*
X104394000Y-45466000D01*
X74930000Y-64262000D02*
X79502000Y-64262000D01*
X79502000Y-67818000D01*
X74930000Y-67818000D01*
X74930000Y-64262000D01*
X110744000Y-96774000D02*
X110744000Y-98552000D01*
X135382000Y-62484000D02*
X130810000Y-62484000D01*
X74422000Y-88900000D02*
X78994000Y-88900000D01*
X103886000Y-96774000D02*
X103886000Y-98552000D01*
X74422000Y-85344000D02*
X78994000Y-85344000D01*
X78994000Y-90932000D01*
X74422000Y-90932000D01*
X74422000Y-85344000D01*
D10*
X129857714Y-103086819D02*
X130429142Y-103086819D01*
X130143428Y-104086819D02*
X130143428Y-103086819D01*
X130952952Y-103086819D02*
X131143428Y-103086819D01*
X131143428Y-103086819D02*
X131238666Y-103134438D01*
X131238666Y-103134438D02*
X131333904Y-103229676D01*
X131333904Y-103229676D02*
X131381523Y-103420152D01*
X131381523Y-103420152D02*
X131381523Y-103753485D01*
X131381523Y-103753485D02*
X131333904Y-103943961D01*
X131333904Y-103943961D02*
X131238666Y-104039200D01*
X131238666Y-104039200D02*
X131143428Y-104086819D01*
X131143428Y-104086819D02*
X130952952Y-104086819D01*
X130952952Y-104086819D02*
X130857714Y-104039200D01*
X130857714Y-104039200D02*
X130762476Y-103943961D01*
X130762476Y-103943961D02*
X130714857Y-103753485D01*
X130714857Y-103753485D02*
X130714857Y-103420152D01*
X130714857Y-103420152D02*
X130762476Y-103229676D01*
X130762476Y-103229676D02*
X130857714Y-103134438D01*
X130857714Y-103134438D02*
X130952952Y-103086819D01*
X132143428Y-103563009D02*
X131810095Y-103563009D01*
X131810095Y-104086819D02*
X131810095Y-103086819D01*
X131810095Y-103086819D02*
X132286285Y-103086819D01*
X133095809Y-103086819D02*
X132905333Y-103086819D01*
X132905333Y-103086819D02*
X132810095Y-103134438D01*
X132810095Y-103134438D02*
X132762476Y-103182057D01*
X132762476Y-103182057D02*
X132667238Y-103324914D01*
X132667238Y-103324914D02*
X132619619Y-103515390D01*
X132619619Y-103515390D02*
X132619619Y-103896342D01*
X132619619Y-103896342D02*
X132667238Y-103991580D01*
X132667238Y-103991580D02*
X132714857Y-104039200D01*
X132714857Y-104039200D02*
X132810095Y-104086819D01*
X132810095Y-104086819D02*
X133000571Y-104086819D01*
X133000571Y-104086819D02*
X133095809Y-104039200D01*
X133095809Y-104039200D02*
X133143428Y-103991580D01*
X133143428Y-103991580D02*
X133191047Y-103896342D01*
X133191047Y-103896342D02*
X133191047Y-103658247D01*
X133191047Y-103658247D02*
X133143428Y-103563009D01*
X133143428Y-103563009D02*
X133095809Y-103515390D01*
X133095809Y-103515390D02*
X133000571Y-103467771D01*
X133000571Y-103467771D02*
X132810095Y-103467771D01*
X132810095Y-103467771D02*
X132714857Y-103515390D01*
X132714857Y-103515390D02*
X132667238Y-103563009D01*
X132667238Y-103563009D02*
X132619619Y-103658247D01*
X132080095Y-61143606D02*
X131984857Y-61095987D01*
X131984857Y-61095987D02*
X131842000Y-61095987D01*
X131842000Y-61095987D02*
X131699143Y-61143606D01*
X131699143Y-61143606D02*
X131603905Y-61238844D01*
X131603905Y-61238844D02*
X131556286Y-61334082D01*
X131556286Y-61334082D02*
X131508667Y-61524558D01*
X131508667Y-61524558D02*
X131508667Y-61667415D01*
X131508667Y-61667415D02*
X131556286Y-61857891D01*
X131556286Y-61857891D02*
X131603905Y-61953129D01*
X131603905Y-61953129D02*
X131699143Y-62048368D01*
X131699143Y-62048368D02*
X131842000Y-62095987D01*
X131842000Y-62095987D02*
X131937238Y-62095987D01*
X131937238Y-62095987D02*
X132080095Y-62048368D01*
X132080095Y-62048368D02*
X132127714Y-62000748D01*
X132127714Y-62000748D02*
X132127714Y-61667415D01*
X132127714Y-61667415D02*
X131937238Y-61667415D01*
X132556286Y-62095987D02*
X132556286Y-61095987D01*
X132556286Y-61095987D02*
X133127714Y-62095987D01*
X133127714Y-62095987D02*
X133127714Y-61095987D01*
X133603905Y-62095987D02*
X133603905Y-61095987D01*
X133603905Y-61095987D02*
X133842000Y-61095987D01*
X133842000Y-61095987D02*
X133984857Y-61143606D01*
X133984857Y-61143606D02*
X134080095Y-61238844D01*
X134080095Y-61238844D02*
X134127714Y-61334082D01*
X134127714Y-61334082D02*
X134175333Y-61524558D01*
X134175333Y-61524558D02*
X134175333Y-61667415D01*
X134175333Y-61667415D02*
X134127714Y-61857891D01*
X134127714Y-61857891D02*
X134080095Y-61953129D01*
X134080095Y-61953129D02*
X133984857Y-62048368D01*
X133984857Y-62048368D02*
X133842000Y-62095987D01*
X133842000Y-62095987D02*
X133603905Y-62095987D01*
X132675333Y-63705931D02*
X132342000Y-63229740D01*
X132103905Y-63705931D02*
X132103905Y-62705931D01*
X132103905Y-62705931D02*
X132484857Y-62705931D01*
X132484857Y-62705931D02*
X132580095Y-62753550D01*
X132580095Y-62753550D02*
X132627714Y-62801169D01*
X132627714Y-62801169D02*
X132675333Y-62896407D01*
X132675333Y-62896407D02*
X132675333Y-63039264D01*
X132675333Y-63039264D02*
X132627714Y-63134502D01*
X132627714Y-63134502D02*
X132580095Y-63182121D01*
X132580095Y-63182121D02*
X132484857Y-63229740D01*
X132484857Y-63229740D02*
X132103905Y-63229740D01*
X133008667Y-62705931D02*
X133675333Y-63705931D01*
X133675333Y-62705931D02*
X133008667Y-63705931D01*
X132080095Y-64315875D02*
X132651523Y-64315875D01*
X132365809Y-65315875D02*
X132365809Y-64315875D01*
X132889619Y-64315875D02*
X133556285Y-65315875D01*
X133556285Y-64315875D02*
X132889619Y-65315875D01*
X132651523Y-65925819D02*
X132175333Y-65925819D01*
X132175333Y-65925819D02*
X132127714Y-66402009D01*
X132127714Y-66402009D02*
X132175333Y-66354390D01*
X132175333Y-66354390D02*
X132270571Y-66306771D01*
X132270571Y-66306771D02*
X132508666Y-66306771D01*
X132508666Y-66306771D02*
X132603904Y-66354390D01*
X132603904Y-66354390D02*
X132651523Y-66402009D01*
X132651523Y-66402009D02*
X132699142Y-66497247D01*
X132699142Y-66497247D02*
X132699142Y-66735342D01*
X132699142Y-66735342D02*
X132651523Y-66830580D01*
X132651523Y-66830580D02*
X132603904Y-66878200D01*
X132603904Y-66878200D02*
X132508666Y-66925819D01*
X132508666Y-66925819D02*
X132270571Y-66925819D01*
X132270571Y-66925819D02*
X132175333Y-66878200D01*
X132175333Y-66878200D02*
X132127714Y-66830580D01*
X132984857Y-65925819D02*
X133318190Y-66925819D01*
X133318190Y-66925819D02*
X133651523Y-65925819D01*
X131826095Y-48443606D02*
X131730857Y-48395987D01*
X131730857Y-48395987D02*
X131588000Y-48395987D01*
X131588000Y-48395987D02*
X131445143Y-48443606D01*
X131445143Y-48443606D02*
X131349905Y-48538844D01*
X131349905Y-48538844D02*
X131302286Y-48634082D01*
X131302286Y-48634082D02*
X131254667Y-48824558D01*
X131254667Y-48824558D02*
X131254667Y-48967415D01*
X131254667Y-48967415D02*
X131302286Y-49157891D01*
X131302286Y-49157891D02*
X131349905Y-49253129D01*
X131349905Y-49253129D02*
X131445143Y-49348368D01*
X131445143Y-49348368D02*
X131588000Y-49395987D01*
X131588000Y-49395987D02*
X131683238Y-49395987D01*
X131683238Y-49395987D02*
X131826095Y-49348368D01*
X131826095Y-49348368D02*
X131873714Y-49300748D01*
X131873714Y-49300748D02*
X131873714Y-48967415D01*
X131873714Y-48967415D02*
X131683238Y-48967415D01*
X132302286Y-49395987D02*
X132302286Y-48395987D01*
X132302286Y-48395987D02*
X132873714Y-49395987D01*
X132873714Y-49395987D02*
X132873714Y-48395987D01*
X133349905Y-49395987D02*
X133349905Y-48395987D01*
X133349905Y-48395987D02*
X133588000Y-48395987D01*
X133588000Y-48395987D02*
X133730857Y-48443606D01*
X133730857Y-48443606D02*
X133826095Y-48538844D01*
X133826095Y-48538844D02*
X133873714Y-48634082D01*
X133873714Y-48634082D02*
X133921333Y-48824558D01*
X133921333Y-48824558D02*
X133921333Y-48967415D01*
X133921333Y-48967415D02*
X133873714Y-49157891D01*
X133873714Y-49157891D02*
X133826095Y-49253129D01*
X133826095Y-49253129D02*
X133730857Y-49348368D01*
X133730857Y-49348368D02*
X133588000Y-49395987D01*
X133588000Y-49395987D02*
X133349905Y-49395987D01*
X131826095Y-50005931D02*
X132397523Y-50005931D01*
X132111809Y-51005931D02*
X132111809Y-50005931D01*
X132635619Y-50005931D02*
X133302285Y-51005931D01*
X133302285Y-50005931D02*
X132635619Y-51005931D01*
X132421333Y-52615875D02*
X132088000Y-52139684D01*
X131849905Y-52615875D02*
X131849905Y-51615875D01*
X131849905Y-51615875D02*
X132230857Y-51615875D01*
X132230857Y-51615875D02*
X132326095Y-51663494D01*
X132326095Y-51663494D02*
X132373714Y-51711113D01*
X132373714Y-51711113D02*
X132421333Y-51806351D01*
X132421333Y-51806351D02*
X132421333Y-51949208D01*
X132421333Y-51949208D02*
X132373714Y-52044446D01*
X132373714Y-52044446D02*
X132326095Y-52092065D01*
X132326095Y-52092065D02*
X132230857Y-52139684D01*
X132230857Y-52139684D02*
X131849905Y-52139684D01*
X132754667Y-51615875D02*
X133421333Y-52615875D01*
X133421333Y-51615875D02*
X132754667Y-52615875D01*
X132397523Y-53225819D02*
X131921333Y-53225819D01*
X131921333Y-53225819D02*
X131873714Y-53702009D01*
X131873714Y-53702009D02*
X131921333Y-53654390D01*
X131921333Y-53654390D02*
X132016571Y-53606771D01*
X132016571Y-53606771D02*
X132254666Y-53606771D01*
X132254666Y-53606771D02*
X132349904Y-53654390D01*
X132349904Y-53654390D02*
X132397523Y-53702009D01*
X132397523Y-53702009D02*
X132445142Y-53797247D01*
X132445142Y-53797247D02*
X132445142Y-54035342D01*
X132445142Y-54035342D02*
X132397523Y-54130580D01*
X132397523Y-54130580D02*
X132349904Y-54178200D01*
X132349904Y-54178200D02*
X132254666Y-54225819D01*
X132254666Y-54225819D02*
X132016571Y-54225819D01*
X132016571Y-54225819D02*
X131921333Y-54178200D01*
X131921333Y-54178200D02*
X131873714Y-54130580D01*
X132730857Y-53225819D02*
X133064190Y-54225819D01*
X133064190Y-54225819D02*
X133397523Y-53225819D01*
X109029714Y-38824819D02*
X109601142Y-38824819D01*
X109315428Y-39824819D02*
X109315428Y-38824819D01*
X110124952Y-38824819D02*
X110315428Y-38824819D01*
X110315428Y-38824819D02*
X110410666Y-38872438D01*
X110410666Y-38872438D02*
X110505904Y-38967676D01*
X110505904Y-38967676D02*
X110553523Y-39158152D01*
X110553523Y-39158152D02*
X110553523Y-39491485D01*
X110553523Y-39491485D02*
X110505904Y-39681961D01*
X110505904Y-39681961D02*
X110410666Y-39777200D01*
X110410666Y-39777200D02*
X110315428Y-39824819D01*
X110315428Y-39824819D02*
X110124952Y-39824819D01*
X110124952Y-39824819D02*
X110029714Y-39777200D01*
X110029714Y-39777200D02*
X109934476Y-39681961D01*
X109934476Y-39681961D02*
X109886857Y-39491485D01*
X109886857Y-39491485D02*
X109886857Y-39158152D01*
X109886857Y-39158152D02*
X109934476Y-38967676D01*
X109934476Y-38967676D02*
X110029714Y-38872438D01*
X110029714Y-38872438D02*
X110124952Y-38824819D01*
X111315428Y-39301009D02*
X110982095Y-39301009D01*
X110982095Y-39824819D02*
X110982095Y-38824819D01*
X110982095Y-38824819D02*
X111458285Y-38824819D01*
X111791619Y-38920057D02*
X111839238Y-38872438D01*
X111839238Y-38872438D02*
X111934476Y-38824819D01*
X111934476Y-38824819D02*
X112172571Y-38824819D01*
X112172571Y-38824819D02*
X112267809Y-38872438D01*
X112267809Y-38872438D02*
X112315428Y-38920057D01*
X112315428Y-38920057D02*
X112363047Y-39015295D01*
X112363047Y-39015295D02*
X112363047Y-39110533D01*
X112363047Y-39110533D02*
X112315428Y-39253390D01*
X112315428Y-39253390D02*
X111744000Y-39824819D01*
X111744000Y-39824819D02*
X112363047Y-39824819D01*
X130834095Y-91512368D02*
X130976952Y-91559987D01*
X130976952Y-91559987D02*
X131215047Y-91559987D01*
X131215047Y-91559987D02*
X131310285Y-91512368D01*
X131310285Y-91512368D02*
X131357904Y-91464748D01*
X131357904Y-91464748D02*
X131405523Y-91369510D01*
X131405523Y-91369510D02*
X131405523Y-91274272D01*
X131405523Y-91274272D02*
X131357904Y-91179034D01*
X131357904Y-91179034D02*
X131310285Y-91131415D01*
X131310285Y-91131415D02*
X131215047Y-91083796D01*
X131215047Y-91083796D02*
X131024571Y-91036177D01*
X131024571Y-91036177D02*
X130929333Y-90988558D01*
X130929333Y-90988558D02*
X130881714Y-90940939D01*
X130881714Y-90940939D02*
X130834095Y-90845701D01*
X130834095Y-90845701D02*
X130834095Y-90750463D01*
X130834095Y-90750463D02*
X130881714Y-90655225D01*
X130881714Y-90655225D02*
X130929333Y-90607606D01*
X130929333Y-90607606D02*
X131024571Y-90559987D01*
X131024571Y-90559987D02*
X131262666Y-90559987D01*
X131262666Y-90559987D02*
X131405523Y-90607606D01*
X131738857Y-90559987D02*
X131976952Y-91559987D01*
X131976952Y-91559987D02*
X132167428Y-90845701D01*
X132167428Y-90845701D02*
X132357904Y-91559987D01*
X132357904Y-91559987D02*
X132596000Y-90559987D01*
X133548380Y-91464748D02*
X133500761Y-91512368D01*
X133500761Y-91512368D02*
X133357904Y-91559987D01*
X133357904Y-91559987D02*
X133262666Y-91559987D01*
X133262666Y-91559987D02*
X133119809Y-91512368D01*
X133119809Y-91512368D02*
X133024571Y-91417129D01*
X133024571Y-91417129D02*
X132976952Y-91321891D01*
X132976952Y-91321891D02*
X132929333Y-91131415D01*
X132929333Y-91131415D02*
X132929333Y-90988558D01*
X132929333Y-90988558D02*
X132976952Y-90798082D01*
X132976952Y-90798082D02*
X133024571Y-90702844D01*
X133024571Y-90702844D02*
X133119809Y-90607606D01*
X133119809Y-90607606D02*
X133262666Y-90559987D01*
X133262666Y-90559987D02*
X133357904Y-90559987D01*
X133357904Y-90559987D02*
X133500761Y-90607606D01*
X133500761Y-90607606D02*
X133548380Y-90655225D01*
X134453142Y-91559987D02*
X133976952Y-91559987D01*
X133976952Y-91559987D02*
X133976952Y-90559987D01*
X134786476Y-91559987D02*
X134786476Y-90559987D01*
X135357904Y-91559987D02*
X134929333Y-90988558D01*
X135357904Y-90559987D02*
X134786476Y-91131415D01*
X130976953Y-93122312D02*
X131119810Y-93169931D01*
X131119810Y-93169931D02*
X131357905Y-93169931D01*
X131357905Y-93169931D02*
X131453143Y-93122312D01*
X131453143Y-93122312D02*
X131500762Y-93074692D01*
X131500762Y-93074692D02*
X131548381Y-92979454D01*
X131548381Y-92979454D02*
X131548381Y-92884216D01*
X131548381Y-92884216D02*
X131500762Y-92788978D01*
X131500762Y-92788978D02*
X131453143Y-92741359D01*
X131453143Y-92741359D02*
X131357905Y-92693740D01*
X131357905Y-92693740D02*
X131167429Y-92646121D01*
X131167429Y-92646121D02*
X131072191Y-92598502D01*
X131072191Y-92598502D02*
X131024572Y-92550883D01*
X131024572Y-92550883D02*
X130976953Y-92455645D01*
X130976953Y-92455645D02*
X130976953Y-92360407D01*
X130976953Y-92360407D02*
X131024572Y-92265169D01*
X131024572Y-92265169D02*
X131072191Y-92217550D01*
X131072191Y-92217550D02*
X131167429Y-92169931D01*
X131167429Y-92169931D02*
X131405524Y-92169931D01*
X131405524Y-92169931D02*
X131548381Y-92217550D01*
X131881715Y-92169931D02*
X132119810Y-93169931D01*
X132119810Y-93169931D02*
X132310286Y-92455645D01*
X132310286Y-92455645D02*
X132500762Y-93169931D01*
X132500762Y-93169931D02*
X132738858Y-92169931D01*
X133119810Y-93169931D02*
X133119810Y-92169931D01*
X133119810Y-92169931D02*
X133357905Y-92169931D01*
X133357905Y-92169931D02*
X133500762Y-92217550D01*
X133500762Y-92217550D02*
X133596000Y-92312788D01*
X133596000Y-92312788D02*
X133643619Y-92408026D01*
X133643619Y-92408026D02*
X133691238Y-92598502D01*
X133691238Y-92598502D02*
X133691238Y-92741359D01*
X133691238Y-92741359D02*
X133643619Y-92931835D01*
X133643619Y-92931835D02*
X133596000Y-93027073D01*
X133596000Y-93027073D02*
X133500762Y-93122312D01*
X133500762Y-93122312D02*
X133357905Y-93169931D01*
X133357905Y-93169931D02*
X133119810Y-93169931D01*
X134119810Y-93169931D02*
X134119810Y-92169931D01*
X134786476Y-92169931D02*
X134976952Y-92169931D01*
X134976952Y-92169931D02*
X135072190Y-92217550D01*
X135072190Y-92217550D02*
X135167428Y-92312788D01*
X135167428Y-92312788D02*
X135215047Y-92503264D01*
X135215047Y-92503264D02*
X135215047Y-92836597D01*
X135215047Y-92836597D02*
X135167428Y-93027073D01*
X135167428Y-93027073D02*
X135072190Y-93122312D01*
X135072190Y-93122312D02*
X134976952Y-93169931D01*
X134976952Y-93169931D02*
X134786476Y-93169931D01*
X134786476Y-93169931D02*
X134691238Y-93122312D01*
X134691238Y-93122312D02*
X134596000Y-93027073D01*
X134596000Y-93027073D02*
X134548381Y-92836597D01*
X134548381Y-92836597D02*
X134548381Y-92503264D01*
X134548381Y-92503264D02*
X134596000Y-92312788D01*
X134596000Y-92312788D02*
X134691238Y-92217550D01*
X134691238Y-92217550D02*
X134786476Y-92169931D01*
X132334095Y-93827494D02*
X132238857Y-93779875D01*
X132238857Y-93779875D02*
X132096000Y-93779875D01*
X132096000Y-93779875D02*
X131953143Y-93827494D01*
X131953143Y-93827494D02*
X131857905Y-93922732D01*
X131857905Y-93922732D02*
X131810286Y-94017970D01*
X131810286Y-94017970D02*
X131762667Y-94208446D01*
X131762667Y-94208446D02*
X131762667Y-94351303D01*
X131762667Y-94351303D02*
X131810286Y-94541779D01*
X131810286Y-94541779D02*
X131857905Y-94637017D01*
X131857905Y-94637017D02*
X131953143Y-94732256D01*
X131953143Y-94732256D02*
X132096000Y-94779875D01*
X132096000Y-94779875D02*
X132191238Y-94779875D01*
X132191238Y-94779875D02*
X132334095Y-94732256D01*
X132334095Y-94732256D02*
X132381714Y-94684636D01*
X132381714Y-94684636D02*
X132381714Y-94351303D01*
X132381714Y-94351303D02*
X132191238Y-94351303D01*
X132810286Y-94779875D02*
X132810286Y-93779875D01*
X132810286Y-93779875D02*
X133381714Y-94779875D01*
X133381714Y-94779875D02*
X133381714Y-93779875D01*
X133857905Y-94779875D02*
X133857905Y-93779875D01*
X133857905Y-93779875D02*
X134096000Y-93779875D01*
X134096000Y-93779875D02*
X134238857Y-93827494D01*
X134238857Y-93827494D02*
X134334095Y-93922732D01*
X134334095Y-93922732D02*
X134381714Y-94017970D01*
X134381714Y-94017970D02*
X134429333Y-94208446D01*
X134429333Y-94208446D02*
X134429333Y-94351303D01*
X134429333Y-94351303D02*
X134381714Y-94541779D01*
X134381714Y-94541779D02*
X134334095Y-94637017D01*
X134334095Y-94637017D02*
X134238857Y-94732256D01*
X134238857Y-94732256D02*
X134096000Y-94779875D01*
X134096000Y-94779875D02*
X133857905Y-94779875D01*
X131619810Y-95389819D02*
X132238857Y-95389819D01*
X132238857Y-95389819D02*
X131905524Y-95770771D01*
X131905524Y-95770771D02*
X132048381Y-95770771D01*
X132048381Y-95770771D02*
X132143619Y-95818390D01*
X132143619Y-95818390D02*
X132191238Y-95866009D01*
X132191238Y-95866009D02*
X132238857Y-95961247D01*
X132238857Y-95961247D02*
X132238857Y-96199342D01*
X132238857Y-96199342D02*
X132191238Y-96294580D01*
X132191238Y-96294580D02*
X132143619Y-96342200D01*
X132143619Y-96342200D02*
X132048381Y-96389819D01*
X132048381Y-96389819D02*
X131762667Y-96389819D01*
X131762667Y-96389819D02*
X131667429Y-96342200D01*
X131667429Y-96342200D02*
X131619810Y-96294580D01*
X132667429Y-96294580D02*
X132715048Y-96342200D01*
X132715048Y-96342200D02*
X132667429Y-96389819D01*
X132667429Y-96389819D02*
X132619810Y-96342200D01*
X132619810Y-96342200D02*
X132667429Y-96294580D01*
X132667429Y-96294580D02*
X132667429Y-96389819D01*
X133048381Y-95389819D02*
X133667428Y-95389819D01*
X133667428Y-95389819D02*
X133334095Y-95770771D01*
X133334095Y-95770771D02*
X133476952Y-95770771D01*
X133476952Y-95770771D02*
X133572190Y-95818390D01*
X133572190Y-95818390D02*
X133619809Y-95866009D01*
X133619809Y-95866009D02*
X133667428Y-95961247D01*
X133667428Y-95961247D02*
X133667428Y-96199342D01*
X133667428Y-96199342D02*
X133619809Y-96294580D01*
X133619809Y-96294580D02*
X133572190Y-96342200D01*
X133572190Y-96342200D02*
X133476952Y-96389819D01*
X133476952Y-96389819D02*
X133191238Y-96389819D01*
X133191238Y-96389819D02*
X133096000Y-96342200D01*
X133096000Y-96342200D02*
X133048381Y-96294580D01*
X133953143Y-95389819D02*
X134286476Y-96389819D01*
X134286476Y-96389819D02*
X134619809Y-95389819D01*
X133262857Y-88722200D02*
X133405714Y-88769819D01*
X133405714Y-88769819D02*
X133643809Y-88769819D01*
X133643809Y-88769819D02*
X133739047Y-88722200D01*
X133739047Y-88722200D02*
X133786666Y-88674580D01*
X133786666Y-88674580D02*
X133834285Y-88579342D01*
X133834285Y-88579342D02*
X133834285Y-88484104D01*
X133834285Y-88484104D02*
X133786666Y-88388866D01*
X133786666Y-88388866D02*
X133739047Y-88341247D01*
X133739047Y-88341247D02*
X133643809Y-88293628D01*
X133643809Y-88293628D02*
X133453333Y-88246009D01*
X133453333Y-88246009D02*
X133358095Y-88198390D01*
X133358095Y-88198390D02*
X133310476Y-88150771D01*
X133310476Y-88150771D02*
X133262857Y-88055533D01*
X133262857Y-88055533D02*
X133262857Y-87960295D01*
X133262857Y-87960295D02*
X133310476Y-87865057D01*
X133310476Y-87865057D02*
X133358095Y-87817438D01*
X133358095Y-87817438D02*
X133453333Y-87769819D01*
X133453333Y-87769819D02*
X133691428Y-87769819D01*
X133691428Y-87769819D02*
X133834285Y-87817438D01*
X134167619Y-87769819D02*
X134405714Y-88769819D01*
X134405714Y-88769819D02*
X134596190Y-88055533D01*
X134596190Y-88055533D02*
X134786666Y-88769819D01*
X134786666Y-88769819D02*
X135024762Y-87769819D01*
X135405714Y-88769819D02*
X135405714Y-87769819D01*
X135405714Y-87769819D02*
X135643809Y-87769819D01*
X135643809Y-87769819D02*
X135786666Y-87817438D01*
X135786666Y-87817438D02*
X135881904Y-87912676D01*
X135881904Y-87912676D02*
X135929523Y-88007914D01*
X135929523Y-88007914D02*
X135977142Y-88198390D01*
X135977142Y-88198390D02*
X135977142Y-88341247D01*
X135977142Y-88341247D02*
X135929523Y-88531723D01*
X135929523Y-88531723D02*
X135881904Y-88626961D01*
X135881904Y-88626961D02*
X135786666Y-88722200D01*
X135786666Y-88722200D02*
X135643809Y-88769819D01*
X135643809Y-88769819D02*
X135405714Y-88769819D01*
D11*
X72439884Y-94528475D02*
X72439884Y-93528475D01*
X72439884Y-93528475D02*
X72677979Y-93528475D01*
X72677979Y-93528475D02*
X72820836Y-93576094D01*
X72820836Y-93576094D02*
X72916074Y-93671332D01*
X72916074Y-93671332D02*
X72963693Y-93766570D01*
X72963693Y-93766570D02*
X73011312Y-93957046D01*
X73011312Y-93957046D02*
X73011312Y-94099903D01*
X73011312Y-94099903D02*
X72963693Y-94290379D01*
X72963693Y-94290379D02*
X72916074Y-94385617D01*
X72916074Y-94385617D02*
X72820836Y-94480856D01*
X72820836Y-94480856D02*
X72677979Y-94528475D01*
X72677979Y-94528475D02*
X72439884Y-94528475D01*
X73820836Y-94480856D02*
X73725598Y-94528475D01*
X73725598Y-94528475D02*
X73535122Y-94528475D01*
X73535122Y-94528475D02*
X73439884Y-94480856D01*
X73439884Y-94480856D02*
X73392265Y-94385617D01*
X73392265Y-94385617D02*
X73392265Y-94004665D01*
X73392265Y-94004665D02*
X73439884Y-93909427D01*
X73439884Y-93909427D02*
X73535122Y-93861808D01*
X73535122Y-93861808D02*
X73725598Y-93861808D01*
X73725598Y-93861808D02*
X73820836Y-93909427D01*
X73820836Y-93909427D02*
X73868455Y-94004665D01*
X73868455Y-94004665D02*
X73868455Y-94099903D01*
X73868455Y-94099903D02*
X73392265Y-94195141D01*
X74249408Y-94480856D02*
X74344646Y-94528475D01*
X74344646Y-94528475D02*
X74535122Y-94528475D01*
X74535122Y-94528475D02*
X74630360Y-94480856D01*
X74630360Y-94480856D02*
X74677979Y-94385617D01*
X74677979Y-94385617D02*
X74677979Y-94337998D01*
X74677979Y-94337998D02*
X74630360Y-94242760D01*
X74630360Y-94242760D02*
X74535122Y-94195141D01*
X74535122Y-94195141D02*
X74392265Y-94195141D01*
X74392265Y-94195141D02*
X74297027Y-94147522D01*
X74297027Y-94147522D02*
X74249408Y-94052284D01*
X74249408Y-94052284D02*
X74249408Y-94004665D01*
X74249408Y-94004665D02*
X74297027Y-93909427D01*
X74297027Y-93909427D02*
X74392265Y-93861808D01*
X74392265Y-93861808D02*
X74535122Y-93861808D01*
X74535122Y-93861808D02*
X74630360Y-93909427D01*
X75106551Y-94528475D02*
X75106551Y-93861808D01*
X75106551Y-93528475D02*
X75058932Y-93576094D01*
X75058932Y-93576094D02*
X75106551Y-93623713D01*
X75106551Y-93623713D02*
X75154170Y-93576094D01*
X75154170Y-93576094D02*
X75106551Y-93528475D01*
X75106551Y-93528475D02*
X75106551Y-93623713D01*
X76011312Y-93861808D02*
X76011312Y-94671332D01*
X76011312Y-94671332D02*
X75963693Y-94766570D01*
X75963693Y-94766570D02*
X75916074Y-94814189D01*
X75916074Y-94814189D02*
X75820836Y-94861808D01*
X75820836Y-94861808D02*
X75677979Y-94861808D01*
X75677979Y-94861808D02*
X75582741Y-94814189D01*
X76011312Y-94480856D02*
X75916074Y-94528475D01*
X75916074Y-94528475D02*
X75725598Y-94528475D01*
X75725598Y-94528475D02*
X75630360Y-94480856D01*
X75630360Y-94480856D02*
X75582741Y-94433236D01*
X75582741Y-94433236D02*
X75535122Y-94337998D01*
X75535122Y-94337998D02*
X75535122Y-94052284D01*
X75535122Y-94052284D02*
X75582741Y-93957046D01*
X75582741Y-93957046D02*
X75630360Y-93909427D01*
X75630360Y-93909427D02*
X75725598Y-93861808D01*
X75725598Y-93861808D02*
X75916074Y-93861808D01*
X75916074Y-93861808D02*
X76011312Y-93909427D01*
X76487503Y-93861808D02*
X76487503Y-94528475D01*
X76487503Y-93957046D02*
X76535122Y-93909427D01*
X76535122Y-93909427D02*
X76630360Y-93861808D01*
X76630360Y-93861808D02*
X76773217Y-93861808D01*
X76773217Y-93861808D02*
X76868455Y-93909427D01*
X76868455Y-93909427D02*
X76916074Y-94004665D01*
X76916074Y-94004665D02*
X76916074Y-94528475D01*
X77773217Y-94480856D02*
X77677979Y-94528475D01*
X77677979Y-94528475D02*
X77487503Y-94528475D01*
X77487503Y-94528475D02*
X77392265Y-94480856D01*
X77392265Y-94480856D02*
X77344646Y-94385617D01*
X77344646Y-94385617D02*
X77344646Y-94004665D01*
X77344646Y-94004665D02*
X77392265Y-93909427D01*
X77392265Y-93909427D02*
X77487503Y-93861808D01*
X77487503Y-93861808D02*
X77677979Y-93861808D01*
X77677979Y-93861808D02*
X77773217Y-93909427D01*
X77773217Y-93909427D02*
X77820836Y-94004665D01*
X77820836Y-94004665D02*
X77820836Y-94099903D01*
X77820836Y-94099903D02*
X77344646Y-94195141D01*
X78677979Y-94528475D02*
X78677979Y-93528475D01*
X78677979Y-94480856D02*
X78582741Y-94528475D01*
X78582741Y-94528475D02*
X78392265Y-94528475D01*
X78392265Y-94528475D02*
X78297027Y-94480856D01*
X78297027Y-94480856D02*
X78249408Y-94433236D01*
X78249408Y-94433236D02*
X78201789Y-94337998D01*
X78201789Y-94337998D02*
X78201789Y-94052284D01*
X78201789Y-94052284D02*
X78249408Y-93957046D01*
X78249408Y-93957046D02*
X78297027Y-93909427D01*
X78297027Y-93909427D02*
X78392265Y-93861808D01*
X78392265Y-93861808D02*
X78582741Y-93861808D01*
X78582741Y-93861808D02*
X78677979Y-93909427D01*
X79916075Y-94528475D02*
X79916075Y-93528475D01*
X79916075Y-93909427D02*
X80011313Y-93861808D01*
X80011313Y-93861808D02*
X80201789Y-93861808D01*
X80201789Y-93861808D02*
X80297027Y-93909427D01*
X80297027Y-93909427D02*
X80344646Y-93957046D01*
X80344646Y-93957046D02*
X80392265Y-94052284D01*
X80392265Y-94052284D02*
X80392265Y-94337998D01*
X80392265Y-94337998D02*
X80344646Y-94433236D01*
X80344646Y-94433236D02*
X80297027Y-94480856D01*
X80297027Y-94480856D02*
X80201789Y-94528475D01*
X80201789Y-94528475D02*
X80011313Y-94528475D01*
X80011313Y-94528475D02*
X79916075Y-94480856D01*
X80725599Y-93861808D02*
X80963694Y-94528475D01*
X81201789Y-93861808D02*
X80963694Y-94528475D01*
X80963694Y-94528475D02*
X80868456Y-94766570D01*
X80868456Y-94766570D02*
X80820837Y-94814189D01*
X80820837Y-94814189D02*
X80725599Y-94861808D01*
X82630361Y-93528475D02*
X82630361Y-94242760D01*
X82630361Y-94242760D02*
X82582742Y-94385617D01*
X82582742Y-94385617D02*
X82487504Y-94480856D01*
X82487504Y-94480856D02*
X82344647Y-94528475D01*
X82344647Y-94528475D02*
X82249409Y-94528475D01*
X83535123Y-94528475D02*
X83535123Y-94004665D01*
X83535123Y-94004665D02*
X83487504Y-93909427D01*
X83487504Y-93909427D02*
X83392266Y-93861808D01*
X83392266Y-93861808D02*
X83201790Y-93861808D01*
X83201790Y-93861808D02*
X83106552Y-93909427D01*
X83535123Y-94480856D02*
X83439885Y-94528475D01*
X83439885Y-94528475D02*
X83201790Y-94528475D01*
X83201790Y-94528475D02*
X83106552Y-94480856D01*
X83106552Y-94480856D02*
X83058933Y-94385617D01*
X83058933Y-94385617D02*
X83058933Y-94290379D01*
X83058933Y-94290379D02*
X83106552Y-94195141D01*
X83106552Y-94195141D02*
X83201790Y-94147522D01*
X83201790Y-94147522D02*
X83439885Y-94147522D01*
X83439885Y-94147522D02*
X83535123Y-94099903D01*
X84392266Y-94480856D02*
X84297028Y-94528475D01*
X84297028Y-94528475D02*
X84106552Y-94528475D01*
X84106552Y-94528475D02*
X84011314Y-94480856D01*
X84011314Y-94480856D02*
X83963695Y-94385617D01*
X83963695Y-94385617D02*
X83963695Y-94004665D01*
X83963695Y-94004665D02*
X84011314Y-93909427D01*
X84011314Y-93909427D02*
X84106552Y-93861808D01*
X84106552Y-93861808D02*
X84297028Y-93861808D01*
X84297028Y-93861808D02*
X84392266Y-93909427D01*
X84392266Y-93909427D02*
X84439885Y-94004665D01*
X84439885Y-94004665D02*
X84439885Y-94099903D01*
X84439885Y-94099903D02*
X83963695Y-94195141D01*
X84773219Y-93861808D02*
X84963695Y-94528475D01*
X84963695Y-94528475D02*
X85154171Y-94052284D01*
X85154171Y-94052284D02*
X85344647Y-94528475D01*
X85344647Y-94528475D02*
X85535123Y-93861808D01*
X86058933Y-94528475D02*
X85963695Y-94480856D01*
X85963695Y-94480856D02*
X85916076Y-94433236D01*
X85916076Y-94433236D02*
X85868457Y-94337998D01*
X85868457Y-94337998D02*
X85868457Y-94052284D01*
X85868457Y-94052284D02*
X85916076Y-93957046D01*
X85916076Y-93957046D02*
X85963695Y-93909427D01*
X85963695Y-93909427D02*
X86058933Y-93861808D01*
X86058933Y-93861808D02*
X86201790Y-93861808D01*
X86201790Y-93861808D02*
X86297028Y-93909427D01*
X86297028Y-93909427D02*
X86344647Y-93957046D01*
X86344647Y-93957046D02*
X86392266Y-94052284D01*
X86392266Y-94052284D02*
X86392266Y-94337998D01*
X86392266Y-94337998D02*
X86344647Y-94433236D01*
X86344647Y-94433236D02*
X86297028Y-94480856D01*
X86297028Y-94480856D02*
X86201790Y-94528475D01*
X86201790Y-94528475D02*
X86058933Y-94528475D01*
X86820838Y-93861808D02*
X86820838Y-94528475D01*
X86820838Y-93957046D02*
X86868457Y-93909427D01*
X86868457Y-93909427D02*
X86963695Y-93861808D01*
X86963695Y-93861808D02*
X87106552Y-93861808D01*
X87106552Y-93861808D02*
X87201790Y-93909427D01*
X87201790Y-93909427D02*
X87249409Y-94004665D01*
X87249409Y-94004665D02*
X87249409Y-94528475D01*
X88439886Y-94242760D02*
X88916076Y-94242760D01*
X88344648Y-94528475D02*
X88677981Y-93528475D01*
X88677981Y-93528475D02*
X89011314Y-94528475D01*
X89344648Y-94528475D02*
X89344648Y-93528475D01*
X89773219Y-94528475D02*
X89773219Y-94004665D01*
X89773219Y-94004665D02*
X89725600Y-93909427D01*
X89725600Y-93909427D02*
X89630362Y-93861808D01*
X89630362Y-93861808D02*
X89487505Y-93861808D01*
X89487505Y-93861808D02*
X89392267Y-93909427D01*
X89392267Y-93909427D02*
X89344648Y-93957046D01*
X90249410Y-93861808D02*
X90249410Y-94528475D01*
X90249410Y-93957046D02*
X90297029Y-93909427D01*
X90297029Y-93909427D02*
X90392267Y-93861808D01*
X90392267Y-93861808D02*
X90535124Y-93861808D01*
X90535124Y-93861808D02*
X90630362Y-93909427D01*
X90630362Y-93909427D02*
X90677981Y-94004665D01*
X90677981Y-94004665D02*
X90677981Y-94528475D01*
X72392265Y-95233657D02*
X72439884Y-95186038D01*
X72439884Y-95186038D02*
X72535122Y-95138419D01*
X72535122Y-95138419D02*
X72773217Y-95138419D01*
X72773217Y-95138419D02*
X72868455Y-95186038D01*
X72868455Y-95186038D02*
X72916074Y-95233657D01*
X72916074Y-95233657D02*
X72963693Y-95328895D01*
X72963693Y-95328895D02*
X72963693Y-95424133D01*
X72963693Y-95424133D02*
X72916074Y-95566990D01*
X72916074Y-95566990D02*
X72344646Y-96138419D01*
X72344646Y-96138419D02*
X72963693Y-96138419D01*
X73582741Y-95138419D02*
X73677979Y-95138419D01*
X73677979Y-95138419D02*
X73773217Y-95186038D01*
X73773217Y-95186038D02*
X73820836Y-95233657D01*
X73820836Y-95233657D02*
X73868455Y-95328895D01*
X73868455Y-95328895D02*
X73916074Y-95519371D01*
X73916074Y-95519371D02*
X73916074Y-95757466D01*
X73916074Y-95757466D02*
X73868455Y-95947942D01*
X73868455Y-95947942D02*
X73820836Y-96043180D01*
X73820836Y-96043180D02*
X73773217Y-96090800D01*
X73773217Y-96090800D02*
X73677979Y-96138419D01*
X73677979Y-96138419D02*
X73582741Y-96138419D01*
X73582741Y-96138419D02*
X73487503Y-96090800D01*
X73487503Y-96090800D02*
X73439884Y-96043180D01*
X73439884Y-96043180D02*
X73392265Y-95947942D01*
X73392265Y-95947942D02*
X73344646Y-95757466D01*
X73344646Y-95757466D02*
X73344646Y-95519371D01*
X73344646Y-95519371D02*
X73392265Y-95328895D01*
X73392265Y-95328895D02*
X73439884Y-95233657D01*
X73439884Y-95233657D02*
X73487503Y-95186038D01*
X73487503Y-95186038D02*
X73582741Y-95138419D01*
X74297027Y-95233657D02*
X74344646Y-95186038D01*
X74344646Y-95186038D02*
X74439884Y-95138419D01*
X74439884Y-95138419D02*
X74677979Y-95138419D01*
X74677979Y-95138419D02*
X74773217Y-95186038D01*
X74773217Y-95186038D02*
X74820836Y-95233657D01*
X74820836Y-95233657D02*
X74868455Y-95328895D01*
X74868455Y-95328895D02*
X74868455Y-95424133D01*
X74868455Y-95424133D02*
X74820836Y-95566990D01*
X74820836Y-95566990D02*
X74249408Y-96138419D01*
X74249408Y-96138419D02*
X74868455Y-96138419D01*
X75725598Y-95138419D02*
X75535122Y-95138419D01*
X75535122Y-95138419D02*
X75439884Y-95186038D01*
X75439884Y-95186038D02*
X75392265Y-95233657D01*
X75392265Y-95233657D02*
X75297027Y-95376514D01*
X75297027Y-95376514D02*
X75249408Y-95566990D01*
X75249408Y-95566990D02*
X75249408Y-95947942D01*
X75249408Y-95947942D02*
X75297027Y-96043180D01*
X75297027Y-96043180D02*
X75344646Y-96090800D01*
X75344646Y-96090800D02*
X75439884Y-96138419D01*
X75439884Y-96138419D02*
X75630360Y-96138419D01*
X75630360Y-96138419D02*
X75725598Y-96090800D01*
X75725598Y-96090800D02*
X75773217Y-96043180D01*
X75773217Y-96043180D02*
X75820836Y-95947942D01*
X75820836Y-95947942D02*
X75820836Y-95709847D01*
X75820836Y-95709847D02*
X75773217Y-95614609D01*
X75773217Y-95614609D02*
X75725598Y-95566990D01*
X75725598Y-95566990D02*
X75630360Y-95519371D01*
X75630360Y-95519371D02*
X75439884Y-95519371D01*
X75439884Y-95519371D02*
X75344646Y-95566990D01*
X75344646Y-95566990D02*
X75297027Y-95614609D01*
X75297027Y-95614609D02*
X75249408Y-95709847D01*
X76249408Y-96043180D02*
X76297027Y-96090800D01*
X76297027Y-96090800D02*
X76249408Y-96138419D01*
X76249408Y-96138419D02*
X76201789Y-96090800D01*
X76201789Y-96090800D02*
X76249408Y-96043180D01*
X76249408Y-96043180D02*
X76249408Y-96138419D01*
X76916074Y-95138419D02*
X77011312Y-95138419D01*
X77011312Y-95138419D02*
X77106550Y-95186038D01*
X77106550Y-95186038D02*
X77154169Y-95233657D01*
X77154169Y-95233657D02*
X77201788Y-95328895D01*
X77201788Y-95328895D02*
X77249407Y-95519371D01*
X77249407Y-95519371D02*
X77249407Y-95757466D01*
X77249407Y-95757466D02*
X77201788Y-95947942D01*
X77201788Y-95947942D02*
X77154169Y-96043180D01*
X77154169Y-96043180D02*
X77106550Y-96090800D01*
X77106550Y-96090800D02*
X77011312Y-96138419D01*
X77011312Y-96138419D02*
X76916074Y-96138419D01*
X76916074Y-96138419D02*
X76820836Y-96090800D01*
X76820836Y-96090800D02*
X76773217Y-96043180D01*
X76773217Y-96043180D02*
X76725598Y-95947942D01*
X76725598Y-95947942D02*
X76677979Y-95757466D01*
X76677979Y-95757466D02*
X76677979Y-95519371D01*
X76677979Y-95519371D02*
X76725598Y-95328895D01*
X76725598Y-95328895D02*
X76773217Y-95233657D01*
X76773217Y-95233657D02*
X76820836Y-95186038D01*
X76820836Y-95186038D02*
X76916074Y-95138419D01*
X77820836Y-95566990D02*
X77725598Y-95519371D01*
X77725598Y-95519371D02*
X77677979Y-95471752D01*
X77677979Y-95471752D02*
X77630360Y-95376514D01*
X77630360Y-95376514D02*
X77630360Y-95328895D01*
X77630360Y-95328895D02*
X77677979Y-95233657D01*
X77677979Y-95233657D02*
X77725598Y-95186038D01*
X77725598Y-95186038D02*
X77820836Y-95138419D01*
X77820836Y-95138419D02*
X78011312Y-95138419D01*
X78011312Y-95138419D02*
X78106550Y-95186038D01*
X78106550Y-95186038D02*
X78154169Y-95233657D01*
X78154169Y-95233657D02*
X78201788Y-95328895D01*
X78201788Y-95328895D02*
X78201788Y-95376514D01*
X78201788Y-95376514D02*
X78154169Y-95471752D01*
X78154169Y-95471752D02*
X78106550Y-95519371D01*
X78106550Y-95519371D02*
X78011312Y-95566990D01*
X78011312Y-95566990D02*
X77820836Y-95566990D01*
X77820836Y-95566990D02*
X77725598Y-95614609D01*
X77725598Y-95614609D02*
X77677979Y-95662228D01*
X77677979Y-95662228D02*
X77630360Y-95757466D01*
X77630360Y-95757466D02*
X77630360Y-95947942D01*
X77630360Y-95947942D02*
X77677979Y-96043180D01*
X77677979Y-96043180D02*
X77725598Y-96090800D01*
X77725598Y-96090800D02*
X77820836Y-96138419D01*
X77820836Y-96138419D02*
X78011312Y-96138419D01*
X78011312Y-96138419D02*
X78106550Y-96090800D01*
X78106550Y-96090800D02*
X78154169Y-96043180D01*
X78154169Y-96043180D02*
X78201788Y-95947942D01*
X78201788Y-95947942D02*
X78201788Y-95757466D01*
X78201788Y-95757466D02*
X78154169Y-95662228D01*
X78154169Y-95662228D02*
X78106550Y-95614609D01*
X78106550Y-95614609D02*
X78011312Y-95566990D01*
X78630360Y-96043180D02*
X78677979Y-96090800D01*
X78677979Y-96090800D02*
X78630360Y-96138419D01*
X78630360Y-96138419D02*
X78582741Y-96090800D01*
X78582741Y-96090800D02*
X78630360Y-96043180D01*
X78630360Y-96043180D02*
X78630360Y-96138419D01*
X79297026Y-95138419D02*
X79392264Y-95138419D01*
X79392264Y-95138419D02*
X79487502Y-95186038D01*
X79487502Y-95186038D02*
X79535121Y-95233657D01*
X79535121Y-95233657D02*
X79582740Y-95328895D01*
X79582740Y-95328895D02*
X79630359Y-95519371D01*
X79630359Y-95519371D02*
X79630359Y-95757466D01*
X79630359Y-95757466D02*
X79582740Y-95947942D01*
X79582740Y-95947942D02*
X79535121Y-96043180D01*
X79535121Y-96043180D02*
X79487502Y-96090800D01*
X79487502Y-96090800D02*
X79392264Y-96138419D01*
X79392264Y-96138419D02*
X79297026Y-96138419D01*
X79297026Y-96138419D02*
X79201788Y-96090800D01*
X79201788Y-96090800D02*
X79154169Y-96043180D01*
X79154169Y-96043180D02*
X79106550Y-95947942D01*
X79106550Y-95947942D02*
X79058931Y-95757466D01*
X79058931Y-95757466D02*
X79058931Y-95519371D01*
X79058931Y-95519371D02*
X79106550Y-95328895D01*
X79106550Y-95328895D02*
X79154169Y-95233657D01*
X79154169Y-95233657D02*
X79201788Y-95186038D01*
X79201788Y-95186038D02*
X79297026Y-95138419D01*
X80011312Y-95233657D02*
X80058931Y-95186038D01*
X80058931Y-95186038D02*
X80154169Y-95138419D01*
X80154169Y-95138419D02*
X80392264Y-95138419D01*
X80392264Y-95138419D02*
X80487502Y-95186038D01*
X80487502Y-95186038D02*
X80535121Y-95233657D01*
X80535121Y-95233657D02*
X80582740Y-95328895D01*
X80582740Y-95328895D02*
X80582740Y-95424133D01*
X80582740Y-95424133D02*
X80535121Y-95566990D01*
X80535121Y-95566990D02*
X79963693Y-96138419D01*
X79963693Y-96138419D02*
X80582740Y-96138419D01*
D10*
X72001142Y-86719580D02*
X71953523Y-86767200D01*
X71953523Y-86767200D02*
X71810666Y-86814819D01*
X71810666Y-86814819D02*
X71715428Y-86814819D01*
X71715428Y-86814819D02*
X71572571Y-86767200D01*
X71572571Y-86767200D02*
X71477333Y-86671961D01*
X71477333Y-86671961D02*
X71429714Y-86576723D01*
X71429714Y-86576723D02*
X71382095Y-86386247D01*
X71382095Y-86386247D02*
X71382095Y-86243390D01*
X71382095Y-86243390D02*
X71429714Y-86052914D01*
X71429714Y-86052914D02*
X71477333Y-85957676D01*
X71477333Y-85957676D02*
X71572571Y-85862438D01*
X71572571Y-85862438D02*
X71715428Y-85814819D01*
X71715428Y-85814819D02*
X71810666Y-85814819D01*
X71810666Y-85814819D02*
X71953523Y-85862438D01*
X71953523Y-85862438D02*
X72001142Y-85910057D01*
X72382095Y-86529104D02*
X72858285Y-86529104D01*
X72286857Y-86814819D02*
X72620190Y-85814819D01*
X72620190Y-85814819D02*
X72953523Y-86814819D01*
X73286857Y-86814819D02*
X73286857Y-85814819D01*
X73286857Y-85814819D02*
X73858285Y-86814819D01*
X73858285Y-86814819D02*
X73858285Y-85814819D01*
X143010285Y-77149438D02*
X142915047Y-77101819D01*
X142915047Y-77101819D02*
X142772190Y-77101819D01*
X142772190Y-77101819D02*
X142629333Y-77149438D01*
X142629333Y-77149438D02*
X142534095Y-77244676D01*
X142534095Y-77244676D02*
X142486476Y-77339914D01*
X142486476Y-77339914D02*
X142438857Y-77530390D01*
X142438857Y-77530390D02*
X142438857Y-77673247D01*
X142438857Y-77673247D02*
X142486476Y-77863723D01*
X142486476Y-77863723D02*
X142534095Y-77958961D01*
X142534095Y-77958961D02*
X142629333Y-78054200D01*
X142629333Y-78054200D02*
X142772190Y-78101819D01*
X142772190Y-78101819D02*
X142867428Y-78101819D01*
X142867428Y-78101819D02*
X143010285Y-78054200D01*
X143010285Y-78054200D02*
X143057904Y-78006580D01*
X143057904Y-78006580D02*
X143057904Y-77673247D01*
X143057904Y-77673247D02*
X142867428Y-77673247D01*
X143486476Y-78101819D02*
X143486476Y-77101819D01*
X143486476Y-77101819D02*
X143867428Y-77101819D01*
X143867428Y-77101819D02*
X143962666Y-77149438D01*
X143962666Y-77149438D02*
X144010285Y-77197057D01*
X144010285Y-77197057D02*
X144057904Y-77292295D01*
X144057904Y-77292295D02*
X144057904Y-77435152D01*
X144057904Y-77435152D02*
X144010285Y-77530390D01*
X144010285Y-77530390D02*
X143962666Y-77578009D01*
X143962666Y-77578009D02*
X143867428Y-77625628D01*
X143867428Y-77625628D02*
X143486476Y-77625628D01*
X144486476Y-78101819D02*
X144486476Y-77101819D01*
X145153142Y-77101819D02*
X145343618Y-77101819D01*
X145343618Y-77101819D02*
X145438856Y-77149438D01*
X145438856Y-77149438D02*
X145534094Y-77244676D01*
X145534094Y-77244676D02*
X145581713Y-77435152D01*
X145581713Y-77435152D02*
X145581713Y-77768485D01*
X145581713Y-77768485D02*
X145534094Y-77958961D01*
X145534094Y-77958961D02*
X145438856Y-78054200D01*
X145438856Y-78054200D02*
X145343618Y-78101819D01*
X145343618Y-78101819D02*
X145153142Y-78101819D01*
X145153142Y-78101819D02*
X145057904Y-78054200D01*
X145057904Y-78054200D02*
X144962666Y-77958961D01*
X144962666Y-77958961D02*
X144915047Y-77768485D01*
X144915047Y-77768485D02*
X144915047Y-77435152D01*
X144915047Y-77435152D02*
X144962666Y-77244676D01*
X144962666Y-77244676D02*
X145057904Y-77149438D01*
X145057904Y-77149438D02*
X145153142Y-77101819D01*
X146772190Y-78101819D02*
X146772190Y-77101819D01*
X146772190Y-77101819D02*
X147153142Y-77101819D01*
X147153142Y-77101819D02*
X147248380Y-77149438D01*
X147248380Y-77149438D02*
X147295999Y-77197057D01*
X147295999Y-77197057D02*
X147343618Y-77292295D01*
X147343618Y-77292295D02*
X147343618Y-77435152D01*
X147343618Y-77435152D02*
X147295999Y-77530390D01*
X147295999Y-77530390D02*
X147248380Y-77578009D01*
X147248380Y-77578009D02*
X147153142Y-77625628D01*
X147153142Y-77625628D02*
X146772190Y-77625628D01*
X147724571Y-77816104D02*
X148200761Y-77816104D01*
X147629333Y-78101819D02*
X147962666Y-77101819D01*
X147962666Y-77101819D02*
X148295999Y-78101819D01*
X149153142Y-78101819D02*
X148581714Y-78101819D01*
X148867428Y-78101819D02*
X148867428Y-77101819D01*
X148867428Y-77101819D02*
X148772190Y-77244676D01*
X148772190Y-77244676D02*
X148676952Y-77339914D01*
X148676952Y-77339914D02*
X148581714Y-77387533D01*
X87185714Y-103086819D02*
X87757142Y-103086819D01*
X87471428Y-104086819D02*
X87471428Y-103086819D01*
X88280952Y-103086819D02*
X88471428Y-103086819D01*
X88471428Y-103086819D02*
X88566666Y-103134438D01*
X88566666Y-103134438D02*
X88661904Y-103229676D01*
X88661904Y-103229676D02*
X88709523Y-103420152D01*
X88709523Y-103420152D02*
X88709523Y-103753485D01*
X88709523Y-103753485D02*
X88661904Y-103943961D01*
X88661904Y-103943961D02*
X88566666Y-104039200D01*
X88566666Y-104039200D02*
X88471428Y-104086819D01*
X88471428Y-104086819D02*
X88280952Y-104086819D01*
X88280952Y-104086819D02*
X88185714Y-104039200D01*
X88185714Y-104039200D02*
X88090476Y-103943961D01*
X88090476Y-103943961D02*
X88042857Y-103753485D01*
X88042857Y-103753485D02*
X88042857Y-103420152D01*
X88042857Y-103420152D02*
X88090476Y-103229676D01*
X88090476Y-103229676D02*
X88185714Y-103134438D01*
X88185714Y-103134438D02*
X88280952Y-103086819D01*
X89471428Y-103563009D02*
X89138095Y-103563009D01*
X89138095Y-104086819D02*
X89138095Y-103086819D01*
X89138095Y-103086819D02*
X89614285Y-103086819D01*
X90423809Y-103420152D02*
X90423809Y-104086819D01*
X90185714Y-103039200D02*
X89947619Y-103753485D01*
X89947619Y-103753485D02*
X90566666Y-103753485D01*
X120173904Y-54733819D02*
X119840571Y-54257628D01*
X119602476Y-54733819D02*
X119602476Y-53733819D01*
X119602476Y-53733819D02*
X119983428Y-53733819D01*
X119983428Y-53733819D02*
X120078666Y-53781438D01*
X120078666Y-53781438D02*
X120126285Y-53829057D01*
X120126285Y-53829057D02*
X120173904Y-53924295D01*
X120173904Y-53924295D02*
X120173904Y-54067152D01*
X120173904Y-54067152D02*
X120126285Y-54162390D01*
X120126285Y-54162390D02*
X120078666Y-54210009D01*
X120078666Y-54210009D02*
X119983428Y-54257628D01*
X119983428Y-54257628D02*
X119602476Y-54257628D01*
X120983428Y-54686200D02*
X120888190Y-54733819D01*
X120888190Y-54733819D02*
X120697714Y-54733819D01*
X120697714Y-54733819D02*
X120602476Y-54686200D01*
X120602476Y-54686200D02*
X120554857Y-54590961D01*
X120554857Y-54590961D02*
X120554857Y-54210009D01*
X120554857Y-54210009D02*
X120602476Y-54114771D01*
X120602476Y-54114771D02*
X120697714Y-54067152D01*
X120697714Y-54067152D02*
X120888190Y-54067152D01*
X120888190Y-54067152D02*
X120983428Y-54114771D01*
X120983428Y-54114771D02*
X121031047Y-54210009D01*
X121031047Y-54210009D02*
X121031047Y-54305247D01*
X121031047Y-54305247D02*
X120554857Y-54400485D01*
X121412000Y-54686200D02*
X121507238Y-54733819D01*
X121507238Y-54733819D02*
X121697714Y-54733819D01*
X121697714Y-54733819D02*
X121792952Y-54686200D01*
X121792952Y-54686200D02*
X121840571Y-54590961D01*
X121840571Y-54590961D02*
X121840571Y-54543342D01*
X121840571Y-54543342D02*
X121792952Y-54448104D01*
X121792952Y-54448104D02*
X121697714Y-54400485D01*
X121697714Y-54400485D02*
X121554857Y-54400485D01*
X121554857Y-54400485D02*
X121459619Y-54352866D01*
X121459619Y-54352866D02*
X121412000Y-54257628D01*
X121412000Y-54257628D02*
X121412000Y-54210009D01*
X121412000Y-54210009D02*
X121459619Y-54114771D01*
X121459619Y-54114771D02*
X121554857Y-54067152D01*
X121554857Y-54067152D02*
X121697714Y-54067152D01*
X121697714Y-54067152D02*
X121792952Y-54114771D01*
X122650095Y-54686200D02*
X122554857Y-54733819D01*
X122554857Y-54733819D02*
X122364381Y-54733819D01*
X122364381Y-54733819D02*
X122269143Y-54686200D01*
X122269143Y-54686200D02*
X122221524Y-54590961D01*
X122221524Y-54590961D02*
X122221524Y-54210009D01*
X122221524Y-54210009D02*
X122269143Y-54114771D01*
X122269143Y-54114771D02*
X122364381Y-54067152D01*
X122364381Y-54067152D02*
X122554857Y-54067152D01*
X122554857Y-54067152D02*
X122650095Y-54114771D01*
X122650095Y-54114771D02*
X122697714Y-54210009D01*
X122697714Y-54210009D02*
X122697714Y-54305247D01*
X122697714Y-54305247D02*
X122221524Y-54400485D01*
X122983429Y-54067152D02*
X123364381Y-54067152D01*
X123126286Y-53733819D02*
X123126286Y-54590961D01*
X123126286Y-54590961D02*
X123173905Y-54686200D01*
X123173905Y-54686200D02*
X123269143Y-54733819D01*
X123269143Y-54733819D02*
X123364381Y-54733819D01*
X129857714Y-38062819D02*
X130429142Y-38062819D01*
X130143428Y-39062819D02*
X130143428Y-38062819D01*
X130952952Y-38062819D02*
X131143428Y-38062819D01*
X131143428Y-38062819D02*
X131238666Y-38110438D01*
X131238666Y-38110438D02*
X131333904Y-38205676D01*
X131333904Y-38205676D02*
X131381523Y-38396152D01*
X131381523Y-38396152D02*
X131381523Y-38729485D01*
X131381523Y-38729485D02*
X131333904Y-38919961D01*
X131333904Y-38919961D02*
X131238666Y-39015200D01*
X131238666Y-39015200D02*
X131143428Y-39062819D01*
X131143428Y-39062819D02*
X130952952Y-39062819D01*
X130952952Y-39062819D02*
X130857714Y-39015200D01*
X130857714Y-39015200D02*
X130762476Y-38919961D01*
X130762476Y-38919961D02*
X130714857Y-38729485D01*
X130714857Y-38729485D02*
X130714857Y-38396152D01*
X130714857Y-38396152D02*
X130762476Y-38205676D01*
X130762476Y-38205676D02*
X130857714Y-38110438D01*
X130857714Y-38110438D02*
X130952952Y-38062819D01*
X132143428Y-38539009D02*
X131810095Y-38539009D01*
X131810095Y-39062819D02*
X131810095Y-38062819D01*
X131810095Y-38062819D02*
X132286285Y-38062819D01*
X133191047Y-39062819D02*
X132619619Y-39062819D01*
X132905333Y-39062819D02*
X132905333Y-38062819D01*
X132905333Y-38062819D02*
X132810095Y-38205676D01*
X132810095Y-38205676D02*
X132714857Y-38300914D01*
X132714857Y-38300914D02*
X132619619Y-38348533D01*
X127881523Y-45653438D02*
X127786285Y-45605819D01*
X127786285Y-45605819D02*
X127643428Y-45605819D01*
X127643428Y-45605819D02*
X127500571Y-45653438D01*
X127500571Y-45653438D02*
X127405333Y-45748676D01*
X127405333Y-45748676D02*
X127357714Y-45843914D01*
X127357714Y-45843914D02*
X127310095Y-46034390D01*
X127310095Y-46034390D02*
X127310095Y-46177247D01*
X127310095Y-46177247D02*
X127357714Y-46367723D01*
X127357714Y-46367723D02*
X127405333Y-46462961D01*
X127405333Y-46462961D02*
X127500571Y-46558200D01*
X127500571Y-46558200D02*
X127643428Y-46605819D01*
X127643428Y-46605819D02*
X127738666Y-46605819D01*
X127738666Y-46605819D02*
X127881523Y-46558200D01*
X127881523Y-46558200D02*
X127929142Y-46510580D01*
X127929142Y-46510580D02*
X127929142Y-46177247D01*
X127929142Y-46177247D02*
X127738666Y-46177247D01*
X128357714Y-46605819D02*
X128357714Y-45605819D01*
X128357714Y-45605819D02*
X128738666Y-45605819D01*
X128738666Y-45605819D02*
X128833904Y-45653438D01*
X128833904Y-45653438D02*
X128881523Y-45701057D01*
X128881523Y-45701057D02*
X128929142Y-45796295D01*
X128929142Y-45796295D02*
X128929142Y-45939152D01*
X128929142Y-45939152D02*
X128881523Y-46034390D01*
X128881523Y-46034390D02*
X128833904Y-46082009D01*
X128833904Y-46082009D02*
X128738666Y-46129628D01*
X128738666Y-46129628D02*
X128357714Y-46129628D01*
X129310095Y-46558200D02*
X129452952Y-46605819D01*
X129452952Y-46605819D02*
X129691047Y-46605819D01*
X129691047Y-46605819D02*
X129786285Y-46558200D01*
X129786285Y-46558200D02*
X129833904Y-46510580D01*
X129833904Y-46510580D02*
X129881523Y-46415342D01*
X129881523Y-46415342D02*
X129881523Y-46320104D01*
X129881523Y-46320104D02*
X129833904Y-46224866D01*
X129833904Y-46224866D02*
X129786285Y-46177247D01*
X129786285Y-46177247D02*
X129691047Y-46129628D01*
X129691047Y-46129628D02*
X129500571Y-46082009D01*
X129500571Y-46082009D02*
X129405333Y-46034390D01*
X129405333Y-46034390D02*
X129357714Y-45986771D01*
X129357714Y-45986771D02*
X129310095Y-45891533D01*
X129310095Y-45891533D02*
X129310095Y-45796295D01*
X129310095Y-45796295D02*
X129357714Y-45701057D01*
X129357714Y-45701057D02*
X129405333Y-45653438D01*
X129405333Y-45653438D02*
X129500571Y-45605819D01*
X129500571Y-45605819D02*
X129738666Y-45605819D01*
X129738666Y-45605819D02*
X129881523Y-45653438D01*
X130595809Y-46986771D02*
X130548190Y-46939152D01*
X130548190Y-46939152D02*
X130452952Y-46796295D01*
X130452952Y-46796295D02*
X130405333Y-46701057D01*
X130405333Y-46701057D02*
X130357714Y-46558200D01*
X130357714Y-46558200D02*
X130310095Y-46320104D01*
X130310095Y-46320104D02*
X130310095Y-46129628D01*
X130310095Y-46129628D02*
X130357714Y-45891533D01*
X130357714Y-45891533D02*
X130405333Y-45748676D01*
X130405333Y-45748676D02*
X130452952Y-45653438D01*
X130452952Y-45653438D02*
X130548190Y-45510580D01*
X130548190Y-45510580D02*
X130595809Y-45462961D01*
X130976762Y-45605819D02*
X130976762Y-46415342D01*
X130976762Y-46415342D02*
X131024381Y-46510580D01*
X131024381Y-46510580D02*
X131072000Y-46558200D01*
X131072000Y-46558200D02*
X131167238Y-46605819D01*
X131167238Y-46605819D02*
X131357714Y-46605819D01*
X131357714Y-46605819D02*
X131452952Y-46558200D01*
X131452952Y-46558200D02*
X131500571Y-46510580D01*
X131500571Y-46510580D02*
X131548190Y-46415342D01*
X131548190Y-46415342D02*
X131548190Y-45605819D01*
X131976762Y-46320104D02*
X132452952Y-46320104D01*
X131881524Y-46605819D02*
X132214857Y-45605819D01*
X132214857Y-45605819D02*
X132548190Y-46605819D01*
X133452952Y-46605819D02*
X133119619Y-46129628D01*
X132881524Y-46605819D02*
X132881524Y-45605819D01*
X132881524Y-45605819D02*
X133262476Y-45605819D01*
X133262476Y-45605819D02*
X133357714Y-45653438D01*
X133357714Y-45653438D02*
X133405333Y-45701057D01*
X133405333Y-45701057D02*
X133452952Y-45796295D01*
X133452952Y-45796295D02*
X133452952Y-45939152D01*
X133452952Y-45939152D02*
X133405333Y-46034390D01*
X133405333Y-46034390D02*
X133357714Y-46082009D01*
X133357714Y-46082009D02*
X133262476Y-46129628D01*
X133262476Y-46129628D02*
X132881524Y-46129628D01*
X133738667Y-45605819D02*
X134310095Y-45605819D01*
X134024381Y-46605819D02*
X134024381Y-45605819D01*
X135167238Y-46605819D02*
X134595810Y-46605819D01*
X134881524Y-46605819D02*
X134881524Y-45605819D01*
X134881524Y-45605819D02*
X134786286Y-45748676D01*
X134786286Y-45748676D02*
X134691048Y-45843914D01*
X134691048Y-45843914D02*
X134595810Y-45891533D01*
X135500572Y-46986771D02*
X135548191Y-46939152D01*
X135548191Y-46939152D02*
X135643429Y-46796295D01*
X135643429Y-46796295D02*
X135691048Y-46701057D01*
X135691048Y-46701057D02*
X135738667Y-46558200D01*
X135738667Y-46558200D02*
X135786286Y-46320104D01*
X135786286Y-46320104D02*
X135786286Y-46129628D01*
X135786286Y-46129628D02*
X135738667Y-45891533D01*
X135738667Y-45891533D02*
X135691048Y-45748676D01*
X135691048Y-45748676D02*
X135643429Y-45653438D01*
X135643429Y-45653438D02*
X135548191Y-45510580D01*
X135548191Y-45510580D02*
X135500572Y-45462961D01*
X76454095Y-64737466D02*
X76358857Y-64689847D01*
X76358857Y-64689847D02*
X76216000Y-64689847D01*
X76216000Y-64689847D02*
X76073143Y-64737466D01*
X76073143Y-64737466D02*
X75977905Y-64832704D01*
X75977905Y-64832704D02*
X75930286Y-64927942D01*
X75930286Y-64927942D02*
X75882667Y-65118418D01*
X75882667Y-65118418D02*
X75882667Y-65261275D01*
X75882667Y-65261275D02*
X75930286Y-65451751D01*
X75930286Y-65451751D02*
X75977905Y-65546989D01*
X75977905Y-65546989D02*
X76073143Y-65642228D01*
X76073143Y-65642228D02*
X76216000Y-65689847D01*
X76216000Y-65689847D02*
X76311238Y-65689847D01*
X76311238Y-65689847D02*
X76454095Y-65642228D01*
X76454095Y-65642228D02*
X76501714Y-65594608D01*
X76501714Y-65594608D02*
X76501714Y-65261275D01*
X76501714Y-65261275D02*
X76311238Y-65261275D01*
X76930286Y-65689847D02*
X76930286Y-64689847D01*
X76930286Y-64689847D02*
X77501714Y-65689847D01*
X77501714Y-65689847D02*
X77501714Y-64689847D01*
X77977905Y-65689847D02*
X77977905Y-64689847D01*
X77977905Y-64689847D02*
X78216000Y-64689847D01*
X78216000Y-64689847D02*
X78358857Y-64737466D01*
X78358857Y-64737466D02*
X78454095Y-64832704D01*
X78454095Y-64832704D02*
X78501714Y-64927942D01*
X78501714Y-64927942D02*
X78549333Y-65118418D01*
X78549333Y-65118418D02*
X78549333Y-65261275D01*
X78549333Y-65261275D02*
X78501714Y-65451751D01*
X78501714Y-65451751D02*
X78454095Y-65546989D01*
X78454095Y-65546989D02*
X78358857Y-65642228D01*
X78358857Y-65642228D02*
X78216000Y-65689847D01*
X78216000Y-65689847D02*
X77977905Y-65689847D01*
X77025523Y-66299791D02*
X76549333Y-66299791D01*
X76549333Y-66299791D02*
X76501714Y-66775981D01*
X76501714Y-66775981D02*
X76549333Y-66728362D01*
X76549333Y-66728362D02*
X76644571Y-66680743D01*
X76644571Y-66680743D02*
X76882666Y-66680743D01*
X76882666Y-66680743D02*
X76977904Y-66728362D01*
X76977904Y-66728362D02*
X77025523Y-66775981D01*
X77025523Y-66775981D02*
X77073142Y-66871219D01*
X77073142Y-66871219D02*
X77073142Y-67109314D01*
X77073142Y-67109314D02*
X77025523Y-67204552D01*
X77025523Y-67204552D02*
X76977904Y-67252172D01*
X76977904Y-67252172D02*
X76882666Y-67299791D01*
X76882666Y-67299791D02*
X76644571Y-67299791D01*
X76644571Y-67299791D02*
X76549333Y-67252172D01*
X76549333Y-67252172D02*
X76501714Y-67204552D01*
X77358857Y-66299791D02*
X77692190Y-67299791D01*
X77692190Y-67299791D02*
X78025523Y-66299791D01*
X99259095Y-84295438D02*
X99163857Y-84247819D01*
X99163857Y-84247819D02*
X99021000Y-84247819D01*
X99021000Y-84247819D02*
X98878143Y-84295438D01*
X98878143Y-84295438D02*
X98782905Y-84390676D01*
X98782905Y-84390676D02*
X98735286Y-84485914D01*
X98735286Y-84485914D02*
X98687667Y-84676390D01*
X98687667Y-84676390D02*
X98687667Y-84819247D01*
X98687667Y-84819247D02*
X98735286Y-85009723D01*
X98735286Y-85009723D02*
X98782905Y-85104961D01*
X98782905Y-85104961D02*
X98878143Y-85200200D01*
X98878143Y-85200200D02*
X99021000Y-85247819D01*
X99021000Y-85247819D02*
X99116238Y-85247819D01*
X99116238Y-85247819D02*
X99259095Y-85200200D01*
X99259095Y-85200200D02*
X99306714Y-85152580D01*
X99306714Y-85152580D02*
X99306714Y-84819247D01*
X99306714Y-84819247D02*
X99116238Y-84819247D01*
X99735286Y-85247819D02*
X99735286Y-84247819D01*
X99735286Y-84247819D02*
X100306714Y-85247819D01*
X100306714Y-85247819D02*
X100306714Y-84247819D01*
X100782905Y-85247819D02*
X100782905Y-84247819D01*
X100782905Y-84247819D02*
X101021000Y-84247819D01*
X101021000Y-84247819D02*
X101163857Y-84295438D01*
X101163857Y-84295438D02*
X101259095Y-84390676D01*
X101259095Y-84390676D02*
X101306714Y-84485914D01*
X101306714Y-84485914D02*
X101354333Y-84676390D01*
X101354333Y-84676390D02*
X101354333Y-84819247D01*
X101354333Y-84819247D02*
X101306714Y-85009723D01*
X101306714Y-85009723D02*
X101259095Y-85104961D01*
X101259095Y-85104961D02*
X101163857Y-85200200D01*
X101163857Y-85200200D02*
X101021000Y-85247819D01*
X101021000Y-85247819D02*
X100782905Y-85247819D01*
X129588000Y-77609819D02*
X130207047Y-77609819D01*
X130207047Y-77609819D02*
X129873714Y-77990771D01*
X129873714Y-77990771D02*
X130016571Y-77990771D01*
X130016571Y-77990771D02*
X130111809Y-78038390D01*
X130111809Y-78038390D02*
X130159428Y-78086009D01*
X130159428Y-78086009D02*
X130207047Y-78181247D01*
X130207047Y-78181247D02*
X130207047Y-78419342D01*
X130207047Y-78419342D02*
X130159428Y-78514580D01*
X130159428Y-78514580D02*
X130111809Y-78562200D01*
X130111809Y-78562200D02*
X130016571Y-78609819D01*
X130016571Y-78609819D02*
X129730857Y-78609819D01*
X129730857Y-78609819D02*
X129635619Y-78562200D01*
X129635619Y-78562200D02*
X129588000Y-78514580D01*
X130635619Y-78514580D02*
X130683238Y-78562200D01*
X130683238Y-78562200D02*
X130635619Y-78609819D01*
X130635619Y-78609819D02*
X130588000Y-78562200D01*
X130588000Y-78562200D02*
X130635619Y-78514580D01*
X130635619Y-78514580D02*
X130635619Y-78609819D01*
X131016571Y-77609819D02*
X131635618Y-77609819D01*
X131635618Y-77609819D02*
X131302285Y-77990771D01*
X131302285Y-77990771D02*
X131445142Y-77990771D01*
X131445142Y-77990771D02*
X131540380Y-78038390D01*
X131540380Y-78038390D02*
X131587999Y-78086009D01*
X131587999Y-78086009D02*
X131635618Y-78181247D01*
X131635618Y-78181247D02*
X131635618Y-78419342D01*
X131635618Y-78419342D02*
X131587999Y-78514580D01*
X131587999Y-78514580D02*
X131540380Y-78562200D01*
X131540380Y-78562200D02*
X131445142Y-78609819D01*
X131445142Y-78609819D02*
X131159428Y-78609819D01*
X131159428Y-78609819D02*
X131064190Y-78562200D01*
X131064190Y-78562200D02*
X131016571Y-78514580D01*
X131826095Y-78705057D02*
X132587999Y-78705057D01*
X132826095Y-78609819D02*
X132826095Y-77609819D01*
X132826095Y-77609819D02*
X133207047Y-77609819D01*
X133207047Y-77609819D02*
X133302285Y-77657438D01*
X133302285Y-77657438D02*
X133349904Y-77705057D01*
X133349904Y-77705057D02*
X133397523Y-77800295D01*
X133397523Y-77800295D02*
X133397523Y-77943152D01*
X133397523Y-77943152D02*
X133349904Y-78038390D01*
X133349904Y-78038390D02*
X133302285Y-78086009D01*
X133302285Y-78086009D02*
X133207047Y-78133628D01*
X133207047Y-78133628D02*
X132826095Y-78133628D01*
X133730857Y-77609819D02*
X133968952Y-78609819D01*
X133968952Y-78609819D02*
X134159428Y-77895533D01*
X134159428Y-77895533D02*
X134349904Y-78609819D01*
X134349904Y-78609819D02*
X134588000Y-77609819D01*
X135540380Y-78609819D02*
X135207047Y-78133628D01*
X134968952Y-78609819D02*
X134968952Y-77609819D01*
X134968952Y-77609819D02*
X135349904Y-77609819D01*
X135349904Y-77609819D02*
X135445142Y-77657438D01*
X135445142Y-77657438D02*
X135492761Y-77705057D01*
X135492761Y-77705057D02*
X135540380Y-77800295D01*
X135540380Y-77800295D02*
X135540380Y-77943152D01*
X135540380Y-77943152D02*
X135492761Y-78038390D01*
X135492761Y-78038390D02*
X135445142Y-78086009D01*
X135445142Y-78086009D02*
X135349904Y-78133628D01*
X135349904Y-78133628D02*
X134968952Y-78133628D01*
X99339238Y-44081819D02*
X100005904Y-45081819D01*
X100005904Y-44081819D02*
X99339238Y-45081819D01*
X100339238Y-45034200D02*
X100482095Y-45081819D01*
X100482095Y-45081819D02*
X100720190Y-45081819D01*
X100720190Y-45081819D02*
X100815428Y-45034200D01*
X100815428Y-45034200D02*
X100863047Y-44986580D01*
X100863047Y-44986580D02*
X100910666Y-44891342D01*
X100910666Y-44891342D02*
X100910666Y-44796104D01*
X100910666Y-44796104D02*
X100863047Y-44700866D01*
X100863047Y-44700866D02*
X100815428Y-44653247D01*
X100815428Y-44653247D02*
X100720190Y-44605628D01*
X100720190Y-44605628D02*
X100529714Y-44558009D01*
X100529714Y-44558009D02*
X100434476Y-44510390D01*
X100434476Y-44510390D02*
X100386857Y-44462771D01*
X100386857Y-44462771D02*
X100339238Y-44367533D01*
X100339238Y-44367533D02*
X100339238Y-44272295D01*
X100339238Y-44272295D02*
X100386857Y-44177057D01*
X100386857Y-44177057D02*
X100434476Y-44129438D01*
X100434476Y-44129438D02*
X100529714Y-44081819D01*
X100529714Y-44081819D02*
X100767809Y-44081819D01*
X100767809Y-44081819D02*
X100910666Y-44129438D01*
X101339238Y-45081819D02*
X101339238Y-44081819D01*
X101339238Y-44558009D02*
X101910666Y-44558009D01*
X101910666Y-45081819D02*
X101910666Y-44081819D01*
X102386857Y-44081819D02*
X102386857Y-44891342D01*
X102386857Y-44891342D02*
X102434476Y-44986580D01*
X102434476Y-44986580D02*
X102482095Y-45034200D01*
X102482095Y-45034200D02*
X102577333Y-45081819D01*
X102577333Y-45081819D02*
X102767809Y-45081819D01*
X102767809Y-45081819D02*
X102863047Y-45034200D01*
X102863047Y-45034200D02*
X102910666Y-44986580D01*
X102910666Y-44986580D02*
X102958285Y-44891342D01*
X102958285Y-44891342D02*
X102958285Y-44081819D01*
X103291619Y-44081819D02*
X103863047Y-44081819D01*
X103577333Y-45081819D02*
X103577333Y-44081819D01*
X105482095Y-44129438D02*
X105386857Y-44081819D01*
X105386857Y-44081819D02*
X105244000Y-44081819D01*
X105244000Y-44081819D02*
X105101143Y-44129438D01*
X105101143Y-44129438D02*
X105005905Y-44224676D01*
X105005905Y-44224676D02*
X104958286Y-44319914D01*
X104958286Y-44319914D02*
X104910667Y-44510390D01*
X104910667Y-44510390D02*
X104910667Y-44653247D01*
X104910667Y-44653247D02*
X104958286Y-44843723D01*
X104958286Y-44843723D02*
X105005905Y-44938961D01*
X105005905Y-44938961D02*
X105101143Y-45034200D01*
X105101143Y-45034200D02*
X105244000Y-45081819D01*
X105244000Y-45081819D02*
X105339238Y-45081819D01*
X105339238Y-45081819D02*
X105482095Y-45034200D01*
X105482095Y-45034200D02*
X105529714Y-44986580D01*
X105529714Y-44986580D02*
X105529714Y-44653247D01*
X105529714Y-44653247D02*
X105339238Y-44653247D01*
X105958286Y-45081819D02*
X105958286Y-44081819D01*
X105958286Y-44081819D02*
X106339238Y-44081819D01*
X106339238Y-44081819D02*
X106434476Y-44129438D01*
X106434476Y-44129438D02*
X106482095Y-44177057D01*
X106482095Y-44177057D02*
X106529714Y-44272295D01*
X106529714Y-44272295D02*
X106529714Y-44415152D01*
X106529714Y-44415152D02*
X106482095Y-44510390D01*
X106482095Y-44510390D02*
X106434476Y-44558009D01*
X106434476Y-44558009D02*
X106339238Y-44605628D01*
X106339238Y-44605628D02*
X105958286Y-44605628D01*
X106958286Y-45081819D02*
X106958286Y-44081819D01*
X107624952Y-44081819D02*
X107815428Y-44081819D01*
X107815428Y-44081819D02*
X107910666Y-44129438D01*
X107910666Y-44129438D02*
X108005904Y-44224676D01*
X108005904Y-44224676D02*
X108053523Y-44415152D01*
X108053523Y-44415152D02*
X108053523Y-44748485D01*
X108053523Y-44748485D02*
X108005904Y-44938961D01*
X108005904Y-44938961D02*
X107910666Y-45034200D01*
X107910666Y-45034200D02*
X107815428Y-45081819D01*
X107815428Y-45081819D02*
X107624952Y-45081819D01*
X107624952Y-45081819D02*
X107529714Y-45034200D01*
X107529714Y-45034200D02*
X107434476Y-44938961D01*
X107434476Y-44938961D02*
X107386857Y-44748485D01*
X107386857Y-44748485D02*
X107386857Y-44415152D01*
X107386857Y-44415152D02*
X107434476Y-44224676D01*
X107434476Y-44224676D02*
X107529714Y-44129438D01*
X107529714Y-44129438D02*
X107624952Y-44081819D01*
X109196381Y-45034200D02*
X109339238Y-45081819D01*
X109339238Y-45081819D02*
X109577333Y-45081819D01*
X109577333Y-45081819D02*
X109672571Y-45034200D01*
X109672571Y-45034200D02*
X109720190Y-44986580D01*
X109720190Y-44986580D02*
X109767809Y-44891342D01*
X109767809Y-44891342D02*
X109767809Y-44796104D01*
X109767809Y-44796104D02*
X109720190Y-44700866D01*
X109720190Y-44700866D02*
X109672571Y-44653247D01*
X109672571Y-44653247D02*
X109577333Y-44605628D01*
X109577333Y-44605628D02*
X109386857Y-44558009D01*
X109386857Y-44558009D02*
X109291619Y-44510390D01*
X109291619Y-44510390D02*
X109244000Y-44462771D01*
X109244000Y-44462771D02*
X109196381Y-44367533D01*
X109196381Y-44367533D02*
X109196381Y-44272295D01*
X109196381Y-44272295D02*
X109244000Y-44177057D01*
X109244000Y-44177057D02*
X109291619Y-44129438D01*
X109291619Y-44129438D02*
X109386857Y-44081819D01*
X109386857Y-44081819D02*
X109624952Y-44081819D01*
X109624952Y-44081819D02*
X109767809Y-44129438D01*
X110196381Y-45081819D02*
X110196381Y-44081819D01*
X110196381Y-44081819D02*
X110434476Y-44081819D01*
X110434476Y-44081819D02*
X110577333Y-44129438D01*
X110577333Y-44129438D02*
X110672571Y-44224676D01*
X110672571Y-44224676D02*
X110720190Y-44319914D01*
X110720190Y-44319914D02*
X110767809Y-44510390D01*
X110767809Y-44510390D02*
X110767809Y-44653247D01*
X110767809Y-44653247D02*
X110720190Y-44843723D01*
X110720190Y-44843723D02*
X110672571Y-44938961D01*
X110672571Y-44938961D02*
X110577333Y-45034200D01*
X110577333Y-45034200D02*
X110434476Y-45081819D01*
X110434476Y-45081819D02*
X110196381Y-45081819D01*
X111148762Y-44796104D02*
X111624952Y-44796104D01*
X111053524Y-45081819D02*
X111386857Y-44081819D01*
X111386857Y-44081819D02*
X111720190Y-45081819D01*
X112767810Y-45034200D02*
X112910667Y-45081819D01*
X112910667Y-45081819D02*
X113148762Y-45081819D01*
X113148762Y-45081819D02*
X113244000Y-45034200D01*
X113244000Y-45034200D02*
X113291619Y-44986580D01*
X113291619Y-44986580D02*
X113339238Y-44891342D01*
X113339238Y-44891342D02*
X113339238Y-44796104D01*
X113339238Y-44796104D02*
X113291619Y-44700866D01*
X113291619Y-44700866D02*
X113244000Y-44653247D01*
X113244000Y-44653247D02*
X113148762Y-44605628D01*
X113148762Y-44605628D02*
X112958286Y-44558009D01*
X112958286Y-44558009D02*
X112863048Y-44510390D01*
X112863048Y-44510390D02*
X112815429Y-44462771D01*
X112815429Y-44462771D02*
X112767810Y-44367533D01*
X112767810Y-44367533D02*
X112767810Y-44272295D01*
X112767810Y-44272295D02*
X112815429Y-44177057D01*
X112815429Y-44177057D02*
X112863048Y-44129438D01*
X112863048Y-44129438D02*
X112958286Y-44081819D01*
X112958286Y-44081819D02*
X113196381Y-44081819D01*
X113196381Y-44081819D02*
X113339238Y-44129438D01*
X114339238Y-44986580D02*
X114291619Y-45034200D01*
X114291619Y-45034200D02*
X114148762Y-45081819D01*
X114148762Y-45081819D02*
X114053524Y-45081819D01*
X114053524Y-45081819D02*
X113910667Y-45034200D01*
X113910667Y-45034200D02*
X113815429Y-44938961D01*
X113815429Y-44938961D02*
X113767810Y-44843723D01*
X113767810Y-44843723D02*
X113720191Y-44653247D01*
X113720191Y-44653247D02*
X113720191Y-44510390D01*
X113720191Y-44510390D02*
X113767810Y-44319914D01*
X113767810Y-44319914D02*
X113815429Y-44224676D01*
X113815429Y-44224676D02*
X113910667Y-44129438D01*
X113910667Y-44129438D02*
X114053524Y-44081819D01*
X114053524Y-44081819D02*
X114148762Y-44081819D01*
X114148762Y-44081819D02*
X114291619Y-44129438D01*
X114291619Y-44129438D02*
X114339238Y-44177057D01*
X115244000Y-45081819D02*
X114767810Y-45081819D01*
X114767810Y-45081819D02*
X114767810Y-44081819D01*
X116863048Y-44129438D02*
X116767810Y-44081819D01*
X116767810Y-44081819D02*
X116624953Y-44081819D01*
X116624953Y-44081819D02*
X116482096Y-44129438D01*
X116482096Y-44129438D02*
X116386858Y-44224676D01*
X116386858Y-44224676D02*
X116339239Y-44319914D01*
X116339239Y-44319914D02*
X116291620Y-44510390D01*
X116291620Y-44510390D02*
X116291620Y-44653247D01*
X116291620Y-44653247D02*
X116339239Y-44843723D01*
X116339239Y-44843723D02*
X116386858Y-44938961D01*
X116386858Y-44938961D02*
X116482096Y-45034200D01*
X116482096Y-45034200D02*
X116624953Y-45081819D01*
X116624953Y-45081819D02*
X116720191Y-45081819D01*
X116720191Y-45081819D02*
X116863048Y-45034200D01*
X116863048Y-45034200D02*
X116910667Y-44986580D01*
X116910667Y-44986580D02*
X116910667Y-44653247D01*
X116910667Y-44653247D02*
X116720191Y-44653247D01*
X117339239Y-45081819D02*
X117339239Y-44081819D01*
X117339239Y-44081819D02*
X117910667Y-45081819D01*
X117910667Y-45081819D02*
X117910667Y-44081819D01*
X118386858Y-45081819D02*
X118386858Y-44081819D01*
X118386858Y-44081819D02*
X118624953Y-44081819D01*
X118624953Y-44081819D02*
X118767810Y-44129438D01*
X118767810Y-44129438D02*
X118863048Y-44224676D01*
X118863048Y-44224676D02*
X118910667Y-44319914D01*
X118910667Y-44319914D02*
X118958286Y-44510390D01*
X118958286Y-44510390D02*
X118958286Y-44653247D01*
X118958286Y-44653247D02*
X118910667Y-44843723D01*
X118910667Y-44843723D02*
X118863048Y-44938961D01*
X118863048Y-44938961D02*
X118767810Y-45034200D01*
X118767810Y-45034200D02*
X118624953Y-45081819D01*
X118624953Y-45081819D02*
X118386858Y-45081819D01*
X120053525Y-44081819D02*
X120672572Y-44081819D01*
X120672572Y-44081819D02*
X120339239Y-44462771D01*
X120339239Y-44462771D02*
X120482096Y-44462771D01*
X120482096Y-44462771D02*
X120577334Y-44510390D01*
X120577334Y-44510390D02*
X120624953Y-44558009D01*
X120624953Y-44558009D02*
X120672572Y-44653247D01*
X120672572Y-44653247D02*
X120672572Y-44891342D01*
X120672572Y-44891342D02*
X120624953Y-44986580D01*
X120624953Y-44986580D02*
X120577334Y-45034200D01*
X120577334Y-45034200D02*
X120482096Y-45081819D01*
X120482096Y-45081819D02*
X120196382Y-45081819D01*
X120196382Y-45081819D02*
X120101144Y-45034200D01*
X120101144Y-45034200D02*
X120053525Y-44986580D01*
X121101144Y-44986580D02*
X121148763Y-45034200D01*
X121148763Y-45034200D02*
X121101144Y-45081819D01*
X121101144Y-45081819D02*
X121053525Y-45034200D01*
X121053525Y-45034200D02*
X121101144Y-44986580D01*
X121101144Y-44986580D02*
X121101144Y-45081819D01*
X121482096Y-44081819D02*
X122101143Y-44081819D01*
X122101143Y-44081819D02*
X121767810Y-44462771D01*
X121767810Y-44462771D02*
X121910667Y-44462771D01*
X121910667Y-44462771D02*
X122005905Y-44510390D01*
X122005905Y-44510390D02*
X122053524Y-44558009D01*
X122053524Y-44558009D02*
X122101143Y-44653247D01*
X122101143Y-44653247D02*
X122101143Y-44891342D01*
X122101143Y-44891342D02*
X122053524Y-44986580D01*
X122053524Y-44986580D02*
X122005905Y-45034200D01*
X122005905Y-45034200D02*
X121910667Y-45081819D01*
X121910667Y-45081819D02*
X121624953Y-45081819D01*
X121624953Y-45081819D02*
X121529715Y-45034200D01*
X121529715Y-45034200D02*
X121482096Y-44986580D01*
X108775714Y-103340819D02*
X109347142Y-103340819D01*
X109061428Y-104340819D02*
X109061428Y-103340819D01*
X109870952Y-103340819D02*
X110061428Y-103340819D01*
X110061428Y-103340819D02*
X110156666Y-103388438D01*
X110156666Y-103388438D02*
X110251904Y-103483676D01*
X110251904Y-103483676D02*
X110299523Y-103674152D01*
X110299523Y-103674152D02*
X110299523Y-104007485D01*
X110299523Y-104007485D02*
X110251904Y-104197961D01*
X110251904Y-104197961D02*
X110156666Y-104293200D01*
X110156666Y-104293200D02*
X110061428Y-104340819D01*
X110061428Y-104340819D02*
X109870952Y-104340819D01*
X109870952Y-104340819D02*
X109775714Y-104293200D01*
X109775714Y-104293200D02*
X109680476Y-104197961D01*
X109680476Y-104197961D02*
X109632857Y-104007485D01*
X109632857Y-104007485D02*
X109632857Y-103674152D01*
X109632857Y-103674152D02*
X109680476Y-103483676D01*
X109680476Y-103483676D02*
X109775714Y-103388438D01*
X109775714Y-103388438D02*
X109870952Y-103340819D01*
X111061428Y-103817009D02*
X110728095Y-103817009D01*
X110728095Y-104340819D02*
X110728095Y-103340819D01*
X110728095Y-103340819D02*
X111204285Y-103340819D01*
X112061428Y-103340819D02*
X111585238Y-103340819D01*
X111585238Y-103340819D02*
X111537619Y-103817009D01*
X111537619Y-103817009D02*
X111585238Y-103769390D01*
X111585238Y-103769390D02*
X111680476Y-103721771D01*
X111680476Y-103721771D02*
X111918571Y-103721771D01*
X111918571Y-103721771D02*
X112013809Y-103769390D01*
X112013809Y-103769390D02*
X112061428Y-103817009D01*
X112061428Y-103817009D02*
X112109047Y-103912247D01*
X112109047Y-103912247D02*
X112109047Y-104150342D01*
X112109047Y-104150342D02*
X112061428Y-104245580D01*
X112061428Y-104245580D02*
X112013809Y-104293200D01*
X112013809Y-104293200D02*
X111918571Y-104340819D01*
X111918571Y-104340819D02*
X111680476Y-104340819D01*
X111680476Y-104340819D02*
X111585238Y-104293200D01*
X111585238Y-104293200D02*
X111537619Y-104245580D01*
X125532190Y-59305819D02*
X125532190Y-58305819D01*
X125532190Y-58305819D02*
X125770285Y-58305819D01*
X125770285Y-58305819D02*
X125913142Y-58353438D01*
X125913142Y-58353438D02*
X126008380Y-58448676D01*
X126008380Y-58448676D02*
X126055999Y-58543914D01*
X126055999Y-58543914D02*
X126103618Y-58734390D01*
X126103618Y-58734390D02*
X126103618Y-58877247D01*
X126103618Y-58877247D02*
X126055999Y-59067723D01*
X126055999Y-59067723D02*
X126008380Y-59162961D01*
X126008380Y-59162961D02*
X125913142Y-59258200D01*
X125913142Y-59258200D02*
X125770285Y-59305819D01*
X125770285Y-59305819D02*
X125532190Y-59305819D01*
X126913142Y-59258200D02*
X126817904Y-59305819D01*
X126817904Y-59305819D02*
X126627428Y-59305819D01*
X126627428Y-59305819D02*
X126532190Y-59258200D01*
X126532190Y-59258200D02*
X126484571Y-59162961D01*
X126484571Y-59162961D02*
X126484571Y-58782009D01*
X126484571Y-58782009D02*
X126532190Y-58686771D01*
X126532190Y-58686771D02*
X126627428Y-58639152D01*
X126627428Y-58639152D02*
X126817904Y-58639152D01*
X126817904Y-58639152D02*
X126913142Y-58686771D01*
X126913142Y-58686771D02*
X126960761Y-58782009D01*
X126960761Y-58782009D02*
X126960761Y-58877247D01*
X126960761Y-58877247D02*
X126484571Y-58972485D01*
X127389333Y-59305819D02*
X127389333Y-58305819D01*
X127389333Y-58686771D02*
X127484571Y-58639152D01*
X127484571Y-58639152D02*
X127675047Y-58639152D01*
X127675047Y-58639152D02*
X127770285Y-58686771D01*
X127770285Y-58686771D02*
X127817904Y-58734390D01*
X127817904Y-58734390D02*
X127865523Y-58829628D01*
X127865523Y-58829628D02*
X127865523Y-59115342D01*
X127865523Y-59115342D02*
X127817904Y-59210580D01*
X127817904Y-59210580D02*
X127770285Y-59258200D01*
X127770285Y-59258200D02*
X127675047Y-59305819D01*
X127675047Y-59305819D02*
X127484571Y-59305819D01*
X127484571Y-59305819D02*
X127389333Y-59258200D01*
X128722666Y-58639152D02*
X128722666Y-59305819D01*
X128294095Y-58639152D02*
X128294095Y-59162961D01*
X128294095Y-59162961D02*
X128341714Y-59258200D01*
X128341714Y-59258200D02*
X128436952Y-59305819D01*
X128436952Y-59305819D02*
X128579809Y-59305819D01*
X128579809Y-59305819D02*
X128675047Y-59258200D01*
X128675047Y-59258200D02*
X128722666Y-59210580D01*
X129627428Y-58639152D02*
X129627428Y-59448676D01*
X129627428Y-59448676D02*
X129579809Y-59543914D01*
X129579809Y-59543914D02*
X129532190Y-59591533D01*
X129532190Y-59591533D02*
X129436952Y-59639152D01*
X129436952Y-59639152D02*
X129294095Y-59639152D01*
X129294095Y-59639152D02*
X129198857Y-59591533D01*
X129627428Y-59258200D02*
X129532190Y-59305819D01*
X129532190Y-59305819D02*
X129341714Y-59305819D01*
X129341714Y-59305819D02*
X129246476Y-59258200D01*
X129246476Y-59258200D02*
X129198857Y-59210580D01*
X129198857Y-59210580D02*
X129151238Y-59115342D01*
X129151238Y-59115342D02*
X129151238Y-58829628D01*
X129151238Y-58829628D02*
X129198857Y-58734390D01*
X129198857Y-58734390D02*
X129246476Y-58686771D01*
X129246476Y-58686771D02*
X129341714Y-58639152D01*
X129341714Y-58639152D02*
X129532190Y-58639152D01*
X129532190Y-58639152D02*
X129627428Y-58686771D01*
X130389333Y-59686771D02*
X130341714Y-59639152D01*
X130341714Y-59639152D02*
X130246476Y-59496295D01*
X130246476Y-59496295D02*
X130198857Y-59401057D01*
X130198857Y-59401057D02*
X130151238Y-59258200D01*
X130151238Y-59258200D02*
X130103619Y-59020104D01*
X130103619Y-59020104D02*
X130103619Y-58829628D01*
X130103619Y-58829628D02*
X130151238Y-58591533D01*
X130151238Y-58591533D02*
X130198857Y-58448676D01*
X130198857Y-58448676D02*
X130246476Y-58353438D01*
X130246476Y-58353438D02*
X130341714Y-58210580D01*
X130341714Y-58210580D02*
X130389333Y-58162961D01*
X130770286Y-58305819D02*
X130770286Y-59115342D01*
X130770286Y-59115342D02*
X130817905Y-59210580D01*
X130817905Y-59210580D02*
X130865524Y-59258200D01*
X130865524Y-59258200D02*
X130960762Y-59305819D01*
X130960762Y-59305819D02*
X131151238Y-59305819D01*
X131151238Y-59305819D02*
X131246476Y-59258200D01*
X131246476Y-59258200D02*
X131294095Y-59210580D01*
X131294095Y-59210580D02*
X131341714Y-59115342D01*
X131341714Y-59115342D02*
X131341714Y-58305819D01*
X131770286Y-59020104D02*
X132246476Y-59020104D01*
X131675048Y-59305819D02*
X132008381Y-58305819D01*
X132008381Y-58305819D02*
X132341714Y-59305819D01*
X133246476Y-59305819D02*
X132913143Y-58829628D01*
X132675048Y-59305819D02*
X132675048Y-58305819D01*
X132675048Y-58305819D02*
X133056000Y-58305819D01*
X133056000Y-58305819D02*
X133151238Y-58353438D01*
X133151238Y-58353438D02*
X133198857Y-58401057D01*
X133198857Y-58401057D02*
X133246476Y-58496295D01*
X133246476Y-58496295D02*
X133246476Y-58639152D01*
X133246476Y-58639152D02*
X133198857Y-58734390D01*
X133198857Y-58734390D02*
X133151238Y-58782009D01*
X133151238Y-58782009D02*
X133056000Y-58829628D01*
X133056000Y-58829628D02*
X132675048Y-58829628D01*
X133532191Y-58305819D02*
X134103619Y-58305819D01*
X133817905Y-59305819D02*
X133817905Y-58305819D01*
X134389334Y-58401057D02*
X134436953Y-58353438D01*
X134436953Y-58353438D02*
X134532191Y-58305819D01*
X134532191Y-58305819D02*
X134770286Y-58305819D01*
X134770286Y-58305819D02*
X134865524Y-58353438D01*
X134865524Y-58353438D02*
X134913143Y-58401057D01*
X134913143Y-58401057D02*
X134960762Y-58496295D01*
X134960762Y-58496295D02*
X134960762Y-58591533D01*
X134960762Y-58591533D02*
X134913143Y-58734390D01*
X134913143Y-58734390D02*
X134341715Y-59305819D01*
X134341715Y-59305819D02*
X134960762Y-59305819D01*
X135294096Y-59686771D02*
X135341715Y-59639152D01*
X135341715Y-59639152D02*
X135436953Y-59496295D01*
X135436953Y-59496295D02*
X135484572Y-59401057D01*
X135484572Y-59401057D02*
X135532191Y-59258200D01*
X135532191Y-59258200D02*
X135579810Y-59020104D01*
X135579810Y-59020104D02*
X135579810Y-58829628D01*
X135579810Y-58829628D02*
X135532191Y-58591533D01*
X135532191Y-58591533D02*
X135484572Y-58448676D01*
X135484572Y-58448676D02*
X135436953Y-58353438D01*
X135436953Y-58353438D02*
X135341715Y-58210580D01*
X135341715Y-58210580D02*
X135294096Y-58162961D01*
X88455714Y-38316819D02*
X89027142Y-38316819D01*
X88741428Y-39316819D02*
X88741428Y-38316819D01*
X89550952Y-38316819D02*
X89741428Y-38316819D01*
X89741428Y-38316819D02*
X89836666Y-38364438D01*
X89836666Y-38364438D02*
X89931904Y-38459676D01*
X89931904Y-38459676D02*
X89979523Y-38650152D01*
X89979523Y-38650152D02*
X89979523Y-38983485D01*
X89979523Y-38983485D02*
X89931904Y-39173961D01*
X89931904Y-39173961D02*
X89836666Y-39269200D01*
X89836666Y-39269200D02*
X89741428Y-39316819D01*
X89741428Y-39316819D02*
X89550952Y-39316819D01*
X89550952Y-39316819D02*
X89455714Y-39269200D01*
X89455714Y-39269200D02*
X89360476Y-39173961D01*
X89360476Y-39173961D02*
X89312857Y-38983485D01*
X89312857Y-38983485D02*
X89312857Y-38650152D01*
X89312857Y-38650152D02*
X89360476Y-38459676D01*
X89360476Y-38459676D02*
X89455714Y-38364438D01*
X89455714Y-38364438D02*
X89550952Y-38316819D01*
X90741428Y-38793009D02*
X90408095Y-38793009D01*
X90408095Y-39316819D02*
X90408095Y-38316819D01*
X90408095Y-38316819D02*
X90884285Y-38316819D01*
X91170000Y-38316819D02*
X91789047Y-38316819D01*
X91789047Y-38316819D02*
X91455714Y-38697771D01*
X91455714Y-38697771D02*
X91598571Y-38697771D01*
X91598571Y-38697771D02*
X91693809Y-38745390D01*
X91693809Y-38745390D02*
X91741428Y-38793009D01*
X91741428Y-38793009D02*
X91789047Y-38888247D01*
X91789047Y-38888247D02*
X91789047Y-39126342D01*
X91789047Y-39126342D02*
X91741428Y-39221580D01*
X91741428Y-39221580D02*
X91693809Y-39269200D01*
X91693809Y-39269200D02*
X91598571Y-39316819D01*
X91598571Y-39316819D02*
X91312857Y-39316819D01*
X91312857Y-39316819D02*
X91217619Y-39269200D01*
X91217619Y-39269200D02*
X91170000Y-39221580D01*
X76422286Y-86982875D02*
X76422286Y-85982875D01*
X76422286Y-86459065D02*
X76993714Y-86459065D01*
X76993714Y-86982875D02*
X76993714Y-85982875D01*
X75946095Y-87640438D02*
X75850857Y-87592819D01*
X75850857Y-87592819D02*
X75708000Y-87592819D01*
X75708000Y-87592819D02*
X75565143Y-87640438D01*
X75565143Y-87640438D02*
X75469905Y-87735676D01*
X75469905Y-87735676D02*
X75422286Y-87830914D01*
X75422286Y-87830914D02*
X75374667Y-88021390D01*
X75374667Y-88021390D02*
X75374667Y-88164247D01*
X75374667Y-88164247D02*
X75422286Y-88354723D01*
X75422286Y-88354723D02*
X75469905Y-88449961D01*
X75469905Y-88449961D02*
X75565143Y-88545200D01*
X75565143Y-88545200D02*
X75708000Y-88592819D01*
X75708000Y-88592819D02*
X75803238Y-88592819D01*
X75803238Y-88592819D02*
X75946095Y-88545200D01*
X75946095Y-88545200D02*
X75993714Y-88497580D01*
X75993714Y-88497580D02*
X75993714Y-88164247D01*
X75993714Y-88164247D02*
X75803238Y-88164247D01*
X76422286Y-88592819D02*
X76422286Y-87592819D01*
X76422286Y-87592819D02*
X76993714Y-88592819D01*
X76993714Y-88592819D02*
X76993714Y-87592819D01*
X77469905Y-88592819D02*
X77469905Y-87592819D01*
X77469905Y-87592819D02*
X77708000Y-87592819D01*
X77708000Y-87592819D02*
X77850857Y-87640438D01*
X77850857Y-87640438D02*
X77946095Y-87735676D01*
X77946095Y-87735676D02*
X77993714Y-87830914D01*
X77993714Y-87830914D02*
X78041333Y-88021390D01*
X78041333Y-88021390D02*
X78041333Y-88164247D01*
X78041333Y-88164247D02*
X77993714Y-88354723D01*
X77993714Y-88354723D02*
X77946095Y-88449961D01*
X77946095Y-88449961D02*
X77850857Y-88545200D01*
X77850857Y-88545200D02*
X77708000Y-88592819D01*
X77708000Y-88592819D02*
X77469905Y-88592819D01*
X77017523Y-90202763D02*
X76541333Y-90202763D01*
X76541333Y-90202763D02*
X76541333Y-89202763D01*
X104132810Y-84247819D02*
X104751857Y-84247819D01*
X104751857Y-84247819D02*
X104418524Y-84628771D01*
X104418524Y-84628771D02*
X104561381Y-84628771D01*
X104561381Y-84628771D02*
X104656619Y-84676390D01*
X104656619Y-84676390D02*
X104704238Y-84724009D01*
X104704238Y-84724009D02*
X104751857Y-84819247D01*
X104751857Y-84819247D02*
X104751857Y-85057342D01*
X104751857Y-85057342D02*
X104704238Y-85152580D01*
X104704238Y-85152580D02*
X104656619Y-85200200D01*
X104656619Y-85200200D02*
X104561381Y-85247819D01*
X104561381Y-85247819D02*
X104275667Y-85247819D01*
X104275667Y-85247819D02*
X104180429Y-85200200D01*
X104180429Y-85200200D02*
X104132810Y-85152580D01*
X105180429Y-85152580D02*
X105228048Y-85200200D01*
X105228048Y-85200200D02*
X105180429Y-85247819D01*
X105180429Y-85247819D02*
X105132810Y-85200200D01*
X105132810Y-85200200D02*
X105180429Y-85152580D01*
X105180429Y-85152580D02*
X105180429Y-85247819D01*
X105561381Y-84247819D02*
X106180428Y-84247819D01*
X106180428Y-84247819D02*
X105847095Y-84628771D01*
X105847095Y-84628771D02*
X105989952Y-84628771D01*
X105989952Y-84628771D02*
X106085190Y-84676390D01*
X106085190Y-84676390D02*
X106132809Y-84724009D01*
X106132809Y-84724009D02*
X106180428Y-84819247D01*
X106180428Y-84819247D02*
X106180428Y-85057342D01*
X106180428Y-85057342D02*
X106132809Y-85152580D01*
X106132809Y-85152580D02*
X106085190Y-85200200D01*
X106085190Y-85200200D02*
X105989952Y-85247819D01*
X105989952Y-85247819D02*
X105704238Y-85247819D01*
X105704238Y-85247819D02*
X105609000Y-85200200D01*
X105609000Y-85200200D02*
X105561381Y-85152580D01*
X106466143Y-84247819D02*
X106799476Y-85247819D01*
X106799476Y-85247819D02*
X107132809Y-84247819D01*
X72318667Y-65732819D02*
X72318667Y-64732819D01*
X72318667Y-64732819D02*
X72699619Y-64732819D01*
X72699619Y-64732819D02*
X72794857Y-64780438D01*
X72794857Y-64780438D02*
X72842476Y-64828057D01*
X72842476Y-64828057D02*
X72890095Y-64923295D01*
X72890095Y-64923295D02*
X72890095Y-65066152D01*
X72890095Y-65066152D02*
X72842476Y-65161390D01*
X72842476Y-65161390D02*
X72794857Y-65209009D01*
X72794857Y-65209009D02*
X72699619Y-65256628D01*
X72699619Y-65256628D02*
X72318667Y-65256628D01*
X73223429Y-64732819D02*
X73461524Y-65732819D01*
X73461524Y-65732819D02*
X73652000Y-65018533D01*
X73652000Y-65018533D02*
X73842476Y-65732819D01*
X73842476Y-65732819D02*
X74080572Y-64732819D01*
X97307238Y-97167819D02*
X97926285Y-97167819D01*
X97926285Y-97167819D02*
X97592952Y-97548771D01*
X97592952Y-97548771D02*
X97735809Y-97548771D01*
X97735809Y-97548771D02*
X97831047Y-97596390D01*
X97831047Y-97596390D02*
X97878666Y-97644009D01*
X97878666Y-97644009D02*
X97926285Y-97739247D01*
X97926285Y-97739247D02*
X97926285Y-97977342D01*
X97926285Y-97977342D02*
X97878666Y-98072580D01*
X97878666Y-98072580D02*
X97831047Y-98120200D01*
X97831047Y-98120200D02*
X97735809Y-98167819D01*
X97735809Y-98167819D02*
X97450095Y-98167819D01*
X97450095Y-98167819D02*
X97354857Y-98120200D01*
X97354857Y-98120200D02*
X97307238Y-98072580D01*
X98354857Y-98072580D02*
X98402476Y-98120200D01*
X98402476Y-98120200D02*
X98354857Y-98167819D01*
X98354857Y-98167819D02*
X98307238Y-98120200D01*
X98307238Y-98120200D02*
X98354857Y-98072580D01*
X98354857Y-98072580D02*
X98354857Y-98167819D01*
X98735809Y-97167819D02*
X99354856Y-97167819D01*
X99354856Y-97167819D02*
X99021523Y-97548771D01*
X99021523Y-97548771D02*
X99164380Y-97548771D01*
X99164380Y-97548771D02*
X99259618Y-97596390D01*
X99259618Y-97596390D02*
X99307237Y-97644009D01*
X99307237Y-97644009D02*
X99354856Y-97739247D01*
X99354856Y-97739247D02*
X99354856Y-97977342D01*
X99354856Y-97977342D02*
X99307237Y-98072580D01*
X99307237Y-98072580D02*
X99259618Y-98120200D01*
X99259618Y-98120200D02*
X99164380Y-98167819D01*
X99164380Y-98167819D02*
X98878666Y-98167819D01*
X98878666Y-98167819D02*
X98783428Y-98120200D01*
X98783428Y-98120200D02*
X98735809Y-98072580D01*
X101069142Y-97215438D02*
X100973904Y-97167819D01*
X100973904Y-97167819D02*
X100831047Y-97167819D01*
X100831047Y-97167819D02*
X100688190Y-97215438D01*
X100688190Y-97215438D02*
X100592952Y-97310676D01*
X100592952Y-97310676D02*
X100545333Y-97405914D01*
X100545333Y-97405914D02*
X100497714Y-97596390D01*
X100497714Y-97596390D02*
X100497714Y-97739247D01*
X100497714Y-97739247D02*
X100545333Y-97929723D01*
X100545333Y-97929723D02*
X100592952Y-98024961D01*
X100592952Y-98024961D02*
X100688190Y-98120200D01*
X100688190Y-98120200D02*
X100831047Y-98167819D01*
X100831047Y-98167819D02*
X100926285Y-98167819D01*
X100926285Y-98167819D02*
X101069142Y-98120200D01*
X101069142Y-98120200D02*
X101116761Y-98072580D01*
X101116761Y-98072580D02*
X101116761Y-97739247D01*
X101116761Y-97739247D02*
X100926285Y-97739247D01*
X101545333Y-98167819D02*
X101545333Y-97167819D01*
X101545333Y-97167819D02*
X102116761Y-98167819D01*
X102116761Y-98167819D02*
X102116761Y-97167819D01*
X102592952Y-98167819D02*
X102592952Y-97167819D01*
X102592952Y-97167819D02*
X102831047Y-97167819D01*
X102831047Y-97167819D02*
X102973904Y-97215438D01*
X102973904Y-97215438D02*
X103069142Y-97310676D01*
X103069142Y-97310676D02*
X103116761Y-97405914D01*
X103116761Y-97405914D02*
X103164380Y-97596390D01*
X103164380Y-97596390D02*
X103164380Y-97739247D01*
X103164380Y-97739247D02*
X103116761Y-97929723D01*
X103116761Y-97929723D02*
X103069142Y-98024961D01*
X103069142Y-98024961D02*
X102973904Y-98120200D01*
X102973904Y-98120200D02*
X102831047Y-98167819D01*
X102831047Y-98167819D02*
X102592952Y-98167819D01*
X104307238Y-98120200D02*
X104450095Y-98167819D01*
X104450095Y-98167819D02*
X104688190Y-98167819D01*
X104688190Y-98167819D02*
X104783428Y-98120200D01*
X104783428Y-98120200D02*
X104831047Y-98072580D01*
X104831047Y-98072580D02*
X104878666Y-97977342D01*
X104878666Y-97977342D02*
X104878666Y-97882104D01*
X104878666Y-97882104D02*
X104831047Y-97786866D01*
X104831047Y-97786866D02*
X104783428Y-97739247D01*
X104783428Y-97739247D02*
X104688190Y-97691628D01*
X104688190Y-97691628D02*
X104497714Y-97644009D01*
X104497714Y-97644009D02*
X104402476Y-97596390D01*
X104402476Y-97596390D02*
X104354857Y-97548771D01*
X104354857Y-97548771D02*
X104307238Y-97453533D01*
X104307238Y-97453533D02*
X104307238Y-97358295D01*
X104307238Y-97358295D02*
X104354857Y-97263057D01*
X104354857Y-97263057D02*
X104402476Y-97215438D01*
X104402476Y-97215438D02*
X104497714Y-97167819D01*
X104497714Y-97167819D02*
X104735809Y-97167819D01*
X104735809Y-97167819D02*
X104878666Y-97215438D01*
X105878666Y-98072580D02*
X105831047Y-98120200D01*
X105831047Y-98120200D02*
X105688190Y-98167819D01*
X105688190Y-98167819D02*
X105592952Y-98167819D01*
X105592952Y-98167819D02*
X105450095Y-98120200D01*
X105450095Y-98120200D02*
X105354857Y-98024961D01*
X105354857Y-98024961D02*
X105307238Y-97929723D01*
X105307238Y-97929723D02*
X105259619Y-97739247D01*
X105259619Y-97739247D02*
X105259619Y-97596390D01*
X105259619Y-97596390D02*
X105307238Y-97405914D01*
X105307238Y-97405914D02*
X105354857Y-97310676D01*
X105354857Y-97310676D02*
X105450095Y-97215438D01*
X105450095Y-97215438D02*
X105592952Y-97167819D01*
X105592952Y-97167819D02*
X105688190Y-97167819D01*
X105688190Y-97167819D02*
X105831047Y-97215438D01*
X105831047Y-97215438D02*
X105878666Y-97263057D01*
X106783428Y-98167819D02*
X106307238Y-98167819D01*
X106307238Y-98167819D02*
X106307238Y-97167819D01*
X107831048Y-98120200D02*
X107973905Y-98167819D01*
X107973905Y-98167819D02*
X108212000Y-98167819D01*
X108212000Y-98167819D02*
X108307238Y-98120200D01*
X108307238Y-98120200D02*
X108354857Y-98072580D01*
X108354857Y-98072580D02*
X108402476Y-97977342D01*
X108402476Y-97977342D02*
X108402476Y-97882104D01*
X108402476Y-97882104D02*
X108354857Y-97786866D01*
X108354857Y-97786866D02*
X108307238Y-97739247D01*
X108307238Y-97739247D02*
X108212000Y-97691628D01*
X108212000Y-97691628D02*
X108021524Y-97644009D01*
X108021524Y-97644009D02*
X107926286Y-97596390D01*
X107926286Y-97596390D02*
X107878667Y-97548771D01*
X107878667Y-97548771D02*
X107831048Y-97453533D01*
X107831048Y-97453533D02*
X107831048Y-97358295D01*
X107831048Y-97358295D02*
X107878667Y-97263057D01*
X107878667Y-97263057D02*
X107926286Y-97215438D01*
X107926286Y-97215438D02*
X108021524Y-97167819D01*
X108021524Y-97167819D02*
X108259619Y-97167819D01*
X108259619Y-97167819D02*
X108402476Y-97215438D01*
X108831048Y-98167819D02*
X108831048Y-97167819D01*
X108831048Y-97167819D02*
X109069143Y-97167819D01*
X109069143Y-97167819D02*
X109212000Y-97215438D01*
X109212000Y-97215438D02*
X109307238Y-97310676D01*
X109307238Y-97310676D02*
X109354857Y-97405914D01*
X109354857Y-97405914D02*
X109402476Y-97596390D01*
X109402476Y-97596390D02*
X109402476Y-97739247D01*
X109402476Y-97739247D02*
X109354857Y-97929723D01*
X109354857Y-97929723D02*
X109307238Y-98024961D01*
X109307238Y-98024961D02*
X109212000Y-98120200D01*
X109212000Y-98120200D02*
X109069143Y-98167819D01*
X109069143Y-98167819D02*
X108831048Y-98167819D01*
X109783429Y-97882104D02*
X110259619Y-97882104D01*
X109688191Y-98167819D02*
X110021524Y-97167819D01*
X110021524Y-97167819D02*
X110354857Y-98167819D01*
X111973905Y-97215438D02*
X111878667Y-97167819D01*
X111878667Y-97167819D02*
X111735810Y-97167819D01*
X111735810Y-97167819D02*
X111592953Y-97215438D01*
X111592953Y-97215438D02*
X111497715Y-97310676D01*
X111497715Y-97310676D02*
X111450096Y-97405914D01*
X111450096Y-97405914D02*
X111402477Y-97596390D01*
X111402477Y-97596390D02*
X111402477Y-97739247D01*
X111402477Y-97739247D02*
X111450096Y-97929723D01*
X111450096Y-97929723D02*
X111497715Y-98024961D01*
X111497715Y-98024961D02*
X111592953Y-98120200D01*
X111592953Y-98120200D02*
X111735810Y-98167819D01*
X111735810Y-98167819D02*
X111831048Y-98167819D01*
X111831048Y-98167819D02*
X111973905Y-98120200D01*
X111973905Y-98120200D02*
X112021524Y-98072580D01*
X112021524Y-98072580D02*
X112021524Y-97739247D01*
X112021524Y-97739247D02*
X111831048Y-97739247D01*
X112450096Y-98167819D02*
X112450096Y-97167819D01*
X112450096Y-97167819D02*
X112831048Y-97167819D01*
X112831048Y-97167819D02*
X112926286Y-97215438D01*
X112926286Y-97215438D02*
X112973905Y-97263057D01*
X112973905Y-97263057D02*
X113021524Y-97358295D01*
X113021524Y-97358295D02*
X113021524Y-97501152D01*
X113021524Y-97501152D02*
X112973905Y-97596390D01*
X112973905Y-97596390D02*
X112926286Y-97644009D01*
X112926286Y-97644009D02*
X112831048Y-97691628D01*
X112831048Y-97691628D02*
X112450096Y-97691628D01*
X113450096Y-98167819D02*
X113450096Y-97167819D01*
X114116762Y-97167819D02*
X114307238Y-97167819D01*
X114307238Y-97167819D02*
X114402476Y-97215438D01*
X114402476Y-97215438D02*
X114497714Y-97310676D01*
X114497714Y-97310676D02*
X114545333Y-97501152D01*
X114545333Y-97501152D02*
X114545333Y-97834485D01*
X114545333Y-97834485D02*
X114497714Y-98024961D01*
X114497714Y-98024961D02*
X114402476Y-98120200D01*
X114402476Y-98120200D02*
X114307238Y-98167819D01*
X114307238Y-98167819D02*
X114116762Y-98167819D01*
X114116762Y-98167819D02*
X114021524Y-98120200D01*
X114021524Y-98120200D02*
X113926286Y-98024961D01*
X113926286Y-98024961D02*
X113878667Y-97834485D01*
X113878667Y-97834485D02*
X113878667Y-97501152D01*
X113878667Y-97501152D02*
X113926286Y-97310676D01*
X113926286Y-97310676D02*
X114021524Y-97215438D01*
X114021524Y-97215438D02*
X114116762Y-97167819D01*
X115640572Y-97167819D02*
X116307238Y-98167819D01*
X116307238Y-97167819D02*
X115640572Y-98167819D01*
X116640572Y-98120200D02*
X116783429Y-98167819D01*
X116783429Y-98167819D02*
X117021524Y-98167819D01*
X117021524Y-98167819D02*
X117116762Y-98120200D01*
X117116762Y-98120200D02*
X117164381Y-98072580D01*
X117164381Y-98072580D02*
X117212000Y-97977342D01*
X117212000Y-97977342D02*
X117212000Y-97882104D01*
X117212000Y-97882104D02*
X117164381Y-97786866D01*
X117164381Y-97786866D02*
X117116762Y-97739247D01*
X117116762Y-97739247D02*
X117021524Y-97691628D01*
X117021524Y-97691628D02*
X116831048Y-97644009D01*
X116831048Y-97644009D02*
X116735810Y-97596390D01*
X116735810Y-97596390D02*
X116688191Y-97548771D01*
X116688191Y-97548771D02*
X116640572Y-97453533D01*
X116640572Y-97453533D02*
X116640572Y-97358295D01*
X116640572Y-97358295D02*
X116688191Y-97263057D01*
X116688191Y-97263057D02*
X116735810Y-97215438D01*
X116735810Y-97215438D02*
X116831048Y-97167819D01*
X116831048Y-97167819D02*
X117069143Y-97167819D01*
X117069143Y-97167819D02*
X117212000Y-97215438D01*
X117640572Y-98167819D02*
X117640572Y-97167819D01*
X117640572Y-97644009D02*
X118212000Y-97644009D01*
X118212000Y-98167819D02*
X118212000Y-97167819D01*
X118688191Y-97167819D02*
X118688191Y-97977342D01*
X118688191Y-97977342D02*
X118735810Y-98072580D01*
X118735810Y-98072580D02*
X118783429Y-98120200D01*
X118783429Y-98120200D02*
X118878667Y-98167819D01*
X118878667Y-98167819D02*
X119069143Y-98167819D01*
X119069143Y-98167819D02*
X119164381Y-98120200D01*
X119164381Y-98120200D02*
X119212000Y-98072580D01*
X119212000Y-98072580D02*
X119259619Y-97977342D01*
X119259619Y-97977342D02*
X119259619Y-97167819D01*
X119592953Y-97167819D02*
X120164381Y-97167819D01*
X119878667Y-98167819D02*
X119878667Y-97167819D01*
X94861142Y-39475580D02*
X94813523Y-39523200D01*
X94813523Y-39523200D02*
X94670666Y-39570819D01*
X94670666Y-39570819D02*
X94575428Y-39570819D01*
X94575428Y-39570819D02*
X94432571Y-39523200D01*
X94432571Y-39523200D02*
X94337333Y-39427961D01*
X94337333Y-39427961D02*
X94289714Y-39332723D01*
X94289714Y-39332723D02*
X94242095Y-39142247D01*
X94242095Y-39142247D02*
X94242095Y-38999390D01*
X94242095Y-38999390D02*
X94289714Y-38808914D01*
X94289714Y-38808914D02*
X94337333Y-38713676D01*
X94337333Y-38713676D02*
X94432571Y-38618438D01*
X94432571Y-38618438D02*
X94575428Y-38570819D01*
X94575428Y-38570819D02*
X94670666Y-38570819D01*
X94670666Y-38570819D02*
X94813523Y-38618438D01*
X94813523Y-38618438D02*
X94861142Y-38666057D01*
X95194476Y-38570819D02*
X95813523Y-38570819D01*
X95813523Y-38570819D02*
X95480190Y-38951771D01*
X95480190Y-38951771D02*
X95623047Y-38951771D01*
X95623047Y-38951771D02*
X95718285Y-38999390D01*
X95718285Y-38999390D02*
X95765904Y-39047009D01*
X95765904Y-39047009D02*
X95813523Y-39142247D01*
X95813523Y-39142247D02*
X95813523Y-39380342D01*
X95813523Y-39380342D02*
X95765904Y-39475580D01*
X95765904Y-39475580D02*
X95718285Y-39523200D01*
X95718285Y-39523200D02*
X95623047Y-39570819D01*
X95623047Y-39570819D02*
X95337333Y-39570819D01*
X95337333Y-39570819D02*
X95242095Y-39523200D01*
X95242095Y-39523200D02*
X95194476Y-39475580D01*
X96670666Y-38904152D02*
X96670666Y-39570819D01*
X96432571Y-38523200D02*
X96194476Y-39237485D01*
X96194476Y-39237485D02*
X96813523Y-39237485D01*
X72342476Y-69558819D02*
X72342476Y-70273104D01*
X72342476Y-70273104D02*
X72294857Y-70415961D01*
X72294857Y-70415961D02*
X72199619Y-70511200D01*
X72199619Y-70511200D02*
X72056762Y-70558819D01*
X72056762Y-70558819D02*
X71961524Y-70558819D01*
X73342476Y-70558819D02*
X72771048Y-70558819D01*
X73056762Y-70558819D02*
X73056762Y-69558819D01*
X73056762Y-69558819D02*
X72961524Y-69701676D01*
X72961524Y-69701676D02*
X72866286Y-69796914D01*
X72866286Y-69796914D02*
X72771048Y-69844533D01*
X73961524Y-69558819D02*
X74056762Y-69558819D01*
X74056762Y-69558819D02*
X74152000Y-69606438D01*
X74152000Y-69606438D02*
X74199619Y-69654057D01*
X74199619Y-69654057D02*
X74247238Y-69749295D01*
X74247238Y-69749295D02*
X74294857Y-69939771D01*
X74294857Y-69939771D02*
X74294857Y-70177866D01*
X74294857Y-70177866D02*
X74247238Y-70368342D01*
X74247238Y-70368342D02*
X74199619Y-70463580D01*
X74199619Y-70463580D02*
X74152000Y-70511200D01*
X74152000Y-70511200D02*
X74056762Y-70558819D01*
X74056762Y-70558819D02*
X73961524Y-70558819D01*
X73961524Y-70558819D02*
X73866286Y-70511200D01*
X73866286Y-70511200D02*
X73818667Y-70463580D01*
X73818667Y-70463580D02*
X73771048Y-70368342D01*
X73771048Y-70368342D02*
X73723429Y-70177866D01*
X73723429Y-70177866D02*
X73723429Y-69939771D01*
X73723429Y-69939771D02*
X73771048Y-69749295D01*
X73771048Y-69749295D02*
X73818667Y-69654057D01*
X73818667Y-69654057D02*
X73866286Y-69606438D01*
X73866286Y-69606438D02*
X73961524Y-69558819D01*
X88666666Y-104804819D02*
X88666666Y-105519104D01*
X88666666Y-105519104D02*
X88619047Y-105661961D01*
X88619047Y-105661961D02*
X88523809Y-105757200D01*
X88523809Y-105757200D02*
X88380952Y-105804819D01*
X88380952Y-105804819D02*
X88285714Y-105804819D01*
X89571428Y-105138152D02*
X89571428Y-105804819D01*
X89333333Y-104757200D02*
X89095238Y-105471485D01*
X89095238Y-105471485D02*
X89714285Y-105471485D01*
X115689142Y-79861580D02*
X115641523Y-79909200D01*
X115641523Y-79909200D02*
X115498666Y-79956819D01*
X115498666Y-79956819D02*
X115403428Y-79956819D01*
X115403428Y-79956819D02*
X115260571Y-79909200D01*
X115260571Y-79909200D02*
X115165333Y-79813961D01*
X115165333Y-79813961D02*
X115117714Y-79718723D01*
X115117714Y-79718723D02*
X115070095Y-79528247D01*
X115070095Y-79528247D02*
X115070095Y-79385390D01*
X115070095Y-79385390D02*
X115117714Y-79194914D01*
X115117714Y-79194914D02*
X115165333Y-79099676D01*
X115165333Y-79099676D02*
X115260571Y-79004438D01*
X115260571Y-79004438D02*
X115403428Y-78956819D01*
X115403428Y-78956819D02*
X115498666Y-78956819D01*
X115498666Y-78956819D02*
X115641523Y-79004438D01*
X115641523Y-79004438D02*
X115689142Y-79052057D01*
X116070095Y-79052057D02*
X116117714Y-79004438D01*
X116117714Y-79004438D02*
X116212952Y-78956819D01*
X116212952Y-78956819D02*
X116451047Y-78956819D01*
X116451047Y-78956819D02*
X116546285Y-79004438D01*
X116546285Y-79004438D02*
X116593904Y-79052057D01*
X116593904Y-79052057D02*
X116641523Y-79147295D01*
X116641523Y-79147295D02*
X116641523Y-79242533D01*
X116641523Y-79242533D02*
X116593904Y-79385390D01*
X116593904Y-79385390D02*
X116022476Y-79956819D01*
X116022476Y-79956819D02*
X116641523Y-79956819D01*
X116974857Y-78956819D02*
X117641523Y-78956819D01*
X117641523Y-78956819D02*
X117212952Y-79956819D01*
X101763642Y-67609580D02*
X101716023Y-67657200D01*
X101716023Y-67657200D02*
X101573166Y-67704819D01*
X101573166Y-67704819D02*
X101477928Y-67704819D01*
X101477928Y-67704819D02*
X101335071Y-67657200D01*
X101335071Y-67657200D02*
X101239833Y-67561961D01*
X101239833Y-67561961D02*
X101192214Y-67466723D01*
X101192214Y-67466723D02*
X101144595Y-67276247D01*
X101144595Y-67276247D02*
X101144595Y-67133390D01*
X101144595Y-67133390D02*
X101192214Y-66942914D01*
X101192214Y-66942914D02*
X101239833Y-66847676D01*
X101239833Y-66847676D02*
X101335071Y-66752438D01*
X101335071Y-66752438D02*
X101477928Y-66704819D01*
X101477928Y-66704819D02*
X101573166Y-66704819D01*
X101573166Y-66704819D02*
X101716023Y-66752438D01*
X101716023Y-66752438D02*
X101763642Y-66800057D01*
X102144595Y-66800057D02*
X102192214Y-66752438D01*
X102192214Y-66752438D02*
X102287452Y-66704819D01*
X102287452Y-66704819D02*
X102525547Y-66704819D01*
X102525547Y-66704819D02*
X102620785Y-66752438D01*
X102620785Y-66752438D02*
X102668404Y-66800057D01*
X102668404Y-66800057D02*
X102716023Y-66895295D01*
X102716023Y-66895295D02*
X102716023Y-66990533D01*
X102716023Y-66990533D02*
X102668404Y-67133390D01*
X102668404Y-67133390D02*
X102096976Y-67704819D01*
X102096976Y-67704819D02*
X102716023Y-67704819D01*
X103620785Y-66704819D02*
X103144595Y-66704819D01*
X103144595Y-66704819D02*
X103096976Y-67181009D01*
X103096976Y-67181009D02*
X103144595Y-67133390D01*
X103144595Y-67133390D02*
X103239833Y-67085771D01*
X103239833Y-67085771D02*
X103477928Y-67085771D01*
X103477928Y-67085771D02*
X103573166Y-67133390D01*
X103573166Y-67133390D02*
X103620785Y-67181009D01*
X103620785Y-67181009D02*
X103668404Y-67276247D01*
X103668404Y-67276247D02*
X103668404Y-67514342D01*
X103668404Y-67514342D02*
X103620785Y-67609580D01*
X103620785Y-67609580D02*
X103573166Y-67657200D01*
X103573166Y-67657200D02*
X103477928Y-67704819D01*
X103477928Y-67704819D02*
X103239833Y-67704819D01*
X103239833Y-67704819D02*
X103144595Y-67657200D01*
X103144595Y-67657200D02*
X103096976Y-67609580D01*
X136469905Y-76742819D02*
X136469905Y-75742819D01*
X136469905Y-75742819D02*
X136708000Y-75742819D01*
X136708000Y-75742819D02*
X136850857Y-75790438D01*
X136850857Y-75790438D02*
X136946095Y-75885676D01*
X136946095Y-75885676D02*
X136993714Y-75980914D01*
X136993714Y-75980914D02*
X137041333Y-76171390D01*
X137041333Y-76171390D02*
X137041333Y-76314247D01*
X137041333Y-76314247D02*
X136993714Y-76504723D01*
X136993714Y-76504723D02*
X136946095Y-76599961D01*
X136946095Y-76599961D02*
X136850857Y-76695200D01*
X136850857Y-76695200D02*
X136708000Y-76742819D01*
X136708000Y-76742819D02*
X136469905Y-76742819D01*
X137374667Y-75742819D02*
X137993714Y-75742819D01*
X137993714Y-75742819D02*
X137660381Y-76123771D01*
X137660381Y-76123771D02*
X137803238Y-76123771D01*
X137803238Y-76123771D02*
X137898476Y-76171390D01*
X137898476Y-76171390D02*
X137946095Y-76219009D01*
X137946095Y-76219009D02*
X137993714Y-76314247D01*
X137993714Y-76314247D02*
X137993714Y-76552342D01*
X137993714Y-76552342D02*
X137946095Y-76647580D01*
X137946095Y-76647580D02*
X137898476Y-76695200D01*
X137898476Y-76695200D02*
X137803238Y-76742819D01*
X137803238Y-76742819D02*
X137517524Y-76742819D01*
X137517524Y-76742819D02*
X137422286Y-76695200D01*
X137422286Y-76695200D02*
X137374667Y-76647580D01*
X142065142Y-83892819D02*
X141731809Y-83416628D01*
X141493714Y-83892819D02*
X141493714Y-82892819D01*
X141493714Y-82892819D02*
X141874666Y-82892819D01*
X141874666Y-82892819D02*
X141969904Y-82940438D01*
X141969904Y-82940438D02*
X142017523Y-82988057D01*
X142017523Y-82988057D02*
X142065142Y-83083295D01*
X142065142Y-83083295D02*
X142065142Y-83226152D01*
X142065142Y-83226152D02*
X142017523Y-83321390D01*
X142017523Y-83321390D02*
X141969904Y-83369009D01*
X141969904Y-83369009D02*
X141874666Y-83416628D01*
X141874666Y-83416628D02*
X141493714Y-83416628D01*
X142446095Y-82988057D02*
X142493714Y-82940438D01*
X142493714Y-82940438D02*
X142588952Y-82892819D01*
X142588952Y-82892819D02*
X142827047Y-82892819D01*
X142827047Y-82892819D02*
X142922285Y-82940438D01*
X142922285Y-82940438D02*
X142969904Y-82988057D01*
X142969904Y-82988057D02*
X143017523Y-83083295D01*
X143017523Y-83083295D02*
X143017523Y-83178533D01*
X143017523Y-83178533D02*
X142969904Y-83321390D01*
X142969904Y-83321390D02*
X142398476Y-83892819D01*
X142398476Y-83892819D02*
X143017523Y-83892819D01*
X143969904Y-83892819D02*
X143398476Y-83892819D01*
X143684190Y-83892819D02*
X143684190Y-82892819D01*
X143684190Y-82892819D02*
X143588952Y-83035676D01*
X143588952Y-83035676D02*
X143493714Y-83130914D01*
X143493714Y-83130914D02*
X143398476Y-83178533D01*
X110142666Y-36498819D02*
X110142666Y-37213104D01*
X110142666Y-37213104D02*
X110095047Y-37355961D01*
X110095047Y-37355961D02*
X109999809Y-37451200D01*
X109999809Y-37451200D02*
X109856952Y-37498819D01*
X109856952Y-37498819D02*
X109761714Y-37498819D01*
X110571238Y-36594057D02*
X110618857Y-36546438D01*
X110618857Y-36546438D02*
X110714095Y-36498819D01*
X110714095Y-36498819D02*
X110952190Y-36498819D01*
X110952190Y-36498819D02*
X111047428Y-36546438D01*
X111047428Y-36546438D02*
X111095047Y-36594057D01*
X111095047Y-36594057D02*
X111142666Y-36689295D01*
X111142666Y-36689295D02*
X111142666Y-36784533D01*
X111142666Y-36784533D02*
X111095047Y-36927390D01*
X111095047Y-36927390D02*
X110523619Y-37498819D01*
X110523619Y-37498819D02*
X111142666Y-37498819D01*
X105021142Y-102975580D02*
X104973523Y-103023200D01*
X104973523Y-103023200D02*
X104830666Y-103070819D01*
X104830666Y-103070819D02*
X104735428Y-103070819D01*
X104735428Y-103070819D02*
X104592571Y-103023200D01*
X104592571Y-103023200D02*
X104497333Y-102927961D01*
X104497333Y-102927961D02*
X104449714Y-102832723D01*
X104449714Y-102832723D02*
X104402095Y-102642247D01*
X104402095Y-102642247D02*
X104402095Y-102499390D01*
X104402095Y-102499390D02*
X104449714Y-102308914D01*
X104449714Y-102308914D02*
X104497333Y-102213676D01*
X104497333Y-102213676D02*
X104592571Y-102118438D01*
X104592571Y-102118438D02*
X104735428Y-102070819D01*
X104735428Y-102070819D02*
X104830666Y-102070819D01*
X104830666Y-102070819D02*
X104973523Y-102118438D01*
X104973523Y-102118438D02*
X105021142Y-102166057D01*
X105354476Y-102070819D02*
X105973523Y-102070819D01*
X105973523Y-102070819D02*
X105640190Y-102451771D01*
X105640190Y-102451771D02*
X105783047Y-102451771D01*
X105783047Y-102451771D02*
X105878285Y-102499390D01*
X105878285Y-102499390D02*
X105925904Y-102547009D01*
X105925904Y-102547009D02*
X105973523Y-102642247D01*
X105973523Y-102642247D02*
X105973523Y-102880342D01*
X105973523Y-102880342D02*
X105925904Y-102975580D01*
X105925904Y-102975580D02*
X105878285Y-103023200D01*
X105878285Y-103023200D02*
X105783047Y-103070819D01*
X105783047Y-103070819D02*
X105497333Y-103070819D01*
X105497333Y-103070819D02*
X105402095Y-103023200D01*
X105402095Y-103023200D02*
X105354476Y-102975580D01*
X106449714Y-103070819D02*
X106640190Y-103070819D01*
X106640190Y-103070819D02*
X106735428Y-103023200D01*
X106735428Y-103023200D02*
X106783047Y-102975580D01*
X106783047Y-102975580D02*
X106878285Y-102832723D01*
X106878285Y-102832723D02*
X106925904Y-102642247D01*
X106925904Y-102642247D02*
X106925904Y-102261295D01*
X106925904Y-102261295D02*
X106878285Y-102166057D01*
X106878285Y-102166057D02*
X106830666Y-102118438D01*
X106830666Y-102118438D02*
X106735428Y-102070819D01*
X106735428Y-102070819D02*
X106544952Y-102070819D01*
X106544952Y-102070819D02*
X106449714Y-102118438D01*
X106449714Y-102118438D02*
X106402095Y-102166057D01*
X106402095Y-102166057D02*
X106354476Y-102261295D01*
X106354476Y-102261295D02*
X106354476Y-102499390D01*
X106354476Y-102499390D02*
X106402095Y-102594628D01*
X106402095Y-102594628D02*
X106449714Y-102642247D01*
X106449714Y-102642247D02*
X106544952Y-102689866D01*
X106544952Y-102689866D02*
X106735428Y-102689866D01*
X106735428Y-102689866D02*
X106830666Y-102642247D01*
X106830666Y-102642247D02*
X106878285Y-102594628D01*
X106878285Y-102594628D02*
X106925904Y-102499390D01*
X107263642Y-57811580D02*
X107216023Y-57859200D01*
X107216023Y-57859200D02*
X107073166Y-57906819D01*
X107073166Y-57906819D02*
X106977928Y-57906819D01*
X106977928Y-57906819D02*
X106835071Y-57859200D01*
X106835071Y-57859200D02*
X106739833Y-57763961D01*
X106739833Y-57763961D02*
X106692214Y-57668723D01*
X106692214Y-57668723D02*
X106644595Y-57478247D01*
X106644595Y-57478247D02*
X106644595Y-57335390D01*
X106644595Y-57335390D02*
X106692214Y-57144914D01*
X106692214Y-57144914D02*
X106739833Y-57049676D01*
X106739833Y-57049676D02*
X106835071Y-56954438D01*
X106835071Y-56954438D02*
X106977928Y-56906819D01*
X106977928Y-56906819D02*
X107073166Y-56906819D01*
X107073166Y-56906819D02*
X107216023Y-56954438D01*
X107216023Y-56954438D02*
X107263642Y-57002057D01*
X107596976Y-56906819D02*
X108216023Y-56906819D01*
X108216023Y-56906819D02*
X107882690Y-57287771D01*
X107882690Y-57287771D02*
X108025547Y-57287771D01*
X108025547Y-57287771D02*
X108120785Y-57335390D01*
X108120785Y-57335390D02*
X108168404Y-57383009D01*
X108168404Y-57383009D02*
X108216023Y-57478247D01*
X108216023Y-57478247D02*
X108216023Y-57716342D01*
X108216023Y-57716342D02*
X108168404Y-57811580D01*
X108168404Y-57811580D02*
X108120785Y-57859200D01*
X108120785Y-57859200D02*
X108025547Y-57906819D01*
X108025547Y-57906819D02*
X107739833Y-57906819D01*
X107739833Y-57906819D02*
X107644595Y-57859200D01*
X107644595Y-57859200D02*
X107596976Y-57811580D01*
X109168404Y-57906819D02*
X108596976Y-57906819D01*
X108882690Y-57906819D02*
X108882690Y-56906819D01*
X108882690Y-56906819D02*
X108787452Y-57049676D01*
X108787452Y-57049676D02*
X108692214Y-57144914D01*
X108692214Y-57144914D02*
X108596976Y-57192533D01*
X76183333Y-63259580D02*
X76135714Y-63307200D01*
X76135714Y-63307200D02*
X75992857Y-63354819D01*
X75992857Y-63354819D02*
X75897619Y-63354819D01*
X75897619Y-63354819D02*
X75754762Y-63307200D01*
X75754762Y-63307200D02*
X75659524Y-63211961D01*
X75659524Y-63211961D02*
X75611905Y-63116723D01*
X75611905Y-63116723D02*
X75564286Y-62926247D01*
X75564286Y-62926247D02*
X75564286Y-62783390D01*
X75564286Y-62783390D02*
X75611905Y-62592914D01*
X75611905Y-62592914D02*
X75659524Y-62497676D01*
X75659524Y-62497676D02*
X75754762Y-62402438D01*
X75754762Y-62402438D02*
X75897619Y-62354819D01*
X75897619Y-62354819D02*
X75992857Y-62354819D01*
X75992857Y-62354819D02*
X76135714Y-62402438D01*
X76135714Y-62402438D02*
X76183333Y-62450057D01*
X77135714Y-63354819D02*
X76564286Y-63354819D01*
X76850000Y-63354819D02*
X76850000Y-62354819D01*
X76850000Y-62354819D02*
X76754762Y-62497676D01*
X76754762Y-62497676D02*
X76659524Y-62592914D01*
X76659524Y-62592914D02*
X76564286Y-62640533D01*
X77422476Y-83274819D02*
X77422476Y-83989104D01*
X77422476Y-83989104D02*
X77374857Y-84131961D01*
X77374857Y-84131961D02*
X77279619Y-84227200D01*
X77279619Y-84227200D02*
X77136762Y-84274819D01*
X77136762Y-84274819D02*
X77041524Y-84274819D01*
X78422476Y-84274819D02*
X77851048Y-84274819D01*
X78136762Y-84274819D02*
X78136762Y-83274819D01*
X78136762Y-83274819D02*
X78041524Y-83417676D01*
X78041524Y-83417676D02*
X77946286Y-83512914D01*
X77946286Y-83512914D02*
X77851048Y-83560533D01*
X78803429Y-83370057D02*
X78851048Y-83322438D01*
X78851048Y-83322438D02*
X78946286Y-83274819D01*
X78946286Y-83274819D02*
X79184381Y-83274819D01*
X79184381Y-83274819D02*
X79279619Y-83322438D01*
X79279619Y-83322438D02*
X79327238Y-83370057D01*
X79327238Y-83370057D02*
X79374857Y-83465295D01*
X79374857Y-83465295D02*
X79374857Y-83560533D01*
X79374857Y-83560533D02*
X79327238Y-83703390D01*
X79327238Y-83703390D02*
X78755810Y-84274819D01*
X78755810Y-84274819D02*
X79374857Y-84274819D01*
X122547142Y-64367580D02*
X122499523Y-64415200D01*
X122499523Y-64415200D02*
X122356666Y-64462819D01*
X122356666Y-64462819D02*
X122261428Y-64462819D01*
X122261428Y-64462819D02*
X122118571Y-64415200D01*
X122118571Y-64415200D02*
X122023333Y-64319961D01*
X122023333Y-64319961D02*
X121975714Y-64224723D01*
X121975714Y-64224723D02*
X121928095Y-64034247D01*
X121928095Y-64034247D02*
X121928095Y-63891390D01*
X121928095Y-63891390D02*
X121975714Y-63700914D01*
X121975714Y-63700914D02*
X122023333Y-63605676D01*
X122023333Y-63605676D02*
X122118571Y-63510438D01*
X122118571Y-63510438D02*
X122261428Y-63462819D01*
X122261428Y-63462819D02*
X122356666Y-63462819D01*
X122356666Y-63462819D02*
X122499523Y-63510438D01*
X122499523Y-63510438D02*
X122547142Y-63558057D01*
X122880476Y-63462819D02*
X123499523Y-63462819D01*
X123499523Y-63462819D02*
X123166190Y-63843771D01*
X123166190Y-63843771D02*
X123309047Y-63843771D01*
X123309047Y-63843771D02*
X123404285Y-63891390D01*
X123404285Y-63891390D02*
X123451904Y-63939009D01*
X123451904Y-63939009D02*
X123499523Y-64034247D01*
X123499523Y-64034247D02*
X123499523Y-64272342D01*
X123499523Y-64272342D02*
X123451904Y-64367580D01*
X123451904Y-64367580D02*
X123404285Y-64415200D01*
X123404285Y-64415200D02*
X123309047Y-64462819D01*
X123309047Y-64462819D02*
X123023333Y-64462819D01*
X123023333Y-64462819D02*
X122928095Y-64415200D01*
X122928095Y-64415200D02*
X122880476Y-64367580D01*
X123832857Y-63462819D02*
X124451904Y-63462819D01*
X124451904Y-63462819D02*
X124118571Y-63843771D01*
X124118571Y-63843771D02*
X124261428Y-63843771D01*
X124261428Y-63843771D02*
X124356666Y-63891390D01*
X124356666Y-63891390D02*
X124404285Y-63939009D01*
X124404285Y-63939009D02*
X124451904Y-64034247D01*
X124451904Y-64034247D02*
X124451904Y-64272342D01*
X124451904Y-64272342D02*
X124404285Y-64367580D01*
X124404285Y-64367580D02*
X124356666Y-64415200D01*
X124356666Y-64415200D02*
X124261428Y-64462819D01*
X124261428Y-64462819D02*
X123975714Y-64462819D01*
X123975714Y-64462819D02*
X123880476Y-64415200D01*
X123880476Y-64415200D02*
X123832857Y-64367580D01*
X136826666Y-69558819D02*
X136826666Y-70273104D01*
X136826666Y-70273104D02*
X136779047Y-70415961D01*
X136779047Y-70415961D02*
X136683809Y-70511200D01*
X136683809Y-70511200D02*
X136540952Y-70558819D01*
X136540952Y-70558819D02*
X136445714Y-70558819D01*
X137350476Y-70558819D02*
X137540952Y-70558819D01*
X137540952Y-70558819D02*
X137636190Y-70511200D01*
X137636190Y-70511200D02*
X137683809Y-70463580D01*
X137683809Y-70463580D02*
X137779047Y-70320723D01*
X137779047Y-70320723D02*
X137826666Y-70130247D01*
X137826666Y-70130247D02*
X137826666Y-69749295D01*
X137826666Y-69749295D02*
X137779047Y-69654057D01*
X137779047Y-69654057D02*
X137731428Y-69606438D01*
X137731428Y-69606438D02*
X137636190Y-69558819D01*
X137636190Y-69558819D02*
X137445714Y-69558819D01*
X137445714Y-69558819D02*
X137350476Y-69606438D01*
X137350476Y-69606438D02*
X137302857Y-69654057D01*
X137302857Y-69654057D02*
X137255238Y-69749295D01*
X137255238Y-69749295D02*
X137255238Y-69987390D01*
X137255238Y-69987390D02*
X137302857Y-70082628D01*
X137302857Y-70082628D02*
X137350476Y-70130247D01*
X137350476Y-70130247D02*
X137445714Y-70177866D01*
X137445714Y-70177866D02*
X137636190Y-70177866D01*
X137636190Y-70177866D02*
X137731428Y-70130247D01*
X137731428Y-70130247D02*
X137779047Y-70082628D01*
X137779047Y-70082628D02*
X137826666Y-69987390D01*
X72596476Y-50762819D02*
X72596476Y-51477104D01*
X72596476Y-51477104D02*
X72548857Y-51619961D01*
X72548857Y-51619961D02*
X72453619Y-51715200D01*
X72453619Y-51715200D02*
X72310762Y-51762819D01*
X72310762Y-51762819D02*
X72215524Y-51762819D01*
X73596476Y-51762819D02*
X73025048Y-51762819D01*
X73310762Y-51762819D02*
X73310762Y-50762819D01*
X73310762Y-50762819D02*
X73215524Y-50905676D01*
X73215524Y-50905676D02*
X73120286Y-51000914D01*
X73120286Y-51000914D02*
X73025048Y-51048533D01*
X74548857Y-51762819D02*
X73977429Y-51762819D01*
X74263143Y-51762819D02*
X74263143Y-50762819D01*
X74263143Y-50762819D02*
X74167905Y-50905676D01*
X74167905Y-50905676D02*
X74072667Y-51000914D01*
X74072667Y-51000914D02*
X73977429Y-51048533D01*
X124745809Y-71098628D02*
X124745809Y-71574819D01*
X124412476Y-70574819D02*
X124745809Y-71098628D01*
X124745809Y-71098628D02*
X125079142Y-70574819D01*
X125936285Y-71574819D02*
X125364857Y-71574819D01*
X125650571Y-71574819D02*
X125650571Y-70574819D01*
X125650571Y-70574819D02*
X125555333Y-70717676D01*
X125555333Y-70717676D02*
X125460095Y-70812914D01*
X125460095Y-70812914D02*
X125364857Y-70860533D01*
X117213142Y-76305580D02*
X117165523Y-76353200D01*
X117165523Y-76353200D02*
X117022666Y-76400819D01*
X117022666Y-76400819D02*
X116927428Y-76400819D01*
X116927428Y-76400819D02*
X116784571Y-76353200D01*
X116784571Y-76353200D02*
X116689333Y-76257961D01*
X116689333Y-76257961D02*
X116641714Y-76162723D01*
X116641714Y-76162723D02*
X116594095Y-75972247D01*
X116594095Y-75972247D02*
X116594095Y-75829390D01*
X116594095Y-75829390D02*
X116641714Y-75638914D01*
X116641714Y-75638914D02*
X116689333Y-75543676D01*
X116689333Y-75543676D02*
X116784571Y-75448438D01*
X116784571Y-75448438D02*
X116927428Y-75400819D01*
X116927428Y-75400819D02*
X117022666Y-75400819D01*
X117022666Y-75400819D02*
X117165523Y-75448438D01*
X117165523Y-75448438D02*
X117213142Y-75496057D01*
X118070285Y-75734152D02*
X118070285Y-76400819D01*
X117832190Y-75353200D02*
X117594095Y-76067485D01*
X117594095Y-76067485D02*
X118213142Y-76067485D01*
X118546476Y-75496057D02*
X118594095Y-75448438D01*
X118594095Y-75448438D02*
X118689333Y-75400819D01*
X118689333Y-75400819D02*
X118927428Y-75400819D01*
X118927428Y-75400819D02*
X119022666Y-75448438D01*
X119022666Y-75448438D02*
X119070285Y-75496057D01*
X119070285Y-75496057D02*
X119117904Y-75591295D01*
X119117904Y-75591295D02*
X119117904Y-75686533D01*
X119117904Y-75686533D02*
X119070285Y-75829390D01*
X119070285Y-75829390D02*
X118498857Y-76400819D01*
X118498857Y-76400819D02*
X119117904Y-76400819D01*
X120007142Y-68685580D02*
X119959523Y-68733200D01*
X119959523Y-68733200D02*
X119816666Y-68780819D01*
X119816666Y-68780819D02*
X119721428Y-68780819D01*
X119721428Y-68780819D02*
X119578571Y-68733200D01*
X119578571Y-68733200D02*
X119483333Y-68637961D01*
X119483333Y-68637961D02*
X119435714Y-68542723D01*
X119435714Y-68542723D02*
X119388095Y-68352247D01*
X119388095Y-68352247D02*
X119388095Y-68209390D01*
X119388095Y-68209390D02*
X119435714Y-68018914D01*
X119435714Y-68018914D02*
X119483333Y-67923676D01*
X119483333Y-67923676D02*
X119578571Y-67828438D01*
X119578571Y-67828438D02*
X119721428Y-67780819D01*
X119721428Y-67780819D02*
X119816666Y-67780819D01*
X119816666Y-67780819D02*
X119959523Y-67828438D01*
X119959523Y-67828438D02*
X120007142Y-67876057D01*
X120864285Y-68114152D02*
X120864285Y-68780819D01*
X120626190Y-67733200D02*
X120388095Y-68447485D01*
X120388095Y-68447485D02*
X121007142Y-68447485D01*
X121911904Y-68780819D02*
X121340476Y-68780819D01*
X121626190Y-68780819D02*
X121626190Y-67780819D01*
X121626190Y-67780819D02*
X121530952Y-67923676D01*
X121530952Y-67923676D02*
X121435714Y-68018914D01*
X121435714Y-68018914D02*
X121340476Y-68066533D01*
X103763642Y-62241580D02*
X103716023Y-62289200D01*
X103716023Y-62289200D02*
X103573166Y-62336819D01*
X103573166Y-62336819D02*
X103477928Y-62336819D01*
X103477928Y-62336819D02*
X103335071Y-62289200D01*
X103335071Y-62289200D02*
X103239833Y-62193961D01*
X103239833Y-62193961D02*
X103192214Y-62098723D01*
X103192214Y-62098723D02*
X103144595Y-61908247D01*
X103144595Y-61908247D02*
X103144595Y-61765390D01*
X103144595Y-61765390D02*
X103192214Y-61574914D01*
X103192214Y-61574914D02*
X103239833Y-61479676D01*
X103239833Y-61479676D02*
X103335071Y-61384438D01*
X103335071Y-61384438D02*
X103477928Y-61336819D01*
X103477928Y-61336819D02*
X103573166Y-61336819D01*
X103573166Y-61336819D02*
X103716023Y-61384438D01*
X103716023Y-61384438D02*
X103763642Y-61432057D01*
X104144595Y-61432057D02*
X104192214Y-61384438D01*
X104192214Y-61384438D02*
X104287452Y-61336819D01*
X104287452Y-61336819D02*
X104525547Y-61336819D01*
X104525547Y-61336819D02*
X104620785Y-61384438D01*
X104620785Y-61384438D02*
X104668404Y-61432057D01*
X104668404Y-61432057D02*
X104716023Y-61527295D01*
X104716023Y-61527295D02*
X104716023Y-61622533D01*
X104716023Y-61622533D02*
X104668404Y-61765390D01*
X104668404Y-61765390D02*
X104096976Y-62336819D01*
X104096976Y-62336819D02*
X104716023Y-62336819D01*
X105192214Y-62336819D02*
X105382690Y-62336819D01*
X105382690Y-62336819D02*
X105477928Y-62289200D01*
X105477928Y-62289200D02*
X105525547Y-62241580D01*
X105525547Y-62241580D02*
X105620785Y-62098723D01*
X105620785Y-62098723D02*
X105668404Y-61908247D01*
X105668404Y-61908247D02*
X105668404Y-61527295D01*
X105668404Y-61527295D02*
X105620785Y-61432057D01*
X105620785Y-61432057D02*
X105573166Y-61384438D01*
X105573166Y-61384438D02*
X105477928Y-61336819D01*
X105477928Y-61336819D02*
X105287452Y-61336819D01*
X105287452Y-61336819D02*
X105192214Y-61384438D01*
X105192214Y-61384438D02*
X105144595Y-61432057D01*
X105144595Y-61432057D02*
X105096976Y-61527295D01*
X105096976Y-61527295D02*
X105096976Y-61765390D01*
X105096976Y-61765390D02*
X105144595Y-61860628D01*
X105144595Y-61860628D02*
X105192214Y-61908247D01*
X105192214Y-61908247D02*
X105287452Y-61955866D01*
X105287452Y-61955866D02*
X105477928Y-61955866D01*
X105477928Y-61955866D02*
X105573166Y-61908247D01*
X105573166Y-61908247D02*
X105620785Y-61860628D01*
X105620785Y-61860628D02*
X105668404Y-61765390D01*
X131166666Y-104804819D02*
X131166666Y-105519104D01*
X131166666Y-105519104D02*
X131119047Y-105661961D01*
X131119047Y-105661961D02*
X131023809Y-105757200D01*
X131023809Y-105757200D02*
X130880952Y-105804819D01*
X130880952Y-105804819D02*
X130785714Y-105804819D01*
X131785714Y-105233390D02*
X131690476Y-105185771D01*
X131690476Y-105185771D02*
X131642857Y-105138152D01*
X131642857Y-105138152D02*
X131595238Y-105042914D01*
X131595238Y-105042914D02*
X131595238Y-104995295D01*
X131595238Y-104995295D02*
X131642857Y-104900057D01*
X131642857Y-104900057D02*
X131690476Y-104852438D01*
X131690476Y-104852438D02*
X131785714Y-104804819D01*
X131785714Y-104804819D02*
X131976190Y-104804819D01*
X131976190Y-104804819D02*
X132071428Y-104852438D01*
X132071428Y-104852438D02*
X132119047Y-104900057D01*
X132119047Y-104900057D02*
X132166666Y-104995295D01*
X132166666Y-104995295D02*
X132166666Y-105042914D01*
X132166666Y-105042914D02*
X132119047Y-105138152D01*
X132119047Y-105138152D02*
X132071428Y-105185771D01*
X132071428Y-105185771D02*
X131976190Y-105233390D01*
X131976190Y-105233390D02*
X131785714Y-105233390D01*
X131785714Y-105233390D02*
X131690476Y-105281009D01*
X131690476Y-105281009D02*
X131642857Y-105328628D01*
X131642857Y-105328628D02*
X131595238Y-105423866D01*
X131595238Y-105423866D02*
X131595238Y-105614342D01*
X131595238Y-105614342D02*
X131642857Y-105709580D01*
X131642857Y-105709580D02*
X131690476Y-105757200D01*
X131690476Y-105757200D02*
X131785714Y-105804819D01*
X131785714Y-105804819D02*
X131976190Y-105804819D01*
X131976190Y-105804819D02*
X132071428Y-105757200D01*
X132071428Y-105757200D02*
X132119047Y-105709580D01*
X132119047Y-105709580D02*
X132166666Y-105614342D01*
X132166666Y-105614342D02*
X132166666Y-105423866D01*
X132166666Y-105423866D02*
X132119047Y-105328628D01*
X132119047Y-105328628D02*
X132071428Y-105281009D01*
X132071428Y-105281009D02*
X131976190Y-105233390D01*
X108323666Y-81496819D02*
X108323666Y-82211104D01*
X108323666Y-82211104D02*
X108276047Y-82353961D01*
X108276047Y-82353961D02*
X108180809Y-82449200D01*
X108180809Y-82449200D02*
X108037952Y-82496819D01*
X108037952Y-82496819D02*
X107942714Y-82496819D01*
X109276047Y-81496819D02*
X108799857Y-81496819D01*
X108799857Y-81496819D02*
X108752238Y-81973009D01*
X108752238Y-81973009D02*
X108799857Y-81925390D01*
X108799857Y-81925390D02*
X108895095Y-81877771D01*
X108895095Y-81877771D02*
X109133190Y-81877771D01*
X109133190Y-81877771D02*
X109228428Y-81925390D01*
X109228428Y-81925390D02*
X109276047Y-81973009D01*
X109276047Y-81973009D02*
X109323666Y-82068247D01*
X109323666Y-82068247D02*
X109323666Y-82306342D01*
X109323666Y-82306342D02*
X109276047Y-82401580D01*
X109276047Y-82401580D02*
X109228428Y-82449200D01*
X109228428Y-82449200D02*
X109133190Y-82496819D01*
X109133190Y-82496819D02*
X108895095Y-82496819D01*
X108895095Y-82496819D02*
X108799857Y-82449200D01*
X108799857Y-82449200D02*
X108752238Y-82401580D01*
X78740095Y-61938819D02*
X78740095Y-62748342D01*
X78740095Y-62748342D02*
X78787714Y-62843580D01*
X78787714Y-62843580D02*
X78835333Y-62891200D01*
X78835333Y-62891200D02*
X78930571Y-62938819D01*
X78930571Y-62938819D02*
X79121047Y-62938819D01*
X79121047Y-62938819D02*
X79216285Y-62891200D01*
X79216285Y-62891200D02*
X79263904Y-62843580D01*
X79263904Y-62843580D02*
X79311523Y-62748342D01*
X79311523Y-62748342D02*
X79311523Y-61938819D01*
X79740095Y-62034057D02*
X79787714Y-61986438D01*
X79787714Y-61986438D02*
X79882952Y-61938819D01*
X79882952Y-61938819D02*
X80121047Y-61938819D01*
X80121047Y-61938819D02*
X80216285Y-61986438D01*
X80216285Y-61986438D02*
X80263904Y-62034057D01*
X80263904Y-62034057D02*
X80311523Y-62129295D01*
X80311523Y-62129295D02*
X80311523Y-62224533D01*
X80311523Y-62224533D02*
X80263904Y-62367390D01*
X80263904Y-62367390D02*
X79692476Y-62938819D01*
X79692476Y-62938819D02*
X80311523Y-62938819D01*
X110763642Y-57509580D02*
X110716023Y-57557200D01*
X110716023Y-57557200D02*
X110573166Y-57604819D01*
X110573166Y-57604819D02*
X110477928Y-57604819D01*
X110477928Y-57604819D02*
X110335071Y-57557200D01*
X110335071Y-57557200D02*
X110239833Y-57461961D01*
X110239833Y-57461961D02*
X110192214Y-57366723D01*
X110192214Y-57366723D02*
X110144595Y-57176247D01*
X110144595Y-57176247D02*
X110144595Y-57033390D01*
X110144595Y-57033390D02*
X110192214Y-56842914D01*
X110192214Y-56842914D02*
X110239833Y-56747676D01*
X110239833Y-56747676D02*
X110335071Y-56652438D01*
X110335071Y-56652438D02*
X110477928Y-56604819D01*
X110477928Y-56604819D02*
X110573166Y-56604819D01*
X110573166Y-56604819D02*
X110716023Y-56652438D01*
X110716023Y-56652438D02*
X110763642Y-56700057D01*
X111096976Y-56604819D02*
X111716023Y-56604819D01*
X111716023Y-56604819D02*
X111382690Y-56985771D01*
X111382690Y-56985771D02*
X111525547Y-56985771D01*
X111525547Y-56985771D02*
X111620785Y-57033390D01*
X111620785Y-57033390D02*
X111668404Y-57081009D01*
X111668404Y-57081009D02*
X111716023Y-57176247D01*
X111716023Y-57176247D02*
X111716023Y-57414342D01*
X111716023Y-57414342D02*
X111668404Y-57509580D01*
X111668404Y-57509580D02*
X111620785Y-57557200D01*
X111620785Y-57557200D02*
X111525547Y-57604819D01*
X111525547Y-57604819D02*
X111239833Y-57604819D01*
X111239833Y-57604819D02*
X111144595Y-57557200D01*
X111144595Y-57557200D02*
X111096976Y-57509580D01*
X112335071Y-56604819D02*
X112430309Y-56604819D01*
X112430309Y-56604819D02*
X112525547Y-56652438D01*
X112525547Y-56652438D02*
X112573166Y-56700057D01*
X112573166Y-56700057D02*
X112620785Y-56795295D01*
X112620785Y-56795295D02*
X112668404Y-56985771D01*
X112668404Y-56985771D02*
X112668404Y-57223866D01*
X112668404Y-57223866D02*
X112620785Y-57414342D01*
X112620785Y-57414342D02*
X112573166Y-57509580D01*
X112573166Y-57509580D02*
X112525547Y-57557200D01*
X112525547Y-57557200D02*
X112430309Y-57604819D01*
X112430309Y-57604819D02*
X112335071Y-57604819D01*
X112335071Y-57604819D02*
X112239833Y-57557200D01*
X112239833Y-57557200D02*
X112192214Y-57509580D01*
X112192214Y-57509580D02*
X112144595Y-57414342D01*
X112144595Y-57414342D02*
X112096976Y-57223866D01*
X112096976Y-57223866D02*
X112096976Y-56985771D01*
X112096976Y-56985771D02*
X112144595Y-56795295D01*
X112144595Y-56795295D02*
X112192214Y-56700057D01*
X112192214Y-56700057D02*
X112239833Y-56652438D01*
X112239833Y-56652438D02*
X112335071Y-56604819D01*
X134065142Y-83567819D02*
X133731809Y-83091628D01*
X133493714Y-83567819D02*
X133493714Y-82567819D01*
X133493714Y-82567819D02*
X133874666Y-82567819D01*
X133874666Y-82567819D02*
X133969904Y-82615438D01*
X133969904Y-82615438D02*
X134017523Y-82663057D01*
X134017523Y-82663057D02*
X134065142Y-82758295D01*
X134065142Y-82758295D02*
X134065142Y-82901152D01*
X134065142Y-82901152D02*
X134017523Y-82996390D01*
X134017523Y-82996390D02*
X133969904Y-83044009D01*
X133969904Y-83044009D02*
X133874666Y-83091628D01*
X133874666Y-83091628D02*
X133493714Y-83091628D01*
X135017523Y-83567819D02*
X134446095Y-83567819D01*
X134731809Y-83567819D02*
X134731809Y-82567819D01*
X134731809Y-82567819D02*
X134636571Y-82710676D01*
X134636571Y-82710676D02*
X134541333Y-82805914D01*
X134541333Y-82805914D02*
X134446095Y-82853533D01*
X135874666Y-82567819D02*
X135684190Y-82567819D01*
X135684190Y-82567819D02*
X135588952Y-82615438D01*
X135588952Y-82615438D02*
X135541333Y-82663057D01*
X135541333Y-82663057D02*
X135446095Y-82805914D01*
X135446095Y-82805914D02*
X135398476Y-82996390D01*
X135398476Y-82996390D02*
X135398476Y-83377342D01*
X135398476Y-83377342D02*
X135446095Y-83472580D01*
X135446095Y-83472580D02*
X135493714Y-83520200D01*
X135493714Y-83520200D02*
X135588952Y-83567819D01*
X135588952Y-83567819D02*
X135779428Y-83567819D01*
X135779428Y-83567819D02*
X135874666Y-83520200D01*
X135874666Y-83520200D02*
X135922285Y-83472580D01*
X135922285Y-83472580D02*
X135969904Y-83377342D01*
X135969904Y-83377342D02*
X135969904Y-83139247D01*
X135969904Y-83139247D02*
X135922285Y-83044009D01*
X135922285Y-83044009D02*
X135874666Y-82996390D01*
X135874666Y-82996390D02*
X135779428Y-82948771D01*
X135779428Y-82948771D02*
X135588952Y-82948771D01*
X135588952Y-82948771D02*
X135493714Y-82996390D01*
X135493714Y-82996390D02*
X135446095Y-83044009D01*
X135446095Y-83044009D02*
X135398476Y-83139247D01*
X139469905Y-76742819D02*
X139469905Y-75742819D01*
X139469905Y-75742819D02*
X139708000Y-75742819D01*
X139708000Y-75742819D02*
X139850857Y-75790438D01*
X139850857Y-75790438D02*
X139946095Y-75885676D01*
X139946095Y-75885676D02*
X139993714Y-75980914D01*
X139993714Y-75980914D02*
X140041333Y-76171390D01*
X140041333Y-76171390D02*
X140041333Y-76314247D01*
X140041333Y-76314247D02*
X139993714Y-76504723D01*
X139993714Y-76504723D02*
X139946095Y-76599961D01*
X139946095Y-76599961D02*
X139850857Y-76695200D01*
X139850857Y-76695200D02*
X139708000Y-76742819D01*
X139708000Y-76742819D02*
X139469905Y-76742819D01*
X140946095Y-75742819D02*
X140469905Y-75742819D01*
X140469905Y-75742819D02*
X140422286Y-76219009D01*
X140422286Y-76219009D02*
X140469905Y-76171390D01*
X140469905Y-76171390D02*
X140565143Y-76123771D01*
X140565143Y-76123771D02*
X140803238Y-76123771D01*
X140803238Y-76123771D02*
X140898476Y-76171390D01*
X140898476Y-76171390D02*
X140946095Y-76219009D01*
X140946095Y-76219009D02*
X140993714Y-76314247D01*
X140993714Y-76314247D02*
X140993714Y-76552342D01*
X140993714Y-76552342D02*
X140946095Y-76647580D01*
X140946095Y-76647580D02*
X140898476Y-76695200D01*
X140898476Y-76695200D02*
X140803238Y-76742819D01*
X140803238Y-76742819D02*
X140565143Y-76742819D01*
X140565143Y-76742819D02*
X140469905Y-76695200D01*
X140469905Y-76695200D02*
X140422286Y-76647580D01*
X107263642Y-59311580D02*
X107216023Y-59359200D01*
X107216023Y-59359200D02*
X107073166Y-59406819D01*
X107073166Y-59406819D02*
X106977928Y-59406819D01*
X106977928Y-59406819D02*
X106835071Y-59359200D01*
X106835071Y-59359200D02*
X106739833Y-59263961D01*
X106739833Y-59263961D02*
X106692214Y-59168723D01*
X106692214Y-59168723D02*
X106644595Y-58978247D01*
X106644595Y-58978247D02*
X106644595Y-58835390D01*
X106644595Y-58835390D02*
X106692214Y-58644914D01*
X106692214Y-58644914D02*
X106739833Y-58549676D01*
X106739833Y-58549676D02*
X106835071Y-58454438D01*
X106835071Y-58454438D02*
X106977928Y-58406819D01*
X106977928Y-58406819D02*
X107073166Y-58406819D01*
X107073166Y-58406819D02*
X107216023Y-58454438D01*
X107216023Y-58454438D02*
X107263642Y-58502057D01*
X107596976Y-58406819D02*
X108216023Y-58406819D01*
X108216023Y-58406819D02*
X107882690Y-58787771D01*
X107882690Y-58787771D02*
X108025547Y-58787771D01*
X108025547Y-58787771D02*
X108120785Y-58835390D01*
X108120785Y-58835390D02*
X108168404Y-58883009D01*
X108168404Y-58883009D02*
X108216023Y-58978247D01*
X108216023Y-58978247D02*
X108216023Y-59216342D01*
X108216023Y-59216342D02*
X108168404Y-59311580D01*
X108168404Y-59311580D02*
X108120785Y-59359200D01*
X108120785Y-59359200D02*
X108025547Y-59406819D01*
X108025547Y-59406819D02*
X107739833Y-59406819D01*
X107739833Y-59406819D02*
X107644595Y-59359200D01*
X107644595Y-59359200D02*
X107596976Y-59311580D01*
X108596976Y-58502057D02*
X108644595Y-58454438D01*
X108644595Y-58454438D02*
X108739833Y-58406819D01*
X108739833Y-58406819D02*
X108977928Y-58406819D01*
X108977928Y-58406819D02*
X109073166Y-58454438D01*
X109073166Y-58454438D02*
X109120785Y-58502057D01*
X109120785Y-58502057D02*
X109168404Y-58597295D01*
X109168404Y-58597295D02*
X109168404Y-58692533D01*
X109168404Y-58692533D02*
X109120785Y-58835390D01*
X109120785Y-58835390D02*
X108549357Y-59406819D01*
X108549357Y-59406819D02*
X109168404Y-59406819D01*
X91183333Y-61759580D02*
X91135714Y-61807200D01*
X91135714Y-61807200D02*
X90992857Y-61854819D01*
X90992857Y-61854819D02*
X90897619Y-61854819D01*
X90897619Y-61854819D02*
X90754762Y-61807200D01*
X90754762Y-61807200D02*
X90659524Y-61711961D01*
X90659524Y-61711961D02*
X90611905Y-61616723D01*
X90611905Y-61616723D02*
X90564286Y-61426247D01*
X90564286Y-61426247D02*
X90564286Y-61283390D01*
X90564286Y-61283390D02*
X90611905Y-61092914D01*
X90611905Y-61092914D02*
X90659524Y-60997676D01*
X90659524Y-60997676D02*
X90754762Y-60902438D01*
X90754762Y-60902438D02*
X90897619Y-60854819D01*
X90897619Y-60854819D02*
X90992857Y-60854819D01*
X90992857Y-60854819D02*
X91135714Y-60902438D01*
X91135714Y-60902438D02*
X91183333Y-60950057D01*
X91516667Y-60854819D02*
X92135714Y-60854819D01*
X92135714Y-60854819D02*
X91802381Y-61235771D01*
X91802381Y-61235771D02*
X91945238Y-61235771D01*
X91945238Y-61235771D02*
X92040476Y-61283390D01*
X92040476Y-61283390D02*
X92088095Y-61331009D01*
X92088095Y-61331009D02*
X92135714Y-61426247D01*
X92135714Y-61426247D02*
X92135714Y-61664342D01*
X92135714Y-61664342D02*
X92088095Y-61759580D01*
X92088095Y-61759580D02*
X92040476Y-61807200D01*
X92040476Y-61807200D02*
X91945238Y-61854819D01*
X91945238Y-61854819D02*
X91659524Y-61854819D01*
X91659524Y-61854819D02*
X91564286Y-61807200D01*
X91564286Y-61807200D02*
X91516667Y-61759580D01*
X136250142Y-39983580D02*
X136202523Y-40031200D01*
X136202523Y-40031200D02*
X136059666Y-40078819D01*
X136059666Y-40078819D02*
X135964428Y-40078819D01*
X135964428Y-40078819D02*
X135821571Y-40031200D01*
X135821571Y-40031200D02*
X135726333Y-39935961D01*
X135726333Y-39935961D02*
X135678714Y-39840723D01*
X135678714Y-39840723D02*
X135631095Y-39650247D01*
X135631095Y-39650247D02*
X135631095Y-39507390D01*
X135631095Y-39507390D02*
X135678714Y-39316914D01*
X135678714Y-39316914D02*
X135726333Y-39221676D01*
X135726333Y-39221676D02*
X135821571Y-39126438D01*
X135821571Y-39126438D02*
X135964428Y-39078819D01*
X135964428Y-39078819D02*
X136059666Y-39078819D01*
X136059666Y-39078819D02*
X136202523Y-39126438D01*
X136202523Y-39126438D02*
X136250142Y-39174057D01*
X136583476Y-39078819D02*
X137202523Y-39078819D01*
X137202523Y-39078819D02*
X136869190Y-39459771D01*
X136869190Y-39459771D02*
X137012047Y-39459771D01*
X137012047Y-39459771D02*
X137107285Y-39507390D01*
X137107285Y-39507390D02*
X137154904Y-39555009D01*
X137154904Y-39555009D02*
X137202523Y-39650247D01*
X137202523Y-39650247D02*
X137202523Y-39888342D01*
X137202523Y-39888342D02*
X137154904Y-39983580D01*
X137154904Y-39983580D02*
X137107285Y-40031200D01*
X137107285Y-40031200D02*
X137012047Y-40078819D01*
X137012047Y-40078819D02*
X136726333Y-40078819D01*
X136726333Y-40078819D02*
X136631095Y-40031200D01*
X136631095Y-40031200D02*
X136583476Y-39983580D01*
X137535857Y-39078819D02*
X138202523Y-39078819D01*
X138202523Y-39078819D02*
X137773952Y-40078819D01*
X83685142Y-102975580D02*
X83637523Y-103023200D01*
X83637523Y-103023200D02*
X83494666Y-103070819D01*
X83494666Y-103070819D02*
X83399428Y-103070819D01*
X83399428Y-103070819D02*
X83256571Y-103023200D01*
X83256571Y-103023200D02*
X83161333Y-102927961D01*
X83161333Y-102927961D02*
X83113714Y-102832723D01*
X83113714Y-102832723D02*
X83066095Y-102642247D01*
X83066095Y-102642247D02*
X83066095Y-102499390D01*
X83066095Y-102499390D02*
X83113714Y-102308914D01*
X83113714Y-102308914D02*
X83161333Y-102213676D01*
X83161333Y-102213676D02*
X83256571Y-102118438D01*
X83256571Y-102118438D02*
X83399428Y-102070819D01*
X83399428Y-102070819D02*
X83494666Y-102070819D01*
X83494666Y-102070819D02*
X83637523Y-102118438D01*
X83637523Y-102118438D02*
X83685142Y-102166057D01*
X84018476Y-102070819D02*
X84637523Y-102070819D01*
X84637523Y-102070819D02*
X84304190Y-102451771D01*
X84304190Y-102451771D02*
X84447047Y-102451771D01*
X84447047Y-102451771D02*
X84542285Y-102499390D01*
X84542285Y-102499390D02*
X84589904Y-102547009D01*
X84589904Y-102547009D02*
X84637523Y-102642247D01*
X84637523Y-102642247D02*
X84637523Y-102880342D01*
X84637523Y-102880342D02*
X84589904Y-102975580D01*
X84589904Y-102975580D02*
X84542285Y-103023200D01*
X84542285Y-103023200D02*
X84447047Y-103070819D01*
X84447047Y-103070819D02*
X84161333Y-103070819D01*
X84161333Y-103070819D02*
X84066095Y-103023200D01*
X84066095Y-103023200D02*
X84018476Y-102975580D01*
X85208952Y-102499390D02*
X85113714Y-102451771D01*
X85113714Y-102451771D02*
X85066095Y-102404152D01*
X85066095Y-102404152D02*
X85018476Y-102308914D01*
X85018476Y-102308914D02*
X85018476Y-102261295D01*
X85018476Y-102261295D02*
X85066095Y-102166057D01*
X85066095Y-102166057D02*
X85113714Y-102118438D01*
X85113714Y-102118438D02*
X85208952Y-102070819D01*
X85208952Y-102070819D02*
X85399428Y-102070819D01*
X85399428Y-102070819D02*
X85494666Y-102118438D01*
X85494666Y-102118438D02*
X85542285Y-102166057D01*
X85542285Y-102166057D02*
X85589904Y-102261295D01*
X85589904Y-102261295D02*
X85589904Y-102308914D01*
X85589904Y-102308914D02*
X85542285Y-102404152D01*
X85542285Y-102404152D02*
X85494666Y-102451771D01*
X85494666Y-102451771D02*
X85399428Y-102499390D01*
X85399428Y-102499390D02*
X85208952Y-102499390D01*
X85208952Y-102499390D02*
X85113714Y-102547009D01*
X85113714Y-102547009D02*
X85066095Y-102594628D01*
X85066095Y-102594628D02*
X85018476Y-102689866D01*
X85018476Y-102689866D02*
X85018476Y-102880342D01*
X85018476Y-102880342D02*
X85066095Y-102975580D01*
X85066095Y-102975580D02*
X85113714Y-103023200D01*
X85113714Y-103023200D02*
X85208952Y-103070819D01*
X85208952Y-103070819D02*
X85399428Y-103070819D01*
X85399428Y-103070819D02*
X85494666Y-103023200D01*
X85494666Y-103023200D02*
X85542285Y-102975580D01*
X85542285Y-102975580D02*
X85589904Y-102880342D01*
X85589904Y-102880342D02*
X85589904Y-102689866D01*
X85589904Y-102689866D02*
X85542285Y-102594628D01*
X85542285Y-102594628D02*
X85494666Y-102547009D01*
X85494666Y-102547009D02*
X85399428Y-102499390D01*
X114288667Y-54654200D02*
X114431524Y-54701819D01*
X114431524Y-54701819D02*
X114669619Y-54701819D01*
X114669619Y-54701819D02*
X114764857Y-54654200D01*
X114764857Y-54654200D02*
X114812476Y-54606580D01*
X114812476Y-54606580D02*
X114860095Y-54511342D01*
X114860095Y-54511342D02*
X114860095Y-54416104D01*
X114860095Y-54416104D02*
X114812476Y-54320866D01*
X114812476Y-54320866D02*
X114764857Y-54273247D01*
X114764857Y-54273247D02*
X114669619Y-54225628D01*
X114669619Y-54225628D02*
X114479143Y-54178009D01*
X114479143Y-54178009D02*
X114383905Y-54130390D01*
X114383905Y-54130390D02*
X114336286Y-54082771D01*
X114336286Y-54082771D02*
X114288667Y-53987533D01*
X114288667Y-53987533D02*
X114288667Y-53892295D01*
X114288667Y-53892295D02*
X114336286Y-53797057D01*
X114336286Y-53797057D02*
X114383905Y-53749438D01*
X114383905Y-53749438D02*
X114479143Y-53701819D01*
X114479143Y-53701819D02*
X114717238Y-53701819D01*
X114717238Y-53701819D02*
X114860095Y-53749438D01*
X115193429Y-53701819D02*
X115431524Y-54701819D01*
X115431524Y-54701819D02*
X115622000Y-53987533D01*
X115622000Y-53987533D02*
X115812476Y-54701819D01*
X115812476Y-54701819D02*
X116050572Y-53701819D01*
X116955333Y-54701819D02*
X116383905Y-54701819D01*
X116669619Y-54701819D02*
X116669619Y-53701819D01*
X116669619Y-53701819D02*
X116574381Y-53844676D01*
X116574381Y-53844676D02*
X116479143Y-53939914D01*
X116479143Y-53939914D02*
X116383905Y-53987533D01*
X136842666Y-99402819D02*
X136842666Y-100117104D01*
X136842666Y-100117104D02*
X136795047Y-100259961D01*
X136795047Y-100259961D02*
X136699809Y-100355200D01*
X136699809Y-100355200D02*
X136556952Y-100402819D01*
X136556952Y-100402819D02*
X136461714Y-100402819D01*
X137223619Y-99402819D02*
X137890285Y-99402819D01*
X137890285Y-99402819D02*
X137461714Y-100402819D01*
X107073166Y-55883009D02*
X106739833Y-55883009D01*
X106739833Y-56406819D02*
X106739833Y-55406819D01*
X106739833Y-55406819D02*
X107216023Y-55406819D01*
X107930309Y-55883009D02*
X108073166Y-55930628D01*
X108073166Y-55930628D02*
X108120785Y-55978247D01*
X108120785Y-55978247D02*
X108168404Y-56073485D01*
X108168404Y-56073485D02*
X108168404Y-56216342D01*
X108168404Y-56216342D02*
X108120785Y-56311580D01*
X108120785Y-56311580D02*
X108073166Y-56359200D01*
X108073166Y-56359200D02*
X107977928Y-56406819D01*
X107977928Y-56406819D02*
X107596976Y-56406819D01*
X107596976Y-56406819D02*
X107596976Y-55406819D01*
X107596976Y-55406819D02*
X107930309Y-55406819D01*
X107930309Y-55406819D02*
X108025547Y-55454438D01*
X108025547Y-55454438D02*
X108073166Y-55502057D01*
X108073166Y-55502057D02*
X108120785Y-55597295D01*
X108120785Y-55597295D02*
X108120785Y-55692533D01*
X108120785Y-55692533D02*
X108073166Y-55787771D01*
X108073166Y-55787771D02*
X108025547Y-55835390D01*
X108025547Y-55835390D02*
X107930309Y-55883009D01*
X107930309Y-55883009D02*
X107596976Y-55883009D01*
X109120785Y-56406819D02*
X108549357Y-56406819D01*
X108835071Y-56406819D02*
X108835071Y-55406819D01*
X108835071Y-55406819D02*
X108739833Y-55549676D01*
X108739833Y-55549676D02*
X108644595Y-55644914D01*
X108644595Y-55644914D02*
X108549357Y-55692533D01*
X131392666Y-36498819D02*
X131392666Y-37213104D01*
X131392666Y-37213104D02*
X131345047Y-37355961D01*
X131345047Y-37355961D02*
X131249809Y-37451200D01*
X131249809Y-37451200D02*
X131106952Y-37498819D01*
X131106952Y-37498819D02*
X131011714Y-37498819D01*
X131773619Y-36498819D02*
X132392666Y-36498819D01*
X132392666Y-36498819D02*
X132059333Y-36879771D01*
X132059333Y-36879771D02*
X132202190Y-36879771D01*
X132202190Y-36879771D02*
X132297428Y-36927390D01*
X132297428Y-36927390D02*
X132345047Y-36975009D01*
X132345047Y-36975009D02*
X132392666Y-37070247D01*
X132392666Y-37070247D02*
X132392666Y-37308342D01*
X132392666Y-37308342D02*
X132345047Y-37403580D01*
X132345047Y-37403580D02*
X132297428Y-37451200D01*
X132297428Y-37451200D02*
X132202190Y-37498819D01*
X132202190Y-37498819D02*
X131916476Y-37498819D01*
X131916476Y-37498819D02*
X131821238Y-37451200D01*
X131821238Y-37451200D02*
X131773619Y-37403580D01*
X136858476Y-43650819D02*
X136858476Y-44365104D01*
X136858476Y-44365104D02*
X136810857Y-44507961D01*
X136810857Y-44507961D02*
X136715619Y-44603200D01*
X136715619Y-44603200D02*
X136572762Y-44650819D01*
X136572762Y-44650819D02*
X136477524Y-44650819D01*
X137858476Y-44650819D02*
X137287048Y-44650819D01*
X137572762Y-44650819D02*
X137572762Y-43650819D01*
X137572762Y-43650819D02*
X137477524Y-43793676D01*
X137477524Y-43793676D02*
X137382286Y-43888914D01*
X137382286Y-43888914D02*
X137287048Y-43936533D01*
X138191810Y-43650819D02*
X138810857Y-43650819D01*
X138810857Y-43650819D02*
X138477524Y-44031771D01*
X138477524Y-44031771D02*
X138620381Y-44031771D01*
X138620381Y-44031771D02*
X138715619Y-44079390D01*
X138715619Y-44079390D02*
X138763238Y-44127009D01*
X138763238Y-44127009D02*
X138810857Y-44222247D01*
X138810857Y-44222247D02*
X138810857Y-44460342D01*
X138810857Y-44460342D02*
X138763238Y-44555580D01*
X138763238Y-44555580D02*
X138715619Y-44603200D01*
X138715619Y-44603200D02*
X138620381Y-44650819D01*
X138620381Y-44650819D02*
X138334667Y-44650819D01*
X138334667Y-44650819D02*
X138239429Y-44603200D01*
X138239429Y-44603200D02*
X138191810Y-44555580D01*
X89642666Y-36498819D02*
X89642666Y-37213104D01*
X89642666Y-37213104D02*
X89595047Y-37355961D01*
X89595047Y-37355961D02*
X89499809Y-37451200D01*
X89499809Y-37451200D02*
X89356952Y-37498819D01*
X89356952Y-37498819D02*
X89261714Y-37498819D01*
X90642666Y-37498819D02*
X90071238Y-37498819D01*
X90356952Y-37498819D02*
X90356952Y-36498819D01*
X90356952Y-36498819D02*
X90261714Y-36641676D01*
X90261714Y-36641676D02*
X90166476Y-36736914D01*
X90166476Y-36736914D02*
X90071238Y-36784533D01*
X81458142Y-86000819D02*
X81124809Y-85524628D01*
X80886714Y-86000819D02*
X80886714Y-85000819D01*
X80886714Y-85000819D02*
X81267666Y-85000819D01*
X81267666Y-85000819D02*
X81362904Y-85048438D01*
X81362904Y-85048438D02*
X81410523Y-85096057D01*
X81410523Y-85096057D02*
X81458142Y-85191295D01*
X81458142Y-85191295D02*
X81458142Y-85334152D01*
X81458142Y-85334152D02*
X81410523Y-85429390D01*
X81410523Y-85429390D02*
X81362904Y-85477009D01*
X81362904Y-85477009D02*
X81267666Y-85524628D01*
X81267666Y-85524628D02*
X80886714Y-85524628D01*
X81839095Y-85096057D02*
X81886714Y-85048438D01*
X81886714Y-85048438D02*
X81981952Y-85000819D01*
X81981952Y-85000819D02*
X82220047Y-85000819D01*
X82220047Y-85000819D02*
X82315285Y-85048438D01*
X82315285Y-85048438D02*
X82362904Y-85096057D01*
X82362904Y-85096057D02*
X82410523Y-85191295D01*
X82410523Y-85191295D02*
X82410523Y-85286533D01*
X82410523Y-85286533D02*
X82362904Y-85429390D01*
X82362904Y-85429390D02*
X81791476Y-86000819D01*
X81791476Y-86000819D02*
X82410523Y-86000819D01*
X82791476Y-85096057D02*
X82839095Y-85048438D01*
X82839095Y-85048438D02*
X82934333Y-85000819D01*
X82934333Y-85000819D02*
X83172428Y-85000819D01*
X83172428Y-85000819D02*
X83267666Y-85048438D01*
X83267666Y-85048438D02*
X83315285Y-85096057D01*
X83315285Y-85096057D02*
X83362904Y-85191295D01*
X83362904Y-85191295D02*
X83362904Y-85286533D01*
X83362904Y-85286533D02*
X83315285Y-85429390D01*
X83315285Y-85429390D02*
X82743857Y-86000819D01*
X82743857Y-86000819D02*
X83362904Y-86000819D01*
X77589142Y-72082819D02*
X77255809Y-71606628D01*
X77017714Y-72082819D02*
X77017714Y-71082819D01*
X77017714Y-71082819D02*
X77398666Y-71082819D01*
X77398666Y-71082819D02*
X77493904Y-71130438D01*
X77493904Y-71130438D02*
X77541523Y-71178057D01*
X77541523Y-71178057D02*
X77589142Y-71273295D01*
X77589142Y-71273295D02*
X77589142Y-71416152D01*
X77589142Y-71416152D02*
X77541523Y-71511390D01*
X77541523Y-71511390D02*
X77493904Y-71559009D01*
X77493904Y-71559009D02*
X77398666Y-71606628D01*
X77398666Y-71606628D02*
X77017714Y-71606628D01*
X78541523Y-72082819D02*
X77970095Y-72082819D01*
X78255809Y-72082819D02*
X78255809Y-71082819D01*
X78255809Y-71082819D02*
X78160571Y-71225676D01*
X78160571Y-71225676D02*
X78065333Y-71320914D01*
X78065333Y-71320914D02*
X77970095Y-71368533D01*
X79112952Y-71511390D02*
X79017714Y-71463771D01*
X79017714Y-71463771D02*
X78970095Y-71416152D01*
X78970095Y-71416152D02*
X78922476Y-71320914D01*
X78922476Y-71320914D02*
X78922476Y-71273295D01*
X78922476Y-71273295D02*
X78970095Y-71178057D01*
X78970095Y-71178057D02*
X79017714Y-71130438D01*
X79017714Y-71130438D02*
X79112952Y-71082819D01*
X79112952Y-71082819D02*
X79303428Y-71082819D01*
X79303428Y-71082819D02*
X79398666Y-71130438D01*
X79398666Y-71130438D02*
X79446285Y-71178057D01*
X79446285Y-71178057D02*
X79493904Y-71273295D01*
X79493904Y-71273295D02*
X79493904Y-71320914D01*
X79493904Y-71320914D02*
X79446285Y-71416152D01*
X79446285Y-71416152D02*
X79398666Y-71463771D01*
X79398666Y-71463771D02*
X79303428Y-71511390D01*
X79303428Y-71511390D02*
X79112952Y-71511390D01*
X79112952Y-71511390D02*
X79017714Y-71559009D01*
X79017714Y-71559009D02*
X78970095Y-71606628D01*
X78970095Y-71606628D02*
X78922476Y-71701866D01*
X78922476Y-71701866D02*
X78922476Y-71892342D01*
X78922476Y-71892342D02*
X78970095Y-71987580D01*
X78970095Y-71987580D02*
X79017714Y-72035200D01*
X79017714Y-72035200D02*
X79112952Y-72082819D01*
X79112952Y-72082819D02*
X79303428Y-72082819D01*
X79303428Y-72082819D02*
X79398666Y-72035200D01*
X79398666Y-72035200D02*
X79446285Y-71987580D01*
X79446285Y-71987580D02*
X79493904Y-71892342D01*
X79493904Y-71892342D02*
X79493904Y-71701866D01*
X79493904Y-71701866D02*
X79446285Y-71606628D01*
X79446285Y-71606628D02*
X79398666Y-71559009D01*
X79398666Y-71559009D02*
X79303428Y-71511390D01*
X110763642Y-58779580D02*
X110716023Y-58827200D01*
X110716023Y-58827200D02*
X110573166Y-58874819D01*
X110573166Y-58874819D02*
X110477928Y-58874819D01*
X110477928Y-58874819D02*
X110335071Y-58827200D01*
X110335071Y-58827200D02*
X110239833Y-58731961D01*
X110239833Y-58731961D02*
X110192214Y-58636723D01*
X110192214Y-58636723D02*
X110144595Y-58446247D01*
X110144595Y-58446247D02*
X110144595Y-58303390D01*
X110144595Y-58303390D02*
X110192214Y-58112914D01*
X110192214Y-58112914D02*
X110239833Y-58017676D01*
X110239833Y-58017676D02*
X110335071Y-57922438D01*
X110335071Y-57922438D02*
X110477928Y-57874819D01*
X110477928Y-57874819D02*
X110573166Y-57874819D01*
X110573166Y-57874819D02*
X110716023Y-57922438D01*
X110716023Y-57922438D02*
X110763642Y-57970057D01*
X111144595Y-57970057D02*
X111192214Y-57922438D01*
X111192214Y-57922438D02*
X111287452Y-57874819D01*
X111287452Y-57874819D02*
X111525547Y-57874819D01*
X111525547Y-57874819D02*
X111620785Y-57922438D01*
X111620785Y-57922438D02*
X111668404Y-57970057D01*
X111668404Y-57970057D02*
X111716023Y-58065295D01*
X111716023Y-58065295D02*
X111716023Y-58160533D01*
X111716023Y-58160533D02*
X111668404Y-58303390D01*
X111668404Y-58303390D02*
X111096976Y-58874819D01*
X111096976Y-58874819D02*
X111716023Y-58874819D01*
X112287452Y-58303390D02*
X112192214Y-58255771D01*
X112192214Y-58255771D02*
X112144595Y-58208152D01*
X112144595Y-58208152D02*
X112096976Y-58112914D01*
X112096976Y-58112914D02*
X112096976Y-58065295D01*
X112096976Y-58065295D02*
X112144595Y-57970057D01*
X112144595Y-57970057D02*
X112192214Y-57922438D01*
X112192214Y-57922438D02*
X112287452Y-57874819D01*
X112287452Y-57874819D02*
X112477928Y-57874819D01*
X112477928Y-57874819D02*
X112573166Y-57922438D01*
X112573166Y-57922438D02*
X112620785Y-57970057D01*
X112620785Y-57970057D02*
X112668404Y-58065295D01*
X112668404Y-58065295D02*
X112668404Y-58112914D01*
X112668404Y-58112914D02*
X112620785Y-58208152D01*
X112620785Y-58208152D02*
X112573166Y-58255771D01*
X112573166Y-58255771D02*
X112477928Y-58303390D01*
X112477928Y-58303390D02*
X112287452Y-58303390D01*
X112287452Y-58303390D02*
X112192214Y-58351009D01*
X112192214Y-58351009D02*
X112144595Y-58398628D01*
X112144595Y-58398628D02*
X112096976Y-58493866D01*
X112096976Y-58493866D02*
X112096976Y-58684342D01*
X112096976Y-58684342D02*
X112144595Y-58779580D01*
X112144595Y-58779580D02*
X112192214Y-58827200D01*
X112192214Y-58827200D02*
X112287452Y-58874819D01*
X112287452Y-58874819D02*
X112477928Y-58874819D01*
X112477928Y-58874819D02*
X112573166Y-58827200D01*
X112573166Y-58827200D02*
X112620785Y-58779580D01*
X112620785Y-58779580D02*
X112668404Y-58684342D01*
X112668404Y-58684342D02*
X112668404Y-58493866D01*
X112668404Y-58493866D02*
X112620785Y-58398628D01*
X112620785Y-58398628D02*
X112573166Y-58351009D01*
X112573166Y-58351009D02*
X112477928Y-58303390D01*
X110144595Y-71204819D02*
X110144595Y-72014342D01*
X110144595Y-72014342D02*
X110192214Y-72109580D01*
X110192214Y-72109580D02*
X110239833Y-72157200D01*
X110239833Y-72157200D02*
X110335071Y-72204819D01*
X110335071Y-72204819D02*
X110525547Y-72204819D01*
X110525547Y-72204819D02*
X110620785Y-72157200D01*
X110620785Y-72157200D02*
X110668404Y-72109580D01*
X110668404Y-72109580D02*
X110716023Y-72014342D01*
X110716023Y-72014342D02*
X110716023Y-71204819D01*
X111716023Y-72204819D02*
X111144595Y-72204819D01*
X111430309Y-72204819D02*
X111430309Y-71204819D01*
X111430309Y-71204819D02*
X111335071Y-71347676D01*
X111335071Y-71347676D02*
X111239833Y-71442914D01*
X111239833Y-71442914D02*
X111144595Y-71490533D01*
X125849142Y-102975580D02*
X125801523Y-103023200D01*
X125801523Y-103023200D02*
X125658666Y-103070819D01*
X125658666Y-103070819D02*
X125563428Y-103070819D01*
X125563428Y-103070819D02*
X125420571Y-103023200D01*
X125420571Y-103023200D02*
X125325333Y-102927961D01*
X125325333Y-102927961D02*
X125277714Y-102832723D01*
X125277714Y-102832723D02*
X125230095Y-102642247D01*
X125230095Y-102642247D02*
X125230095Y-102499390D01*
X125230095Y-102499390D02*
X125277714Y-102308914D01*
X125277714Y-102308914D02*
X125325333Y-102213676D01*
X125325333Y-102213676D02*
X125420571Y-102118438D01*
X125420571Y-102118438D02*
X125563428Y-102070819D01*
X125563428Y-102070819D02*
X125658666Y-102070819D01*
X125658666Y-102070819D02*
X125801523Y-102118438D01*
X125801523Y-102118438D02*
X125849142Y-102166057D01*
X126706285Y-102404152D02*
X126706285Y-103070819D01*
X126468190Y-102023200D02*
X126230095Y-102737485D01*
X126230095Y-102737485D02*
X126849142Y-102737485D01*
X127420571Y-102070819D02*
X127515809Y-102070819D01*
X127515809Y-102070819D02*
X127611047Y-102118438D01*
X127611047Y-102118438D02*
X127658666Y-102166057D01*
X127658666Y-102166057D02*
X127706285Y-102261295D01*
X127706285Y-102261295D02*
X127753904Y-102451771D01*
X127753904Y-102451771D02*
X127753904Y-102689866D01*
X127753904Y-102689866D02*
X127706285Y-102880342D01*
X127706285Y-102880342D02*
X127658666Y-102975580D01*
X127658666Y-102975580D02*
X127611047Y-103023200D01*
X127611047Y-103023200D02*
X127515809Y-103070819D01*
X127515809Y-103070819D02*
X127420571Y-103070819D01*
X127420571Y-103070819D02*
X127325333Y-103023200D01*
X127325333Y-103023200D02*
X127277714Y-102975580D01*
X127277714Y-102975580D02*
X127230095Y-102880342D01*
X127230095Y-102880342D02*
X127182476Y-102689866D01*
X127182476Y-102689866D02*
X127182476Y-102451771D01*
X127182476Y-102451771D02*
X127230095Y-102261295D01*
X127230095Y-102261295D02*
X127277714Y-102166057D01*
X127277714Y-102166057D02*
X127325333Y-102118438D01*
X127325333Y-102118438D02*
X127420571Y-102070819D01*
X115181142Y-39983580D02*
X115133523Y-40031200D01*
X115133523Y-40031200D02*
X114990666Y-40078819D01*
X114990666Y-40078819D02*
X114895428Y-40078819D01*
X114895428Y-40078819D02*
X114752571Y-40031200D01*
X114752571Y-40031200D02*
X114657333Y-39935961D01*
X114657333Y-39935961D02*
X114609714Y-39840723D01*
X114609714Y-39840723D02*
X114562095Y-39650247D01*
X114562095Y-39650247D02*
X114562095Y-39507390D01*
X114562095Y-39507390D02*
X114609714Y-39316914D01*
X114609714Y-39316914D02*
X114657333Y-39221676D01*
X114657333Y-39221676D02*
X114752571Y-39126438D01*
X114752571Y-39126438D02*
X114895428Y-39078819D01*
X114895428Y-39078819D02*
X114990666Y-39078819D01*
X114990666Y-39078819D02*
X115133523Y-39126438D01*
X115133523Y-39126438D02*
X115181142Y-39174057D01*
X115514476Y-39078819D02*
X116133523Y-39078819D01*
X116133523Y-39078819D02*
X115800190Y-39459771D01*
X115800190Y-39459771D02*
X115943047Y-39459771D01*
X115943047Y-39459771D02*
X116038285Y-39507390D01*
X116038285Y-39507390D02*
X116085904Y-39555009D01*
X116085904Y-39555009D02*
X116133523Y-39650247D01*
X116133523Y-39650247D02*
X116133523Y-39888342D01*
X116133523Y-39888342D02*
X116085904Y-39983580D01*
X116085904Y-39983580D02*
X116038285Y-40031200D01*
X116038285Y-40031200D02*
X115943047Y-40078819D01*
X115943047Y-40078819D02*
X115657333Y-40078819D01*
X115657333Y-40078819D02*
X115562095Y-40031200D01*
X115562095Y-40031200D02*
X115514476Y-39983580D01*
X116990666Y-39078819D02*
X116800190Y-39078819D01*
X116800190Y-39078819D02*
X116704952Y-39126438D01*
X116704952Y-39126438D02*
X116657333Y-39174057D01*
X116657333Y-39174057D02*
X116562095Y-39316914D01*
X116562095Y-39316914D02*
X116514476Y-39507390D01*
X116514476Y-39507390D02*
X116514476Y-39888342D01*
X116514476Y-39888342D02*
X116562095Y-39983580D01*
X116562095Y-39983580D02*
X116609714Y-40031200D01*
X116609714Y-40031200D02*
X116704952Y-40078819D01*
X116704952Y-40078819D02*
X116895428Y-40078819D01*
X116895428Y-40078819D02*
X116990666Y-40031200D01*
X116990666Y-40031200D02*
X117038285Y-39983580D01*
X117038285Y-39983580D02*
X117085904Y-39888342D01*
X117085904Y-39888342D02*
X117085904Y-39650247D01*
X117085904Y-39650247D02*
X117038285Y-39555009D01*
X117038285Y-39555009D02*
X116990666Y-39507390D01*
X116990666Y-39507390D02*
X116895428Y-39459771D01*
X116895428Y-39459771D02*
X116704952Y-39459771D01*
X116704952Y-39459771D02*
X116609714Y-39507390D01*
X116609714Y-39507390D02*
X116562095Y-39555009D01*
X116562095Y-39555009D02*
X116514476Y-39650247D01*
X101719142Y-79448819D02*
X101385809Y-78972628D01*
X101147714Y-79448819D02*
X101147714Y-78448819D01*
X101147714Y-78448819D02*
X101528666Y-78448819D01*
X101528666Y-78448819D02*
X101623904Y-78496438D01*
X101623904Y-78496438D02*
X101671523Y-78544057D01*
X101671523Y-78544057D02*
X101719142Y-78639295D01*
X101719142Y-78639295D02*
X101719142Y-78782152D01*
X101719142Y-78782152D02*
X101671523Y-78877390D01*
X101671523Y-78877390D02*
X101623904Y-78925009D01*
X101623904Y-78925009D02*
X101528666Y-78972628D01*
X101528666Y-78972628D02*
X101147714Y-78972628D01*
X102671523Y-79448819D02*
X102100095Y-79448819D01*
X102385809Y-79448819D02*
X102385809Y-78448819D01*
X102385809Y-78448819D02*
X102290571Y-78591676D01*
X102290571Y-78591676D02*
X102195333Y-78686914D01*
X102195333Y-78686914D02*
X102100095Y-78734533D01*
X103623904Y-79448819D02*
X103052476Y-79448819D01*
X103338190Y-79448819D02*
X103338190Y-78448819D01*
X103338190Y-78448819D02*
X103242952Y-78591676D01*
X103242952Y-78591676D02*
X103147714Y-78686914D01*
X103147714Y-78686914D02*
X103052476Y-78734533D01*
X93683333Y-61759580D02*
X93635714Y-61807200D01*
X93635714Y-61807200D02*
X93492857Y-61854819D01*
X93492857Y-61854819D02*
X93397619Y-61854819D01*
X93397619Y-61854819D02*
X93254762Y-61807200D01*
X93254762Y-61807200D02*
X93159524Y-61711961D01*
X93159524Y-61711961D02*
X93111905Y-61616723D01*
X93111905Y-61616723D02*
X93064286Y-61426247D01*
X93064286Y-61426247D02*
X93064286Y-61283390D01*
X93064286Y-61283390D02*
X93111905Y-61092914D01*
X93111905Y-61092914D02*
X93159524Y-60997676D01*
X93159524Y-60997676D02*
X93254762Y-60902438D01*
X93254762Y-60902438D02*
X93397619Y-60854819D01*
X93397619Y-60854819D02*
X93492857Y-60854819D01*
X93492857Y-60854819D02*
X93635714Y-60902438D01*
X93635714Y-60902438D02*
X93683333Y-60950057D01*
X94064286Y-60950057D02*
X94111905Y-60902438D01*
X94111905Y-60902438D02*
X94207143Y-60854819D01*
X94207143Y-60854819D02*
X94445238Y-60854819D01*
X94445238Y-60854819D02*
X94540476Y-60902438D01*
X94540476Y-60902438D02*
X94588095Y-60950057D01*
X94588095Y-60950057D02*
X94635714Y-61045295D01*
X94635714Y-61045295D02*
X94635714Y-61140533D01*
X94635714Y-61140533D02*
X94588095Y-61283390D01*
X94588095Y-61283390D02*
X94016667Y-61854819D01*
X94016667Y-61854819D02*
X94635714Y-61854819D01*
X88765142Y-81131580D02*
X88717523Y-81179200D01*
X88717523Y-81179200D02*
X88574666Y-81226819D01*
X88574666Y-81226819D02*
X88479428Y-81226819D01*
X88479428Y-81226819D02*
X88336571Y-81179200D01*
X88336571Y-81179200D02*
X88241333Y-81083961D01*
X88241333Y-81083961D02*
X88193714Y-80988723D01*
X88193714Y-80988723D02*
X88146095Y-80798247D01*
X88146095Y-80798247D02*
X88146095Y-80655390D01*
X88146095Y-80655390D02*
X88193714Y-80464914D01*
X88193714Y-80464914D02*
X88241333Y-80369676D01*
X88241333Y-80369676D02*
X88336571Y-80274438D01*
X88336571Y-80274438D02*
X88479428Y-80226819D01*
X88479428Y-80226819D02*
X88574666Y-80226819D01*
X88574666Y-80226819D02*
X88717523Y-80274438D01*
X88717523Y-80274438D02*
X88765142Y-80322057D01*
X89098476Y-80226819D02*
X89717523Y-80226819D01*
X89717523Y-80226819D02*
X89384190Y-80607771D01*
X89384190Y-80607771D02*
X89527047Y-80607771D01*
X89527047Y-80607771D02*
X89622285Y-80655390D01*
X89622285Y-80655390D02*
X89669904Y-80703009D01*
X89669904Y-80703009D02*
X89717523Y-80798247D01*
X89717523Y-80798247D02*
X89717523Y-81036342D01*
X89717523Y-81036342D02*
X89669904Y-81131580D01*
X89669904Y-81131580D02*
X89622285Y-81179200D01*
X89622285Y-81179200D02*
X89527047Y-81226819D01*
X89527047Y-81226819D02*
X89241333Y-81226819D01*
X89241333Y-81226819D02*
X89146095Y-81179200D01*
X89146095Y-81179200D02*
X89098476Y-81131580D01*
X90622285Y-80226819D02*
X90146095Y-80226819D01*
X90146095Y-80226819D02*
X90098476Y-80703009D01*
X90098476Y-80703009D02*
X90146095Y-80655390D01*
X90146095Y-80655390D02*
X90241333Y-80607771D01*
X90241333Y-80607771D02*
X90479428Y-80607771D01*
X90479428Y-80607771D02*
X90574666Y-80655390D01*
X90574666Y-80655390D02*
X90622285Y-80703009D01*
X90622285Y-80703009D02*
X90669904Y-80798247D01*
X90669904Y-80798247D02*
X90669904Y-81036342D01*
X90669904Y-81036342D02*
X90622285Y-81131580D01*
X90622285Y-81131580D02*
X90574666Y-81179200D01*
X90574666Y-81179200D02*
X90479428Y-81226819D01*
X90479428Y-81226819D02*
X90241333Y-81226819D01*
X90241333Y-81226819D02*
X90146095Y-81179200D01*
X90146095Y-81179200D02*
X90098476Y-81131580D01*
X110166666Y-104804819D02*
X110166666Y-105519104D01*
X110166666Y-105519104D02*
X110119047Y-105661961D01*
X110119047Y-105661961D02*
X110023809Y-105757200D01*
X110023809Y-105757200D02*
X109880952Y-105804819D01*
X109880952Y-105804819D02*
X109785714Y-105804819D01*
X111071428Y-104804819D02*
X110880952Y-104804819D01*
X110880952Y-104804819D02*
X110785714Y-104852438D01*
X110785714Y-104852438D02*
X110738095Y-104900057D01*
X110738095Y-104900057D02*
X110642857Y-105042914D01*
X110642857Y-105042914D02*
X110595238Y-105233390D01*
X110595238Y-105233390D02*
X110595238Y-105614342D01*
X110595238Y-105614342D02*
X110642857Y-105709580D01*
X110642857Y-105709580D02*
X110690476Y-105757200D01*
X110690476Y-105757200D02*
X110785714Y-105804819D01*
X110785714Y-105804819D02*
X110976190Y-105804819D01*
X110976190Y-105804819D02*
X111071428Y-105757200D01*
X111071428Y-105757200D02*
X111119047Y-105709580D01*
X111119047Y-105709580D02*
X111166666Y-105614342D01*
X111166666Y-105614342D02*
X111166666Y-105376247D01*
X111166666Y-105376247D02*
X111119047Y-105281009D01*
X111119047Y-105281009D02*
X111071428Y-105233390D01*
X111071428Y-105233390D02*
X110976190Y-105185771D01*
X110976190Y-105185771D02*
X110785714Y-105185771D01*
X110785714Y-105185771D02*
X110690476Y-105233390D01*
X110690476Y-105233390D02*
X110642857Y-105281009D01*
X110642857Y-105281009D02*
X110595238Y-105376247D01*
D12*
%TO.C,C34*%
X95644580Y-37082000D02*
X95363420Y-37082000D01*
X95644580Y-38102000D02*
X95363420Y-38102000D01*
%TO.C,J10*%
X63715000Y-71550000D02*
X63715000Y-84670000D01*
X63715000Y-84670000D02*
X74235000Y-84670000D01*
X72125000Y-71250000D02*
X74535000Y-71250000D01*
X74235000Y-71550000D02*
X63715000Y-71550000D01*
X74235000Y-73200000D02*
X74235000Y-71550000D01*
X74235000Y-75720000D02*
X74235000Y-76700000D01*
X74235000Y-79220000D02*
X74235000Y-80200000D01*
X74235000Y-84670000D02*
X74235000Y-82720000D01*
X74535000Y-71250000D02*
X74535000Y-73200000D01*
%TO.C,J4*%
X79890000Y-106140000D02*
X82300000Y-106140000D01*
X79890000Y-108550000D02*
X79890000Y-106140000D01*
X80190000Y-106440000D02*
X80190000Y-114560000D01*
X80190000Y-114560000D02*
X97810000Y-114560000D01*
X97810000Y-106440000D02*
X80190000Y-106440000D01*
X97810000Y-114560000D02*
X97810000Y-106440000D01*
%TO.C,C27*%
X115540920Y-76740000D02*
X115822080Y-76740000D01*
X115540920Y-77760000D02*
X115822080Y-77760000D01*
%TO.C,C25*%
X105547080Y-66740000D02*
X105265920Y-66740000D01*
X105547080Y-67760000D02*
X105265920Y-67760000D01*
%TO.C,D3*%
X136473000Y-77988000D02*
X136473000Y-80273000D01*
X136473000Y-80273000D02*
X137943000Y-80273000D01*
X137943000Y-80273000D02*
X137943000Y-77988000D01*
%TO.C,R21*%
X139685500Y-82375742D02*
X139685500Y-82850258D01*
X140730500Y-82375742D02*
X140730500Y-82850258D01*
%TO.C,J2*%
X101666000Y-27834000D02*
X101666000Y-35954000D01*
X101666000Y-35954000D02*
X119286000Y-35954000D01*
X119286000Y-27834000D02*
X101666000Y-27834000D01*
X119286000Y-35954000D02*
X119286000Y-27834000D01*
X119586000Y-33844000D02*
X119586000Y-36254000D01*
X119586000Y-36254000D02*
X117176000Y-36254000D01*
%TO.C,C39*%
X105523420Y-103630000D02*
X105804580Y-103630000D01*
X105523420Y-104650000D02*
X105804580Y-104650000D01*
%TO.C,C31*%
X108047080Y-61942000D02*
X107765920Y-61942000D01*
X108047080Y-62962000D02*
X107765920Y-62962000D01*
%TO.C,TP2*%
X145408000Y-79500500D02*
G75*
G02*
X144008000Y-79500500I-700000J0D01*
G01*
X144008000Y-79500500D02*
G75*
G02*
X145408000Y-79500500I700000J0D01*
G01*
%TO.C,C1*%
X75840000Y-60253733D02*
X75840000Y-60546267D01*
X76860000Y-60253733D02*
X76860000Y-60546267D01*
%TO.C,J12*%
X76902000Y-77410000D02*
X78232000Y-77410000D01*
X76902000Y-78740000D02*
X76902000Y-77410000D01*
X76902000Y-80010000D02*
X76902000Y-82610000D01*
X76902000Y-80010000D02*
X79562000Y-80010000D01*
X76902000Y-82610000D02*
X79562000Y-82610000D01*
X79562000Y-80010000D02*
X79562000Y-82610000D01*
%TO.C,C33*%
X118893420Y-63857000D02*
X119174580Y-63857000D01*
X118893420Y-64877000D02*
X119174580Y-64877000D01*
%TO.C,J9*%
X136906000Y-58674000D02*
X138176000Y-58674000D01*
X136906000Y-59944000D02*
X136906000Y-58674000D01*
X139218929Y-62104000D02*
X139616000Y-62104000D01*
X139218929Y-62864000D02*
X139616000Y-62864000D01*
X139218929Y-64644000D02*
X139616000Y-64644000D01*
X139218929Y-65404000D02*
X139616000Y-65404000D01*
X139218929Y-67184000D02*
X139616000Y-67184000D01*
X139218929Y-67944000D02*
X139616000Y-67944000D01*
X139286000Y-59564000D02*
X139616000Y-59564000D01*
X139286000Y-60324000D02*
X139616000Y-60324000D01*
X139616000Y-58614000D02*
X139616000Y-68894000D01*
X139616000Y-61214000D02*
X142276000Y-61214000D01*
X139616000Y-63754000D02*
X142276000Y-63754000D01*
X139616000Y-66294000D02*
X142276000Y-66294000D01*
X139616000Y-68894000D02*
X142276000Y-68894000D01*
X142276000Y-58614000D02*
X139616000Y-58614000D01*
X142276000Y-59564000D02*
X148276000Y-59564000D01*
X142276000Y-59624000D02*
X148276000Y-59624000D01*
X142276000Y-59744000D02*
X148276000Y-59744000D01*
X142276000Y-59864000D02*
X148276000Y-59864000D01*
X142276000Y-59984000D02*
X148276000Y-59984000D01*
X142276000Y-60104000D02*
X148276000Y-60104000D01*
X142276000Y-60224000D02*
X148276000Y-60224000D01*
X142276000Y-62104000D02*
X148276000Y-62104000D01*
X142276000Y-64644000D02*
X148276000Y-64644000D01*
X142276000Y-67184000D02*
X148276000Y-67184000D01*
X142276000Y-68894000D02*
X142276000Y-58614000D01*
X148276000Y-59564000D02*
X148276000Y-60324000D01*
X148276000Y-60324000D02*
X142276000Y-60324000D01*
X148276000Y-62104000D02*
X148276000Y-62864000D01*
X148276000Y-62864000D02*
X142276000Y-62864000D01*
X148276000Y-64644000D02*
X148276000Y-65404000D01*
X148276000Y-65404000D02*
X142276000Y-65404000D01*
X148276000Y-67184000D02*
X148276000Y-67944000D01*
X148276000Y-67944000D02*
X142276000Y-67944000D01*
%TO.C,U3*%
X84328000Y-75672000D02*
X82378000Y-75672000D01*
X84328000Y-75672000D02*
X86278000Y-75672000D01*
X84328000Y-80792000D02*
X82378000Y-80792000D01*
X84328000Y-80792000D02*
X86278000Y-80792000D01*
X87268000Y-81027000D02*
X86788000Y-81027000D01*
X87028000Y-80697000D01*
X87268000Y-81027000D01*
G36*
X87268000Y-81027000D02*
G01*
X86788000Y-81027000D01*
X87028000Y-80697000D01*
X87268000Y-81027000D01*
G37*
%TO.C,J11*%
X63590000Y-52590000D02*
X63590000Y-62210000D01*
X63590000Y-62210000D02*
X74110000Y-62210000D01*
X72000000Y-52290000D02*
X74410000Y-52290000D01*
X74110000Y-52590000D02*
X63590000Y-52590000D01*
X74110000Y-54240000D02*
X74110000Y-52590000D01*
X74110000Y-56760000D02*
X74110000Y-57740000D01*
X74110000Y-62210000D02*
X74110000Y-60260000D01*
X74410000Y-52290000D02*
X74410000Y-54240000D01*
%TO.C,Y1*%
X122844000Y-70700000D02*
X118844000Y-70700000D01*
X122844000Y-74000000D02*
X122844000Y-70700000D01*
%TO.C,C42*%
X116884000Y-73884165D02*
X116884000Y-74115835D01*
X117604000Y-73884165D02*
X117604000Y-74115835D01*
%TO.C,C41*%
X116884000Y-70615835D02*
X116884000Y-70384165D01*
X117604000Y-70615835D02*
X117604000Y-70384165D01*
%TO.C,C26*%
X105047080Y-75740000D02*
X104765920Y-75740000D01*
X105047080Y-76760000D02*
X104765920Y-76760000D01*
%TO.C,C29*%
X104547080Y-59942000D02*
X104265920Y-59942000D01*
X104547080Y-60962000D02*
X104265920Y-60962000D01*
%TO.C,J8*%
X122390000Y-106140000D02*
X124800000Y-106140000D01*
X122390000Y-108550000D02*
X122390000Y-106140000D01*
X122690000Y-106440000D02*
X122690000Y-114560000D01*
X122690000Y-114560000D02*
X140310000Y-114560000D01*
X140310000Y-106440000D02*
X122690000Y-106440000D01*
X140310000Y-114560000D02*
X140310000Y-106440000D01*
%TO.C,J5*%
X98731000Y-80712000D02*
X98731000Y-83372000D01*
X103871000Y-80712000D02*
X98731000Y-80712000D01*
X103871000Y-80712000D02*
X103871000Y-83372000D01*
X103871000Y-83372000D02*
X98731000Y-83372000D01*
X105141000Y-80712000D02*
X106471000Y-80712000D01*
X106471000Y-80712000D02*
X106471000Y-82042000D01*
%TO.C,U2*%
X81380000Y-54022500D02*
X81380000Y-54292500D01*
X81380000Y-60922500D02*
X81380000Y-60652500D01*
X87800000Y-54022500D02*
X81380000Y-54022500D01*
X87800000Y-60922500D02*
X81380000Y-60922500D01*
X79650000Y-54332500D02*
X79310000Y-53862500D01*
X79990000Y-53862500D01*
X79650000Y-54332500D01*
G36*
X79650000Y-54332500D02*
G01*
X79310000Y-53862500D01*
X79990000Y-53862500D01*
X79650000Y-54332500D01*
G37*
%TO.C,C30*%
X111040920Y-61942000D02*
X111322080Y-61942000D01*
X111040920Y-62962000D02*
X111322080Y-62962000D01*
%TO.C,R16*%
X136685500Y-82375742D02*
X136685500Y-82850258D01*
X137730500Y-82375742D02*
X137730500Y-82850258D01*
%TO.C,D5*%
X139473000Y-77988000D02*
X139473000Y-80273000D01*
X139473000Y-80273000D02*
X140943000Y-80273000D01*
X140943000Y-80273000D02*
X140943000Y-77988000D01*
%TO.C,C32*%
X108047080Y-63942000D02*
X107765920Y-63942000D01*
X108047080Y-64962000D02*
X107765920Y-64962000D01*
%TO.C,C3*%
X90840000Y-58753733D02*
X90840000Y-59046267D01*
X91860000Y-58753733D02*
X91860000Y-59046267D01*
%TO.C,C37*%
X137033580Y-37082000D02*
X136752420Y-37082000D01*
X137033580Y-38102000D02*
X136752420Y-38102000D01*
%TO.C,C38*%
X84187420Y-103630000D02*
X84468580Y-103630000D01*
X84187420Y-104650000D02*
X84468580Y-104650000D01*
%TO.C,SW1*%
X115034000Y-58617000D02*
X115034000Y-60117000D01*
X116284000Y-62617000D02*
X120784000Y-62617000D01*
X120784000Y-56117000D02*
X116284000Y-56117000D01*
X122034000Y-60117000D02*
X122034000Y-58617000D01*
%TO.C,J7*%
X136906000Y-88138000D02*
X138176000Y-88138000D01*
X136906000Y-89408000D02*
X136906000Y-88138000D01*
X139218929Y-91568000D02*
X139616000Y-91568000D01*
X139218929Y-92328000D02*
X139616000Y-92328000D01*
X139218929Y-94108000D02*
X139616000Y-94108000D01*
X139218929Y-94868000D02*
X139616000Y-94868000D01*
X139218929Y-96648000D02*
X139616000Y-96648000D01*
X139218929Y-97408000D02*
X139616000Y-97408000D01*
X139286000Y-89028000D02*
X139616000Y-89028000D01*
X139286000Y-89788000D02*
X139616000Y-89788000D01*
X139616000Y-88078000D02*
X139616000Y-98358000D01*
X139616000Y-90678000D02*
X142276000Y-90678000D01*
X139616000Y-93218000D02*
X142276000Y-93218000D01*
X139616000Y-95758000D02*
X142276000Y-95758000D01*
X139616000Y-98358000D02*
X142276000Y-98358000D01*
X142276000Y-88078000D02*
X139616000Y-88078000D01*
X142276000Y-89028000D02*
X148276000Y-89028000D01*
X142276000Y-89088000D02*
X148276000Y-89088000D01*
X142276000Y-89208000D02*
X148276000Y-89208000D01*
X142276000Y-89328000D02*
X148276000Y-89328000D01*
X142276000Y-89448000D02*
X148276000Y-89448000D01*
X142276000Y-89568000D02*
X148276000Y-89568000D01*
X142276000Y-89688000D02*
X148276000Y-89688000D01*
X142276000Y-91568000D02*
X148276000Y-91568000D01*
X142276000Y-94108000D02*
X148276000Y-94108000D01*
X142276000Y-96648000D02*
X148276000Y-96648000D01*
X142276000Y-98358000D02*
X142276000Y-88078000D01*
X148276000Y-89028000D02*
X148276000Y-89788000D01*
X148276000Y-89788000D02*
X142276000Y-89788000D01*
X148276000Y-91568000D02*
X148276000Y-92328000D01*
X148276000Y-92328000D02*
X142276000Y-92328000D01*
X148276000Y-94108000D02*
X148276000Y-94868000D01*
X148276000Y-94868000D02*
X142276000Y-94868000D01*
X148276000Y-96648000D02*
X148276000Y-97408000D01*
X148276000Y-97408000D02*
X142276000Y-97408000D01*
%TO.C,FB1*%
X107743721Y-59942000D02*
X108069279Y-59942000D01*
X107743721Y-60962000D02*
X108069279Y-60962000D01*
%TO.C,J3*%
X122916000Y-27834000D02*
X122916000Y-35954000D01*
X122916000Y-35954000D02*
X140536000Y-35954000D01*
X140536000Y-27834000D02*
X122916000Y-27834000D01*
X140536000Y-35954000D02*
X140536000Y-27834000D01*
X140836000Y-33844000D02*
X140836000Y-36254000D01*
X140836000Y-36254000D02*
X138426000Y-36254000D01*
%TO.C,J13*%
X136906000Y-45974000D02*
X138176000Y-45974000D01*
X136906000Y-47244000D02*
X136906000Y-45974000D01*
X139218929Y-49404000D02*
X139616000Y-49404000D01*
X139218929Y-50164000D02*
X139616000Y-50164000D01*
X139218929Y-51944000D02*
X139616000Y-51944000D01*
X139218929Y-52704000D02*
X139616000Y-52704000D01*
X139218929Y-54484000D02*
X139616000Y-54484000D01*
X139218929Y-55244000D02*
X139616000Y-55244000D01*
X139286000Y-46864000D02*
X139616000Y-46864000D01*
X139286000Y-47624000D02*
X139616000Y-47624000D01*
X139616000Y-45914000D02*
X139616000Y-56194000D01*
X139616000Y-48514000D02*
X142276000Y-48514000D01*
X139616000Y-51054000D02*
X142276000Y-51054000D01*
X139616000Y-53594000D02*
X142276000Y-53594000D01*
X139616000Y-56194000D02*
X142276000Y-56194000D01*
X142276000Y-45914000D02*
X139616000Y-45914000D01*
X142276000Y-46864000D02*
X148276000Y-46864000D01*
X142276000Y-46924000D02*
X148276000Y-46924000D01*
X142276000Y-47044000D02*
X148276000Y-47044000D01*
X142276000Y-47164000D02*
X148276000Y-47164000D01*
X142276000Y-47284000D02*
X148276000Y-47284000D01*
X142276000Y-47404000D02*
X148276000Y-47404000D01*
X142276000Y-47524000D02*
X148276000Y-47524000D01*
X142276000Y-49404000D02*
X148276000Y-49404000D01*
X142276000Y-51944000D02*
X148276000Y-51944000D01*
X142276000Y-54484000D02*
X148276000Y-54484000D01*
X142276000Y-56194000D02*
X142276000Y-45914000D01*
X148276000Y-46864000D02*
X148276000Y-47624000D01*
X148276000Y-47624000D02*
X142276000Y-47624000D01*
X148276000Y-49404000D02*
X148276000Y-50164000D01*
X148276000Y-50164000D02*
X142276000Y-50164000D01*
X148276000Y-51944000D02*
X148276000Y-52704000D01*
X148276000Y-52704000D02*
X142276000Y-52704000D01*
X148276000Y-54484000D02*
X148276000Y-55244000D01*
X148276000Y-55244000D02*
X142276000Y-55244000D01*
%TO.C,J1*%
X81166000Y-27834000D02*
X81166000Y-35954000D01*
X81166000Y-35954000D02*
X98786000Y-35954000D01*
X98786000Y-27834000D02*
X81166000Y-27834000D01*
X98786000Y-35954000D02*
X98786000Y-27834000D01*
X99086000Y-33844000D02*
X99086000Y-36254000D01*
X99086000Y-36254000D02*
X96676000Y-36254000D01*
%TO.C,R22*%
X81265500Y-83041258D02*
X81265500Y-82566742D01*
X82310500Y-83041258D02*
X82310500Y-82566742D01*
%TO.C,R18*%
X77709500Y-74913258D02*
X77709500Y-74438742D01*
X78754500Y-74913258D02*
X78754500Y-74438742D01*
%TO.C,C28*%
X111040920Y-63942000D02*
X111322080Y-63942000D01*
X111040920Y-64962000D02*
X111322080Y-64962000D01*
%TO.C,U1*%
X107134000Y-68390000D02*
X107134000Y-68840000D01*
X107134000Y-75610000D02*
X107134000Y-75160000D01*
X107584000Y-68390000D02*
X107134000Y-68390000D01*
X107584000Y-75610000D02*
X107134000Y-75610000D01*
X113904000Y-68390000D02*
X114354000Y-68390000D01*
X113904000Y-75610000D02*
X114354000Y-75610000D01*
X114354000Y-68390000D02*
X114354000Y-68840000D01*
X114354000Y-75610000D02*
X114354000Y-75160000D01*
X115284000Y-75630000D02*
X114604000Y-75630000D01*
X114944000Y-75160000D01*
X115284000Y-75630000D01*
G36*
X115284000Y-75630000D02*
G01*
X114604000Y-75630000D01*
X114944000Y-75160000D01*
X115284000Y-75630000D01*
G37*
%TO.C,C40*%
X126351420Y-103630000D02*
X126632580Y-103630000D01*
X126351420Y-104650000D02*
X126632580Y-104650000D01*
%TO.C,C36*%
X115964580Y-37082000D02*
X115683420Y-37082000D01*
X115964580Y-38102000D02*
X115683420Y-38102000D01*
%TO.C,R11*%
X105172742Y-78725500D02*
X105647258Y-78725500D01*
X105172742Y-79770500D02*
X105647258Y-79770500D01*
%TO.C,C2*%
X92840000Y-58753733D02*
X92840000Y-59046267D01*
X93860000Y-58753733D02*
X93860000Y-59046267D01*
%TO.C,C35*%
X88465000Y-77969420D02*
X88465000Y-78250580D01*
X89485000Y-77969420D02*
X89485000Y-78250580D01*
%TO.C,J6*%
X101390000Y-106140000D02*
X103800000Y-106140000D01*
X101390000Y-108550000D02*
X101390000Y-106140000D01*
X101690000Y-106440000D02*
X101690000Y-114560000D01*
X101690000Y-114560000D02*
X119310000Y-114560000D01*
X119310000Y-106440000D02*
X101690000Y-106440000D01*
X119310000Y-114560000D02*
X119310000Y-106440000D01*
%TD*%
M02*
