%TF.GenerationSoftware,KiCad,Pcbnew,9.0.0*%
%TF.CreationDate,2026-08-02T16:23:24+09:00*%
%TF.ProjectId,SENSOR_ECU_PCB_V1,53454e53-4f52-45f4-9543-555f5043425f,rev?*%
%TF.SameCoordinates,Original*%
%TF.FileFunction,Paste,Top*%
%TF.FilePolarity,Positive*%
%FSLAX46Y46*%
G04 Gerber Fmt 4.6, Leading zero omitted, Abs format (unit mm)*
G04 Created by KiCad (PCBNEW 9.0.0) date 2026-08-02 16:23:24*
%MOMM*%
%LPD*%
G01*
G04 APERTURE LIST*
G04 Aperture macros list*
%AMRoundRect*
0 Rectangle with rounded corners*
0 $1 Rounding radius*
0 $2 $3 $4 $5 $6 $7 $8 $9 X,Y pos of 4 corners*
0 Add a 4 corners polygon primitive as box body*
4,1,4,$2,$3,$4,$5,$6,$7,$8,$9,$2,$3,0*
0 Add four circle primitives for the rounded corners*
1,1,$1+$1,$2,$3*
1,1,$1+$1,$4,$5*
1,1,$1+$1,$6,$7*
1,1,$1+$1,$8,$9*
0 Add four rect primitives between the rounded corners*
20,1,$1+$1,$2,$3,$4,$5,0*
20,1,$1+$1,$4,$5,$6,$7,0*
20,1,$1+$1,$6,$7,$8,$9,0*
20,1,$1+$1,$8,$9,$2,$3,0*%
G04 Aperture macros list end*
%ADD10RoundRect,0.225000X0.225000X0.250000X-0.225000X0.250000X-0.225000X-0.250000X0.225000X-0.250000X0*%
%ADD11RoundRect,0.225000X-0.225000X-0.250000X0.225000X-0.250000X0.225000X0.250000X-0.225000X0.250000X0*%
%ADD12RoundRect,0.218750X0.256250X-0.218750X0.256250X0.218750X-0.256250X0.218750X-0.256250X-0.218750X0*%
%ADD13RoundRect,0.200000X-0.275000X0.200000X-0.275000X-0.200000X0.275000X-0.200000X0.275000X0.200000X0*%
%ADD14RoundRect,0.237500X-0.237500X0.300000X-0.237500X-0.300000X0.237500X-0.300000X0.237500X0.300000X0*%
%ADD15RoundRect,0.150000X0.825000X0.150000X-0.825000X0.150000X-0.825000X-0.150000X0.825000X-0.150000X0*%
%ADD16R,1.400000X1.200000*%
%ADD17RoundRect,0.155000X-0.155000X0.212500X-0.155000X-0.212500X0.155000X-0.212500X0.155000X0.212500X0*%
%ADD18RoundRect,0.155000X0.155000X-0.212500X0.155000X0.212500X-0.155000X0.212500X-0.155000X-0.212500X0*%
%ADD19RoundRect,0.250000X-0.850000X-0.350000X0.850000X-0.350000X0.850000X0.350000X-0.850000X0.350000X0*%
%ADD20RoundRect,0.250000X-1.275000X-1.125000X1.275000X-1.125000X1.275000X1.125000X-1.275000X1.125000X0*%
%ADD21RoundRect,0.218750X-0.218750X-0.256250X0.218750X-0.256250X0.218750X0.256250X-0.218750X0.256250X0*%
%ADD22RoundRect,0.200000X0.275000X-0.200000X0.275000X0.200000X-0.275000X0.200000X-0.275000X-0.200000X0*%
%ADD23RoundRect,0.075000X0.662500X0.075000X-0.662500X0.075000X-0.662500X-0.075000X0.662500X-0.075000X0*%
%ADD24RoundRect,0.075000X0.075000X0.662500X-0.075000X0.662500X-0.075000X-0.662500X0.075000X-0.662500X0*%
%ADD25RoundRect,0.200000X-0.200000X-0.275000X0.200000X-0.275000X0.200000X0.275000X-0.200000X0.275000X0*%
%ADD26RoundRect,0.225000X-0.250000X0.225000X-0.250000X-0.225000X0.250000X-0.225000X0.250000X0.225000X0*%
G04 APERTURE END LIST*
D10*
%TO.C,C34*%
X96279000Y-37592000D03*
X94729000Y-37592000D03*
%TD*%
D11*
%TO.C,C27*%
X114906500Y-77250000D03*
X116456500Y-77250000D03*
%TD*%
D10*
%TO.C,C25*%
X106181500Y-67250000D03*
X104631500Y-67250000D03*
%TD*%
D12*
%TO.C,D3*%
X137208000Y-79575500D03*
X137208000Y-78000500D03*
%TD*%
D13*
%TO.C,R21*%
X140208000Y-81788000D03*
X140208000Y-83438000D03*
%TD*%
D11*
%TO.C,C39*%
X104889000Y-104140000D03*
X106439000Y-104140000D03*
%TD*%
D10*
%TO.C,C31*%
X108681500Y-62452000D03*
X107131500Y-62452000D03*
%TD*%
D14*
%TO.C,C1*%
X76350000Y-59537500D03*
X76350000Y-61262500D03*
%TD*%
D11*
%TO.C,C33*%
X118259000Y-64367000D03*
X119809000Y-64367000D03*
%TD*%
D15*
%TO.C,U3*%
X86803000Y-80137000D03*
X86803000Y-78867000D03*
X86803000Y-77597000D03*
X86803000Y-76327000D03*
X81853000Y-76327000D03*
X81853000Y-77597000D03*
X81853000Y-78867000D03*
X81853000Y-80137000D03*
%TD*%
D16*
%TO.C,Y1*%
X121944000Y-71500000D03*
X119744000Y-71500000D03*
X119744000Y-73200000D03*
X121944000Y-73200000D03*
%TD*%
D17*
%TO.C,C42*%
X117244000Y-73432500D03*
X117244000Y-74567500D03*
%TD*%
D18*
%TO.C,C41*%
X117244000Y-71067500D03*
X117244000Y-69932500D03*
%TD*%
D10*
%TO.C,C26*%
X105681500Y-76250000D03*
X104131500Y-76250000D03*
%TD*%
%TO.C,C29*%
X105181500Y-60452000D03*
X103631500Y-60452000D03*
%TD*%
D19*
%TO.C,U2*%
X79650000Y-55192500D03*
D20*
X84275000Y-55947500D03*
X84275000Y-58997500D03*
X87625000Y-55947500D03*
X87625000Y-58997500D03*
D19*
X79650000Y-59752500D03*
%TD*%
D11*
%TO.C,C30*%
X110406500Y-62452000D03*
X111956500Y-62452000D03*
%TD*%
D13*
%TO.C,R16*%
X137208000Y-81788000D03*
X137208000Y-83438000D03*
%TD*%
D12*
%TO.C,D5*%
X140208000Y-79575500D03*
X140208000Y-78000500D03*
%TD*%
D10*
%TO.C,C32*%
X108681500Y-64452000D03*
X107131500Y-64452000D03*
%TD*%
D14*
%TO.C,C3*%
X91350000Y-58037500D03*
X91350000Y-59762500D03*
%TD*%
D10*
%TO.C,C37*%
X137668000Y-37592000D03*
X136118000Y-37592000D03*
%TD*%
D11*
%TO.C,C38*%
X83553000Y-104140000D03*
X85103000Y-104140000D03*
%TD*%
D21*
%TO.C,FB1*%
X107119000Y-60452000D03*
X108694000Y-60452000D03*
%TD*%
D22*
%TO.C,R22*%
X81788000Y-83629000D03*
X81788000Y-81979000D03*
%TD*%
%TO.C,R18*%
X78232000Y-75501000D03*
X78232000Y-73851000D03*
%TD*%
D11*
%TO.C,C28*%
X110406500Y-64452000D03*
X111956500Y-64452000D03*
%TD*%
D23*
%TO.C,U1*%
X114906500Y-74750000D03*
X114906500Y-74250000D03*
X114906500Y-73750000D03*
X114906500Y-73250000D03*
X114906500Y-72750000D03*
X114906500Y-72250000D03*
X114906500Y-71750000D03*
X114906500Y-71250000D03*
X114906500Y-70750000D03*
X114906500Y-70250000D03*
X114906500Y-69750000D03*
X114906500Y-69250000D03*
D24*
X113494000Y-67837500D03*
X112994000Y-67837500D03*
X112494000Y-67837500D03*
X111994000Y-67837500D03*
X111494000Y-67837500D03*
X110994000Y-67837500D03*
X110494000Y-67837500D03*
X109994000Y-67837500D03*
X109494000Y-67837500D03*
X108994000Y-67837500D03*
X108494000Y-67837500D03*
X107994000Y-67837500D03*
D23*
X106581500Y-69250000D03*
X106581500Y-69750000D03*
X106581500Y-70250000D03*
X106581500Y-70750000D03*
X106581500Y-71250000D03*
X106581500Y-71750000D03*
X106581500Y-72250000D03*
X106581500Y-72750000D03*
X106581500Y-73250000D03*
X106581500Y-73750000D03*
X106581500Y-74250000D03*
X106581500Y-74750000D03*
D24*
X107994000Y-76162500D03*
X108494000Y-76162500D03*
X108994000Y-76162500D03*
X109494000Y-76162500D03*
X109994000Y-76162500D03*
X110494000Y-76162500D03*
X110994000Y-76162500D03*
X111494000Y-76162500D03*
X111994000Y-76162500D03*
X112494000Y-76162500D03*
X112994000Y-76162500D03*
X113494000Y-76162500D03*
%TD*%
D11*
%TO.C,C40*%
X125717000Y-104140000D03*
X127267000Y-104140000D03*
%TD*%
D10*
%TO.C,C36*%
X116599000Y-37592000D03*
X115049000Y-37592000D03*
%TD*%
D25*
%TO.C,R11*%
X104585000Y-79248000D03*
X106235000Y-79248000D03*
%TD*%
D14*
%TO.C,C2*%
X93350000Y-58037500D03*
X93350000Y-59762500D03*
%TD*%
D26*
%TO.C,C35*%
X88975000Y-77335000D03*
X88975000Y-78885000D03*
%TD*%
M02*
