%TF.GenerationSoftware,KiCad,Pcbnew,9.0.0*%
%TF.CreationDate,2026-08-02T16:23:24+09:00*%
%TF.ProjectId,SENSOR_ECU_PCB_V1,53454e53-4f52-45f4-9543-555f5043425f,rev?*%
%TF.SameCoordinates,Original*%
%TF.FileFunction,Soldermask,Top*%
%TF.FilePolarity,Negative*%
%FSLAX46Y46*%
G04 Gerber Fmt 4.6, Leading zero omitted, Abs format (unit mm)*
G04 Created by KiCad (PCBNEW 9.0.0) date 2026-08-02 16:23:24*
%MOMM*%
%LPD*%
G01*
G04 APERTURE LIST*
G04 Aperture macros list*
%AMRoundRect*
0 Rectangle with rounded corners*
0 $1 Rounding radius*
0 $2 $3 $4 $5 $6 $7 $8 $9 X,Y pos of 4 corners*
0 Add a 4 corners polygon primitive as box body*
4,1,4,$2,$3,$4,$5,$6,$7,$8,$9,$2,$3,0*
0 Add four circle primitives for the rounded corners*
1,1,$1+$1,$2,$3*
1,1,$1+$1,$4,$5*
1,1,$1+$1,$6,$7*
1,1,$1+$1,$8,$9*
0 Add four rect primitives between the rounded corners*
20,1,$1+$1,$2,$3,$4,$5,0*
20,1,$1+$1,$4,$5,$6,$7,0*
20,1,$1+$1,$6,$7,$8,$9,0*
20,1,$1+$1,$8,$9,$2,$3,0*%
G04 Aperture macros list end*
%ADD10RoundRect,0.225000X0.225000X0.250000X-0.225000X0.250000X-0.225000X-0.250000X0.225000X-0.250000X0*%
%ADD11RoundRect,0.250000X-1.050000X0.750000X-1.050000X-0.750000X1.050000X-0.750000X1.050000X0.750000X0*%
%ADD12O,2.600000X2.000000*%
%ADD13RoundRect,0.250000X-0.600000X-0.675000X0.600000X-0.675000X0.600000X0.675000X-0.600000X0.675000X0*%
%ADD14O,1.700000X1.850000*%
%ADD15RoundRect,0.225000X-0.225000X-0.250000X0.225000X-0.250000X0.225000X0.250000X-0.225000X0.250000X0*%
%ADD16RoundRect,0.218750X0.256250X-0.218750X0.256250X0.218750X-0.256250X0.218750X-0.256250X-0.218750X0*%
%ADD17RoundRect,0.200000X-0.275000X0.200000X-0.275000X-0.200000X0.275000X-0.200000X0.275000X0.200000X0*%
%ADD18RoundRect,0.250000X0.600000X0.675000X-0.600000X0.675000X-0.600000X-0.675000X0.600000X-0.675000X0*%
%ADD19C,3.200000*%
%ADD20C,1.000000*%
%ADD21RoundRect,0.237500X-0.237500X0.300000X-0.237500X-0.300000X0.237500X-0.300000X0.237500X0.300000X0*%
%ADD22R,1.700000X1.700000*%
%ADD23O,1.700000X1.700000*%
%ADD24RoundRect,0.150000X0.825000X0.150000X-0.825000X0.150000X-0.825000X-0.150000X0.825000X-0.150000X0*%
%ADD25R,1.400000X1.200000*%
%ADD26RoundRect,0.155000X-0.155000X0.212500X-0.155000X-0.212500X0.155000X-0.212500X0.155000X0.212500X0*%
%ADD27RoundRect,0.155000X0.155000X-0.212500X0.155000X0.212500X-0.155000X0.212500X-0.155000X-0.212500X0*%
%ADD28RoundRect,0.250000X-0.850000X-0.350000X0.850000X-0.350000X0.850000X0.350000X-0.850000X0.350000X0*%
%ADD29RoundRect,0.249997X-2.950003X-2.650003X2.950003X-2.650003X2.950003X2.650003X-2.950003X2.650003X0*%
%ADD30C,2.000000*%
%ADD31RoundRect,0.218750X-0.218750X-0.256250X0.218750X-0.256250X0.218750X0.256250X-0.218750X0.256250X0*%
%ADD32RoundRect,0.200000X0.275000X-0.200000X0.275000X0.200000X-0.275000X0.200000X-0.275000X-0.200000X0*%
%ADD33RoundRect,0.075000X0.662500X0.075000X-0.662500X0.075000X-0.662500X-0.075000X0.662500X-0.075000X0*%
%ADD34RoundRect,0.075000X0.075000X0.662500X-0.075000X0.662500X-0.075000X-0.662500X0.075000X-0.662500X0*%
%ADD35RoundRect,0.200000X-0.200000X-0.275000X0.200000X-0.275000X0.200000X0.275000X-0.200000X0.275000X0*%
%ADD36RoundRect,0.225000X-0.250000X0.225000X-0.250000X-0.225000X0.250000X-0.225000X0.250000X0.225000X0*%
G04 APERTURE END LIST*
D10*
%TO.C,C34*%
X96279000Y-37592000D03*
X94729000Y-37592000D03*
%TD*%
D11*
%TO.C,J10*%
X73125000Y-74460000D03*
D12*
X73125000Y-77960000D03*
X73125000Y-81460000D03*
%TD*%
D13*
%TO.C,J4*%
X82750000Y-107850000D03*
D14*
X85250000Y-107850000D03*
X87750000Y-107850000D03*
X90250000Y-107850000D03*
X92750000Y-107850000D03*
X95250000Y-107850000D03*
%TD*%
D15*
%TO.C,C27*%
X114906500Y-77250000D03*
X116456500Y-77250000D03*
%TD*%
D10*
%TO.C,C25*%
X106181500Y-67250000D03*
X104631500Y-67250000D03*
%TD*%
D16*
%TO.C,D3*%
X137208000Y-79575500D03*
X137208000Y-78000500D03*
%TD*%
D17*
%TO.C,R21*%
X140208000Y-81788000D03*
X140208000Y-83438000D03*
%TD*%
D18*
%TO.C,J2*%
X116726000Y-34544000D03*
D14*
X114226000Y-34544000D03*
X111726000Y-34544000D03*
X109226000Y-34544000D03*
X106726000Y-34544000D03*
X104226000Y-34544000D03*
%TD*%
D19*
%TO.C,H3*%
X75000000Y-106000000D03*
%TD*%
D15*
%TO.C,C39*%
X104889000Y-104140000D03*
X106439000Y-104140000D03*
%TD*%
D10*
%TO.C,C31*%
X108681500Y-62452000D03*
X107131500Y-62452000D03*
%TD*%
D20*
%TO.C,TP2*%
X144708000Y-79500500D03*
%TD*%
D21*
%TO.C,C1*%
X76350000Y-59537500D03*
X76350000Y-61262500D03*
%TD*%
D22*
%TO.C,J12*%
X78232000Y-78740000D03*
D23*
X78232000Y-81280000D03*
%TD*%
D15*
%TO.C,C33*%
X118259000Y-64367000D03*
X119809000Y-64367000D03*
%TD*%
D19*
%TO.C,H2*%
X145000000Y-36000000D03*
%TD*%
D22*
%TO.C,J9*%
X138176000Y-59944000D03*
D23*
X138176000Y-62484000D03*
X138176000Y-65024000D03*
X138176000Y-67564000D03*
%TD*%
D24*
%TO.C,U3*%
X86803000Y-80137000D03*
X86803000Y-78867000D03*
X86803000Y-77597000D03*
X86803000Y-76327000D03*
X81853000Y-76327000D03*
X81853000Y-77597000D03*
X81853000Y-78867000D03*
X81853000Y-80137000D03*
%TD*%
D11*
%TO.C,J11*%
X73000000Y-55500000D03*
D12*
X73000000Y-59000000D03*
%TD*%
D25*
%TO.C,Y1*%
X121944000Y-71500000D03*
X119744000Y-71500000D03*
X119744000Y-73200000D03*
X121944000Y-73200000D03*
%TD*%
D26*
%TO.C,C42*%
X117244000Y-73432500D03*
X117244000Y-74567500D03*
%TD*%
D27*
%TO.C,C41*%
X117244000Y-71067500D03*
X117244000Y-69932500D03*
%TD*%
D10*
%TO.C,C26*%
X105681500Y-76250000D03*
X104131500Y-76250000D03*
%TD*%
%TO.C,C29*%
X105181500Y-60452000D03*
X103631500Y-60452000D03*
%TD*%
D13*
%TO.C,J8*%
X125250000Y-107850000D03*
D14*
X127750000Y-107850000D03*
X130250000Y-107850000D03*
X132750000Y-107850000D03*
X135250000Y-107850000D03*
X137750000Y-107850000D03*
%TD*%
D22*
%TO.C,J5*%
X105141000Y-82042000D03*
D23*
X102601000Y-82042000D03*
X100061000Y-82042000D03*
%TD*%
D28*
%TO.C,U2*%
X79650000Y-55192500D03*
D29*
X85950000Y-57472500D03*
D28*
X79650000Y-59752500D03*
%TD*%
D15*
%TO.C,C30*%
X110406500Y-62452000D03*
X111956500Y-62452000D03*
%TD*%
D17*
%TO.C,R16*%
X137208000Y-81788000D03*
X137208000Y-83438000D03*
%TD*%
D16*
%TO.C,D5*%
X140208000Y-79575500D03*
X140208000Y-78000500D03*
%TD*%
D10*
%TO.C,C32*%
X108681500Y-64452000D03*
X107131500Y-64452000D03*
%TD*%
D21*
%TO.C,C3*%
X91350000Y-58037500D03*
X91350000Y-59762500D03*
%TD*%
D10*
%TO.C,C37*%
X137668000Y-37592000D03*
X136118000Y-37592000D03*
%TD*%
D15*
%TO.C,C38*%
X83553000Y-104140000D03*
X85103000Y-104140000D03*
%TD*%
D30*
%TO.C,SW1*%
X115284000Y-57117000D03*
X121784000Y-57117000D03*
X115284000Y-61617000D03*
X121784000Y-61617000D03*
%TD*%
D22*
%TO.C,J7*%
X138176000Y-89408000D03*
D23*
X138176000Y-91948000D03*
X138176000Y-94488000D03*
X138176000Y-97028000D03*
%TD*%
D31*
%TO.C,FB1*%
X107119000Y-60452000D03*
X108694000Y-60452000D03*
%TD*%
D18*
%TO.C,J3*%
X137976000Y-34544000D03*
D14*
X135476000Y-34544000D03*
X132976000Y-34544000D03*
X130476000Y-34544000D03*
X127976000Y-34544000D03*
X125476000Y-34544000D03*
%TD*%
D22*
%TO.C,J13*%
X138176000Y-47244000D03*
D23*
X138176000Y-49784000D03*
X138176000Y-52324000D03*
X138176000Y-54864000D03*
%TD*%
D18*
%TO.C,J1*%
X96226000Y-34544000D03*
D14*
X93726000Y-34544000D03*
X91226000Y-34544000D03*
X88726000Y-34544000D03*
X86226000Y-34544000D03*
X83726000Y-34544000D03*
%TD*%
D32*
%TO.C,R22*%
X81788000Y-83629000D03*
X81788000Y-81979000D03*
%TD*%
%TO.C,R18*%
X78232000Y-75501000D03*
X78232000Y-73851000D03*
%TD*%
D15*
%TO.C,C28*%
X110406500Y-64452000D03*
X111956500Y-64452000D03*
%TD*%
D33*
%TO.C,U1*%
X114906500Y-74750000D03*
X114906500Y-74250000D03*
X114906500Y-73750000D03*
X114906500Y-73250000D03*
X114906500Y-72750000D03*
X114906500Y-72250000D03*
X114906500Y-71750000D03*
X114906500Y-71250000D03*
X114906500Y-70750000D03*
X114906500Y-70250000D03*
X114906500Y-69750000D03*
X114906500Y-69250000D03*
D34*
X113494000Y-67837500D03*
X112994000Y-67837500D03*
X112494000Y-67837500D03*
X111994000Y-67837500D03*
X111494000Y-67837500D03*
X110994000Y-67837500D03*
X110494000Y-67837500D03*
X109994000Y-67837500D03*
X109494000Y-67837500D03*
X108994000Y-67837500D03*
X108494000Y-67837500D03*
X107994000Y-67837500D03*
D33*
X106581500Y-69250000D03*
X106581500Y-69750000D03*
X106581500Y-70250000D03*
X106581500Y-70750000D03*
X106581500Y-71250000D03*
X106581500Y-71750000D03*
X106581500Y-72250000D03*
X106581500Y-72750000D03*
X106581500Y-73250000D03*
X106581500Y-73750000D03*
X106581500Y-74250000D03*
X106581500Y-74750000D03*
D34*
X107994000Y-76162500D03*
X108494000Y-76162500D03*
X108994000Y-76162500D03*
X109494000Y-76162500D03*
X109994000Y-76162500D03*
X110494000Y-76162500D03*
X110994000Y-76162500D03*
X111494000Y-76162500D03*
X111994000Y-76162500D03*
X112494000Y-76162500D03*
X112994000Y-76162500D03*
X113494000Y-76162500D03*
%TD*%
D19*
%TO.C,H4*%
X145000000Y-106000000D03*
%TD*%
D15*
%TO.C,C40*%
X125717000Y-104140000D03*
X127267000Y-104140000D03*
%TD*%
D10*
%TO.C,C36*%
X116599000Y-37592000D03*
X115049000Y-37592000D03*
%TD*%
D35*
%TO.C,R11*%
X104585000Y-79248000D03*
X106235000Y-79248000D03*
%TD*%
D21*
%TO.C,C2*%
X93350000Y-58037500D03*
X93350000Y-59762500D03*
%TD*%
D36*
%TO.C,C35*%
X88975000Y-77335000D03*
X88975000Y-78885000D03*
%TD*%
D13*
%TO.C,J6*%
X104250000Y-107850000D03*
D14*
X106750000Y-107850000D03*
X109250000Y-107850000D03*
X111750000Y-107850000D03*
X114250000Y-107850000D03*
X116750000Y-107850000D03*
%TD*%
D19*
%TO.C,H1*%
X75000000Y-36000000D03*
%TD*%
M02*
