M48
; DRILL file {KiCad 9.0.0} date 2026-08-02T16:23:32+0900
; FORMAT={-:-/ absolute / metric / decimal}
; #@! TF.CreationDate,2026-08-02T16:23:32+09:00
; #@! TF.GenerationSoftware,Kicad,Pcbnew,9.0.0
; #@! TF.FileFunction,MixedPlating,1,2
FMAT,2
METRIC
; #@! TA.AperFunction,Plated,PTH,ViaDrill
T1C0.300
; #@! TA.AperFunction,Plated,PTH,ViaDrill
T2C0.400
; #@! TA.AperFunction,Plated,PTH,ComponentDrill
T3C0.850
; #@! TA.AperFunction,Plated,PTH,ComponentDrill
T4C1.000
; #@! TA.AperFunction,Plated,PTH,ComponentDrill
T5C1.100
; #@! TA.AperFunction,Plated,PTH,ComponentDrill
T6C1.600
; #@! TA.AperFunction,NonPlated,NPTH,ComponentDrill
T7C3.200
%
G90
G05
T1
X77.47Y-61.722
X79.756Y-53.086
X83.058Y-83.82
X84.628Y-109.728
X86.36Y-104.14
X90.17Y-78.994
X94.996Y-59.69
X96.012Y-81.534
X97.282Y-72.644
X98.552Y-32.258
X98.552Y-72.644
X99.822Y-57.658
X100.584Y-58.928
X100.838Y-71.882
X100.969Y-75.061
X101.483Y-58.42
X102.108Y-62.992
X102.108Y-68.326
X102.362Y-109.728
X103.124Y-74.93
X103.632Y-59.436
X104.648Y-66.294
X105.156Y-74.422
X105.918Y-62.738
X105.918Y-64.516
X106.382Y-109.982
X106.726Y-37.455
X107.442Y-79.248
X107.696Y-104.14
X107.823Y-84.963
X108.204Y-36.83
X108.204Y-69.342
X108.458Y-54.102
X108.595Y-66.294
X109.22Y-71.12
X109.22Y-71.92
X109.444Y-74.331
X109.591Y-81.029
X109.704Y-72.78
X109.728Y-69.596
X109.865Y-73.564
X109.982Y-59.436
X110.619Y-77.724
X110.706Y-66.04
X110.744Y-69.088
X110.744Y-80.01
X110.998Y-38.1
X111.506Y-46.736
X111.506Y-60.706
X111.506Y-66.04
X111.567Y-51.877
X112.014Y-102.87
X112.461Y-69.535
X113.119Y-72.898
X113.284Y-62.484
X113.284Y-77.47
X113.482Y-105.466
X113.538Y-66.04
X113.792Y-104.648
X114.046Y-81.026
X114.44Y-32.258
X116.141Y-71.111
X116.586Y-78.486
X117.856Y-61.722
X118.364Y-37.338
X119.126Y-32.258
X119.126Y-69.85
X119.38Y-74.676
X119.888Y-69.85
X119.888Y-78.74
X120.122Y-77.074
X120.142Y-74.676
X120.65Y-69.85
X120.904Y-74.676
X121.412Y-49.53
X121.412Y-64.262
X121.412Y-69.85
X121.92Y-79.756
X122.174Y-69.85
X122.936Y-69.85
X122.936Y-74.676
X123.118Y-109.982
X123.698Y-48.26
X123.698Y-69.85
X123.698Y-70.612
X123.698Y-71.374
X123.698Y-72.136
X123.698Y-72.898
X123.698Y-73.66
X123.698Y-74.422
X124.714Y-65.024
X124.714Y-66.04
X125.222Y-38.608
X125.222Y-45.72
X127.0Y-101.346
X128.651Y-98.425
X128.778Y-104.14
X132.588Y-98.044
X134.62Y-37.592
X135.69Y-32.258
X137.16Y-84.582
T2
X88.514Y-47.376
X92.456Y-52.07
X93.472Y-47.498
X94.488Y-50.038
X96.266Y-46.228
X96.266Y-48.514
X102.87Y-76.454
X118.364Y-71.882
X118.364Y-74.422
X118.872Y-68.58
X122.174Y-74.93
X130.556Y-54.864
T3
X82.75Y-107.85
X83.726Y-34.544
X85.25Y-107.85
X86.226Y-34.544
X87.75Y-107.85
X88.726Y-34.544
X90.25Y-107.85
X91.226Y-34.544
X92.75Y-107.85
X93.726Y-34.544
X95.25Y-107.85
X96.226Y-34.544
X104.226Y-34.544
X104.25Y-107.85
X106.726Y-34.544
X106.75Y-107.85
X109.226Y-34.544
X109.25Y-107.85
X111.726Y-34.544
X111.75Y-107.85
X114.226Y-34.544
X114.25Y-107.85
X116.726Y-34.544
X116.75Y-107.85
X125.25Y-107.85
X125.476Y-34.544
X127.75Y-107.85
X127.976Y-34.544
X130.25Y-107.85
X130.476Y-34.544
X132.75Y-107.85
X132.976Y-34.544
X135.25Y-107.85
X135.476Y-34.544
X137.75Y-107.85
X137.976Y-34.544
T4
X78.232Y-78.74
X78.232Y-81.28
X100.061Y-82.042
X102.601Y-82.042
X105.141Y-82.042
X138.176Y-47.244
X138.176Y-49.784
X138.176Y-52.324
X138.176Y-54.864
X138.176Y-59.944
X138.176Y-62.484
X138.176Y-65.024
X138.176Y-67.564
X138.176Y-89.408
X138.176Y-91.948
X138.176Y-94.488
X138.176Y-97.028
T5
X115.284Y-57.117
X115.284Y-61.617
X121.784Y-57.117
X121.784Y-61.617
T6
X73.0Y-55.5
X73.0Y-59.0
X73.125Y-74.46
X73.125Y-77.96
X73.125Y-81.46
T7
X75.0Y-36.0
X75.0Y-106.0
X145.0Y-36.0
X145.0Y-106.0
M30
